<?xml version="1.0" encoding="UTF-8"?>
<!DOCTYPE svg PUBLIC "-//W3C//DTD SVG 1.1//EN" "http://www.w3.org/Graphics/SVG/1.1/DTD/svg11.dtd">
<svg xmlns="http://www.w3.org/2000/svg" version="1.1" width="1024px" height="1024px" style="shape-rendering:geometricPrecision; text-rendering:geometricPrecision; image-rendering:optimizeQuality; fill-rule:evenodd; clip-rule:evenodd" xmlns:xlink="http://www.w3.org/1999/xlink">
<g><path style="opacity:0.883" fill="#fefffe" d="M 644.5,306.5 C 647.064,306.979 649.564,307.645 652,308.5C 660.633,307.413 668.633,308.746 676,312.5C 678.868,310.575 681.535,310.575 684,312.5C 688.475,311.554 692.808,311.554 697,312.5C 698.512,311.743 699.846,310.743 701,309.5C 704.07,311.447 706.57,313.947 708.5,317C 706.973,319.439 704.973,321.439 702.5,323C 703.255,327.28 702.255,331.28 699.5,335C 700.97,339.281 700.636,343.448 698.5,347.5C 697.624,348.251 696.624,348.751 695.5,349C 695.833,349.333 696.167,349.667 696.5,350C 695.143,353.215 693.643,356.382 692,359.5C 690.732,359.616 689.398,359.949 688,360.5C 686.102,364.628 683.935,368.628 681.5,372.5C 680.349,373.731 679.183,373.731 678,372.5C 675.181,374.669 672.014,376.169 668.5,377C 662.995,380.192 658.162,384.025 654,388.5C 652,387.167 650,385.833 648,384.5C 644.684,385.351 641.184,385.684 637.5,385.5C 631.497,384.309 625.664,382.642 620,380.5C 619.667,380.833 619.333,381.167 619,381.5C 616.23,378.554 613.063,376.221 609.5,374.5C 607.227,371.602 605.227,368.602 603.5,365.5C 601.33,367.086 598.996,368.42 596.5,369.5C 592.612,367.685 588.778,366.685 585,366.5C 580.26,369.559 575.76,373.059 571.5,377C 569.783,378.559 567.783,379.392 565.5,379.5C 565.649,380.552 565.483,381.552 565,382.5C 554.228,393.596 541.561,398.596 527,397.5C 522.874,396.017 518.874,394.35 515,392.5C 513.853,393.458 512.853,393.125 512,391.5C 510.534,393.325 508.701,393.825 506.5,393C 504.415,391.257 502.748,389.257 501.5,387C 501.439,385.289 502.106,383.956 503.5,383C 492.815,373.677 486.649,361.843 485,347.5C 482.406,346.408 480.239,344.741 478.5,342.5C 478.059,340.073 477.059,337.573 475.5,335C 475.658,332.851 476.492,331.017 478,329.5C 481,330.5 484,331.5 487,332.5C 487.333,332.167 487.667,331.833 488,331.5C 488.388,332.428 489.055,333.095 490,333.5C 492.859,331.49 496.025,330.157 499.5,329.5C 500.386,328.675 500.719,327.675 500.5,326.5C 503.969,327.113 505.969,325.779 506.5,322.5C 510.741,321.692 515.074,320.692 519.5,319.5C 523.034,320.131 526.534,320.798 530,321.5C 532.996,319.509 535.829,319.509 538.5,321.5C 540.831,321.55 542.997,321.217 545,320.5C 547.653,321.33 550.32,322.33 553,323.5C 555.552,323.869 558.219,323.869 561,323.5C 562.941,325.542 565.108,326.208 567.5,325.5C 574.191,329.088 580.691,332.755 587,336.5C 587.414,336.043 587.914,335.709 588.5,335.5C 589.906,336.951 591.406,338.284 593,339.5C 600.525,333.303 608.025,327.137 615.5,321C 617.833,320.667 620.167,320.333 622.5,320C 628.832,315.828 635.499,312.328 642.5,309.5C 643.425,308.643 644.092,307.643 644.5,306.5 Z M 647.5,328.5 C 650.356,328.928 653.356,329.095 656.5,329C 659.327,329.701 661.994,330.701 664.5,332C 662.665,332.928 662.332,334.094 663.5,335.5C 662.538,339.42 661.038,343.086 659,346.5C 656.049,349.572 653.216,352.739 650.5,356C 645.707,356.653 641.041,357.82 636.5,359.5C 630.626,356.043 624.626,353.543 618.5,352C 619.833,350.333 619.833,348.667 618.5,347C 622.412,343.258 626.078,339.425 629.5,335.5C 634.128,334.522 638.628,332.522 643,329.5C 644.915,330.916 646.415,330.582 647.5,328.5 Z M 685.5,337.5 C 685.611,338.117 685.944,338.617 686.5,339C 684.695,339.972 683.028,341.139 681.5,342.5C 675.277,341.231 674.11,338.231 678,333.5C 679.84,336.004 682.34,337.338 685.5,337.5 Z M 531.5,339.5 C 537.983,341.633 544.316,343.133 550.5,344C 553.448,349.948 557.781,354.615 563.5,358C 560.64,360.36 557.64,362.527 554.5,364.5C 552.278,363.222 549.944,362.222 547.5,361.5C 545.019,363.164 542.353,363.664 539.5,363C 534.594,359.169 529.427,358.003 524,359.5C 519.003,357.668 514.503,355.001 510.5,351.5C 512.847,346.314 516.847,343.814 522.5,344C 525.613,342.583 528.613,341.083 531.5,339.5 Z M 670.5,353.5 C 673.844,354.004 676.844,355.338 679.5,357.5C 679,358.5 678.5,359.5 678,360.5C 676,358.403 673.834,357.403 671.5,357.5C 670.571,356.311 670.238,354.978 670.5,353.5 Z M 510.5,365.5 C 512.05,367.3 513.05,369.467 513.5,372C 509.505,374.176 506.505,373.176 504.5,369C 506.432,367.541 508.432,366.375 510.5,365.5 Z M 525.5,380.5 C 526.522,381.892 526.189,383.225 524.5,384.5C 524.167,384.167 523.833,383.833 523.5,383.5C 524.193,382.482 524.859,381.482 525.5,380.5 Z"/></g>
</svg>
