<?xml version="1.0" encoding="UTF-8"?>
<!DOCTYPE svg PUBLIC "-//W3C//DTD SVG 1.1//EN" "http://www.w3.org/Graphics/SVG/1.1/DTD/svg11.dtd">
<svg xmlns="http://www.w3.org/2000/svg" version="1.1" width="1024px" height="1024px" style="shape-rendering:geometricPrecision; text-rendering:geometricPrecision; image-rendering:optimizeQuality; fill-rule:evenodd; clip-rule:evenodd" xmlns:xlink="http://www.w3.org/1999/xlink">
<g><path style="opacity:0.977" fill="#fefffe" d="M 481.5,108.5 C 487.233,107.895 492.566,109.062 497.5,112C 507.677,117.589 518.01,122.922 528.5,128C 530.923,129.571 532.256,131.737 532.5,134.5C 544.04,133.496 555.04,130.662 565.5,126C 572.841,126.235 579.841,124.901 586.5,122C 594.833,121.333 603.167,121.333 611.5,122C 627.578,124.377 643.578,127.044 659.5,130C 662.295,131.793 664.795,133.96 667,136.5C 670.92,142.674 675.087,148.674 679.5,154.5C 683.571,155.137 687.571,155.971 691.5,157C 695.294,161.786 699.628,165.952 704.5,169.5C 706.363,171.893 707.696,174.56 708.5,177.5C 711.868,178.702 714.034,181.035 715,184.5C 716.024,202.226 717.524,219.893 719.5,237.5C 719.583,240.54 718.916,243.373 717.5,246C 720.374,256.252 716.707,262.919 706.5,266C 701.338,271.495 695.338,275.829 688.5,279C 685.647,282.594 681.98,284.928 677.5,286C 665.157,287.085 652.824,288.251 640.5,289.5C 637.045,289.579 633.712,289.079 630.5,288C 613.5,287.667 596.5,287.333 579.5,287C 566.247,282.25 553.247,276.917 540.5,271C 534.647,271.403 529.647,269.57 525.5,265.5C 523.528,266.305 522.028,267.639 521,269.5C 503.228,296.711 488.895,325.711 478,356.5C 475.335,380.809 473.335,405.142 472,429.5C 472.574,432.321 473.908,434.654 476,436.5C 476.743,438.441 476.576,440.274 475.5,442C 478.227,450.738 480.727,459.571 483,468.5C 486.442,475.717 489.609,483.05 492.5,490.5C 502.722,497.892 511.055,507.058 517.5,518C 526.782,519.76 535.448,523.093 543.5,528C 550.207,527.855 555.874,530.188 560.5,535C 565.285,540.09 569.452,545.59 573,551.5C 574.499,559.373 573.166,566.706 569,573.5C 569.595,579.59 567.761,584.757 563.5,589C 540.66,600.615 516.993,610.282 492.5,618C 487.422,626.908 481.755,635.408 475.5,643.5C 479.826,647.657 484.326,651.657 489,655.5C 489.309,656.766 489.809,657.933 490.5,659C 502.811,658.49 515.144,658.49 527.5,659C 541.808,660.018 556.141,661.018 570.5,662C 572.388,664.19 574.555,666.023 577,667.5C 583.243,683.519 578.076,693.352 561.5,697C 557.221,701.279 552.887,705.613 548.5,710C 535.517,707.212 524.184,710.545 514.5,720C 504.936,724.395 495.27,728.562 485.5,732.5C 476.501,742.67 466.167,751.17 454.5,758C 458.284,761.108 461.284,764.775 463.5,769C 465.888,770.861 468.554,772.194 471.5,773C 475.918,773.208 480.251,773.874 484.5,775C 486.625,776.737 487.458,778.904 487,781.5C 475.5,793.667 464,805.833 452.5,818C 447.373,820.397 442.373,823.064 437.5,826C 432.135,831.699 426.469,837.033 420.5,842C 410.399,845.542 405.899,842.042 407,831.5C 412.21,826.049 417.876,821.049 424,816.5C 426.208,813.446 427.208,810.113 427,806.5C 426.535,805.069 425.701,803.903 424.5,803C 419.519,802.204 414.852,800.538 410.5,798C 387.143,800.637 379.309,790.804 387,768.5C 396.521,756.308 408.355,747.141 422.5,741C 428.208,735.824 433.875,730.657 439.5,725.5C 434.47,718.101 429.97,710.435 426,702.5C 415.434,699.9 404.934,697.067 394.5,694C 381.194,694.161 367.861,693.828 354.5,693C 349.771,691.218 345.271,689.051 341,686.5C 336.781,671.421 339.614,657.921 349.5,646C 351.917,644.374 354.417,642.874 357,641.5C 363.444,631.391 370.277,621.557 377.5,612C 376.424,610.274 376.257,608.441 377,606.5C 379.018,604.65 380.851,602.65 382.5,600.5C 386.193,600.207 389.36,598.873 392,596.5C 392.798,590.034 394.131,583.701 396,577.5C 397.02,570.201 397.687,562.868 398,555.5C 399.022,554.646 399.855,553.646 400.5,552.5C 399.441,549.382 398.108,546.382 396.5,543.5C 397.373,541.587 398.373,539.753 399.5,538C 393.411,529.156 387.078,520.489 380.5,512C 376.565,511.916 372.898,510.916 369.5,509C 344.442,483.267 325.942,453.433 314,419.5C 313.49,410.81 313.824,402.144 315,393.5C 323.017,351.142 338.017,311.476 360,274.5C 366.206,269.118 370.706,262.452 373.5,254.5C 370.088,252.255 367.588,249.255 366,245.5C 364.019,238.243 362.352,230.91 361,223.5C 358.894,221.623 357.561,219.29 357,216.5C 351.473,220.677 345.306,222.177 338.5,221C 337.398,218.599 337.231,216.099 338,213.5C 340.304,211.932 342.804,210.765 345.5,210C 351,204.5 356.5,199 362,193.5C 365.296,181.276 369.963,169.609 376,158.5C 378.365,155.131 381.532,152.964 385.5,152C 389.833,145 395.5,139.333 402.5,135C 413.408,126.418 425.075,119.085 437.5,113C 446.797,111.192 456.13,111.192 465.5,113C 466.416,113.374 467.25,113.874 468,114.5C 470.8,113.875 473.634,113.208 476.5,112.5C 477.707,110.459 479.374,109.126 481.5,108.5 Z"/></g>
</svg>
