<?xml version="1.0" encoding="UTF-8"?>
<!DOCTYPE svg PUBLIC "-//W3C//DTD SVG 1.1//EN" "http://www.w3.org/Graphics/SVG/1.1/DTD/svg11.dtd">
<svg xmlns="http://www.w3.org/2000/svg" version="1.1" width="1024px" height="1024px" style="shape-rendering:geometricPrecision; text-rendering:geometricPrecision; image-rendering:optimizeQuality; fill-rule:evenodd; clip-rule:evenodd" xmlns:xlink="http://www.w3.org/1999/xlink">
<g><path style="opacity:0.987" fill="#fefffe" d="M 370.5,562.5 C 371.688,560.656 372.688,558.823 373.5,557C 372.366,555.984 372.699,555.317 374.5,555C 374.167,554.667 373.833,554.333 373.5,554C 376.547,550.075 379.714,546.241 383,542.5C 391.758,523.968 402.758,506.968 416,491.5C 431.003,462.495 452.836,439.995 481.5,424C 497.161,415.793 513.661,411.627 531,411.5C 533.79,412.094 536.29,413.261 538.5,415C 547.733,415.249 556.899,416.082 566,417.5C 571.794,416.399 577.627,416.232 583.5,417C 588.505,418.837 593.505,420.67 598.5,422.5C 604.122,419.613 610.122,418.78 616.5,420C 628.392,422.445 638.726,427.779 647.5,436C 658.398,440.583 667.898,447.083 676,455.5C 679.333,461.5 682.667,467.5 686,473.5C 690.768,477.197 694.768,481.53 698,486.5C 717.086,525.003 730.752,565.336 739,607.5C 739.363,617.767 740.53,627.934 742.5,638C 741.053,647.776 736.053,655.11 727.5,660C 722.178,661.908 716.845,661.908 711.5,660C 706.792,656.762 701.792,654.262 696.5,652.5C 696.167,653 695.833,653.5 695.5,654C 699.586,668.134 700.586,682.3 698.5,696.5C 700.305,705.067 701.805,713.734 703,722.5C 703.333,734.167 703.667,745.833 704,757.5C 711.693,783.617 714.859,810.283 713.5,837.5C 728.436,841.715 741.269,849.382 752,860.5C 758.276,870.04 756.11,876.873 745.5,881C 738.651,882.961 731.651,884.127 724.5,884.5C 713.866,883.673 703.366,882.007 693,879.5C 680.087,881.369 667.587,879.869 655.5,875C 650.884,872.44 646.718,869.273 643,865.5C 630.693,832.63 624.026,798.63 623,763.5C 620.126,755.712 616.96,748.045 613.5,740.5C 612.975,739.808 612.308,739.308 611.5,739C 590.098,734.719 568.598,731.219 547,728.5C 539.184,729.216 531.351,729.716 523.5,730C 512.583,736.248 505.417,745.415 502,757.5C 502.504,769.478 502.504,781.478 502,793.5C 499.807,814.774 498.474,836.108 498,857.5C 497.322,862.25 495.656,866.583 493,870.5C 489.953,872.918 487.62,875.918 486,879.5C 482.175,882.325 478.675,885.492 475.5,889C 467.709,892.815 460.042,896.815 452.5,901C 449.167,901.667 445.833,901.667 442.5,901C 441.667,900.167 440.833,899.333 440,898.5C 436.094,900.702 431.927,902.202 427.5,903C 421.071,903.229 414.737,904.063 408.5,905.5C 398.303,904.481 394.803,899.148 398,889.5C 404.364,883.128 410.031,876.128 415,868.5C 418.946,864.555 423.446,861.389 428.5,859C 430.227,857.611 431.561,855.944 432.5,854C 430.223,843.281 428.723,832.447 428,821.5C 426.592,783.067 427.925,744.734 432,706.5C 434.276,689.178 436.443,671.845 438.5,654.5C 437.775,649.823 436.942,645.156 436,640.5C 426.657,661.747 410.491,671.581 387.5,670C 385.101,669.269 382.935,668.102 381,666.5C 378.112,658.667 374.779,651.001 371,643.5C 368.028,628.23 367.862,612.897 370.5,597.5C 368.663,590.69 369.663,584.356 373.5,578.5C 372.872,576.742 371.872,575.242 370.5,574C 372.797,572.84 372.464,571.84 369.5,571C 370.167,569 371.5,567.667 373.5,567C 372.5,566.5 371.5,566 370.5,565.5C 369.224,564.386 369.224,563.386 370.5,562.5 Z M 370.5,562.5 C 373.001,562.511 373.168,563.178 371,564.5C 370.536,563.906 370.369,563.239 370.5,562.5 Z M 494.5,794.5 C 495.683,798.986 496.183,803.652 496,808.5C 494.563,804.028 494.063,799.361 494.5,794.5 Z"/></g>
<g><path style="opacity:0.116" fill="#fefffe" d="M 700.5,681.5 C 701.97,686.321 702.804,691.321 703,696.5C 700.765,691.777 699.931,686.777 700.5,681.5 Z"/></g>
<g><path style="opacity:0.357" fill="#fefffe" d="M 706.5,714.5 C 709.352,721.57 711.685,728.903 713.5,736.5C 713.407,740.55 712.24,744.217 710,747.5C 708.563,736.525 707.396,725.525 706.5,714.5 Z"/></g>
</svg>
