<?xml version="1.0" encoding="UTF-8"?>
<!DOCTYPE svg PUBLIC "-//W3C//DTD SVG 1.1//EN" "http://www.w3.org/Graphics/SVG/1.1/DTD/svg11.dtd">
<svg xmlns="http://www.w3.org/2000/svg" version="1.1" width="1024px" height="1024px" style="shape-rendering:geometricPrecision; text-rendering:geometricPrecision; image-rendering:optimizeQuality; fill-rule:evenodd; clip-rule:evenodd" xmlns:xlink="http://www.w3.org/1999/xlink">
<g><path style="opacity:0.975" fill="#fefffe" d="M 558.5,620.5 C 558.833,621.833 559.167,621.833 559.5,620.5C 560.167,620.5 560.5,620.167 560.5,619.5C 561.833,619.167 561.833,618.833 560.5,618.5C 562.103,616.706 564.27,615.706 567,615.5C 568.235,616.615 569.402,616.615 570.5,615.5C 570.787,616.2 571.12,616.867 571.5,617.5C 572.623,618.757 573.289,618.424 573.5,616.5C 573.833,616.5 574.167,616.5 574.5,616.5C 574.775,618.842 575.608,618.842 577,616.5C 577.333,617.167 577.667,617.833 578,618.5C 578.667,617.167 579.333,617.167 580,618.5C 581.667,617.5 583.333,616.5 585,615.5C 585.308,616.308 585.808,616.975 586.5,617.5C 587.696,617.154 587.696,616.654 586.5,616C 588.445,616.128 590.278,615.962 592,615.5C 592.333,616.167 592.667,616.833 593,617.5C 595.038,615.928 597.371,614.928 600,614.5C 601.903,614.694 603.737,614.694 605.5,614.5C 606.429,615.689 606.762,617.022 606.5,618.5C 611.136,617.851 615.802,617.351 620.5,617C 629.902,613.2 639.569,610.2 649.5,608C 659.786,603.191 669.786,597.857 679.5,592C 683.926,591.209 688.259,591.543 692.5,593C 693.787,594.41 694.954,595.91 696,597.5C 696.28,604.859 697.947,611.859 701,618.5C 706.911,650.12 712.578,681.786 718,713.5C 717.495,728.194 716.828,742.861 716,757.5C 717.368,760.186 718.701,762.853 720,765.5C 720.333,772.5 720.667,779.5 721,786.5C 728.379,791.98 730.379,798.98 727,807.5C 719.196,819.655 708.363,827.822 694.5,832C 686.064,834.387 677.731,837.053 669.5,840C 662.366,840.408 655.366,839.574 648.5,837.5C 640.928,843.993 632.595,845.16 623.5,841C 617.603,832.541 618.437,824.708 626,817.5C 626.167,815.667 626.333,813.833 626.5,812C 622.304,795.459 620.47,778.626 621,761.5C 618.997,752.661 616.497,743.994 613.5,735.5C 603.167,740.667 592.833,745.833 582.5,751C 564.947,757.34 547.947,756.34 531.5,748C 527.814,747.441 524.147,746.774 520.5,746C 518.671,745.727 517.171,744.893 516,743.5C 515.031,755.877 512.864,768.044 509.5,780C 510.063,782.124 510.396,784.291 510.5,786.5C 509.834,794.822 509.334,803.155 509,811.5C 508.907,814.007 508.074,816.174 506.5,818C 520.207,832.047 517.873,842.38 499.5,849C 491.167,849.9 482.834,850.734 474.5,851.5C 462.237,849.545 449.903,848.045 437.5,847C 431.668,844.414 425.668,842.414 419.5,841C 413.615,837.396 411.448,832.23 413,825.5C 416.661,823.587 420.494,822.087 424.5,821C 419.877,810.003 417.377,798.503 417,786.5C 415.814,773.18 416.647,760.014 419.5,747C 418.186,743.617 417.353,740.117 417,736.5C 414.863,711.405 417.196,686.738 424,662.5C 428.473,650.684 432.307,638.684 435.5,626.5C 434.826,624.483 433.659,622.817 432,621.5C 430.5,612.333 434.333,608.5 443.5,610C 448.643,612.831 453.476,615.998 458,619.5C 464.795,618.388 471.629,618.222 478.5,619C 480.996,620.08 483.33,621.414 485.5,623C 504.126,623.772 522.626,622.606 541,619.5C 542.982,619.99 544.649,620.99 546,622.5C 547.779,621.521 549.445,621.854 551,623.5C 553.126,621.623 555.626,620.623 558.5,620.5 Z M 573.5,616.5 C 573.289,618.424 572.623,618.757 571.5,617.5C 572.167,617.167 572.833,616.833 573.5,616.5 Z"/></g>
<g><path style="opacity:0.008" fill="#fefffe" d="M 574.5,615.5 C 575.833,616.167 575.833,616.167 574.5,615.5 Z"/></g>
<g><path style="opacity:0.01" fill="#fefffe" d="M 558.5,618.5 C 557.761,618.631 557.094,618.464 556.5,618C 557.437,617.308 558.103,617.475 558.5,618.5 Z"/></g>
<g><path style="opacity:0.004" fill="#fefffe" d="M 553.5,618.5 C 554.833,619.167 554.833,619.167 553.5,618.5 Z"/></g>
<g><path style="opacity:0.105" fill="#fefffe" d="M 558.5,618.5 C 559.167,618.5 559.833,618.5 560.5,618.5C 560.5,618.833 560.5,619.167 560.5,619.5C 559.833,619.5 559.5,619.833 559.5,620.5C 559.167,620.5 558.833,620.5 558.5,620.5C 558.5,619.833 558.5,619.167 558.5,618.5 Z"/></g>
<g><path style="opacity:0.004" fill="#fefffe" d="M 546.5,619.5 C 547.833,620.167 547.833,620.167 546.5,619.5 Z"/></g>
</svg>
