<?xml version="1.0" encoding="UTF-8"?>
<!DOCTYPE svg PUBLIC "-//W3C//DTD SVG 1.1//EN" "http://www.w3.org/Graphics/SVG/1.1/DTD/svg11.dtd">
<svg xmlns="http://www.w3.org/2000/svg" version="1.1" width="512px" height="512px" style="shape-rendering:geometricPrecision; text-rendering:geometricPrecision; image-rendering:optimizeQuality; fill-rule:evenodd; clip-rule:evenodd" xmlns:xlink="http://www.w3.org/1999/xlink">
<g><path style="opacity:1" fill="#fefffe" d="M 333.5,357.5 C 333.167,356.167 332.833,356.167 332.5,357.5C 332.167,357.5 331.833,357.5 331.5,357.5C 331.167,356.167 330.833,356.167 330.5,357.5C 326.96,356.965 323.46,357.632 320,359.5C 317.837,358.232 315.67,358.232 313.5,359.5C 313.167,358.167 312.833,358.167 312.5,359.5C 310.038,359.618 307.538,359.951 305,360.5C 303.667,359.833 302.333,359.167 301,358.5C 299.192,358.888 297.525,358.888 296,358.5C 295.683,360.301 295.016,360.634 294,359.5C 291.626,362.288 290.293,361.954 290,358.5C 289.667,359.5 289.333,360.5 289,361.5C 286.978,360.009 285.312,360.342 284,362.5C 283.667,361.833 283.333,361.167 283,360.5C 282.722,361.416 282.222,362.082 281.5,362.5C 280.652,361.375 279.652,361.375 278.5,362.5C 277.833,361.167 277.167,361.167 276.5,362.5C 274.486,362.392 272.82,363.058 271.5,364.5C 270.452,362.067 269.786,362.067 269.5,364.5C 269.167,364.5 268.833,364.5 268.5,364.5C 268.167,363.167 267.833,363.167 267.5,364.5C 264.645,365.117 261.978,366.117 259.5,367.5C 259.167,366.167 258.833,366.167 258.5,367.5C 257.12,366.294 255.953,366.627 255,368.5C 254.309,366.109 253.309,366.109 252,368.5C 251.023,367.226 250.189,367.226 249.5,368.5C 247.847,368.66 246.514,369.326 245.5,370.5C 244.213,371.768 243.213,371.435 242.5,369.5C 240.008,371.181 237.508,371.848 235,371.5C 219.435,376.286 202.935,379.119 185.5,380C 165.857,381.685 146.191,383.018 126.5,384C 118.768,384.946 111.102,386.28 103.5,388C 97.8765,389.276 92.7099,388.443 88,385.5C 83.5945,387.2 79.5945,386.533 76,383.5C 75.3333,379.167 75.3333,374.833 76,370.5C 80.9388,361.899 86.2721,353.565 92,345.5C 93.2568,343.254 95.0901,341.921 97.5,341.5C 106.76,312.312 120.26,285.312 138,260.5C 142.195,250.914 146.195,241.248 150,231.5C 163.24,206.015 177.24,181.015 192,156.5C 193.522,154.978 195.022,153.478 196.5,152C 199.318,142.896 202.818,134.063 207,125.5C 213.607,122.027 220.441,121.693 227.5,124.5C 228.84,125.688 229.507,127.188 229.5,129C 228.14,131.27 227.473,133.77 227.5,136.5C 232.193,136.898 236.526,138.398 240.5,141C 249.725,150.388 258.391,160.222 266.5,170.5C 270.725,174.526 275.225,178.192 280,181.5C 283.146,186.343 287.313,190.177 292.5,193C 296.217,194.18 299.884,195.513 303.5,197C 318.67,211.923 334.67,225.923 351.5,239C 355.877,243.043 359.044,247.876 361,253.5C 361.66,256.534 361.16,259.367 359.5,262C 361.455,262.953 363.122,264.287 364.5,266C 368.848,265.918 372.848,266.918 376.5,269C 386.39,279.054 395.724,289.554 404.5,300.5C 409.963,303.297 413.63,307.631 415.5,313.5C 421.784,315.317 427.784,317.817 433.5,321C 443.161,329.535 442.494,337.202 431.5,344C 427.517,344.64 423.517,345.14 419.5,345.5C 416.622,345.614 413.956,344.948 411.5,343.5C 408.896,346.636 405.562,348.469 401.5,349C 381.786,349.522 362.12,350.689 342.5,352.5C 341.756,354.986 340.256,356.986 338,358.5C 336.532,356.964 335.032,356.63 333.5,357.5 Z M 271.5,364.5 C 270.833,364.5 270.167,364.5 269.5,364.5C 269.786,362.067 270.452,362.067 271.5,364.5 Z"/></g>
<g><path style="opacity:1" fill="#fefffe" d="M 330.5,357.5 C 330.833,357.5 331.167,357.5 331.5,357.5C 331.315,358.17 330.981,358.17 330.5,357.5 Z"/></g>
<g><path style="opacity:1" fill="#fefffe" d="M 332.5,357.5 C 332.833,357.5 333.167,357.5 333.5,357.5C 333.315,358.17 332.981,358.17 332.5,357.5 Z"/></g>
<g><path style="opacity:0.004" fill="#f1aa98" d="M 328.5,358.5 C 329.833,359.167 329.833,359.167 328.5,358.5 Z"/></g>
<g><path style="opacity:1" fill="#fefffe" d="M 312.5,359.5 C 312.833,359.5 313.167,359.5 313.5,359.5C 313.315,360.17 312.981,360.17 312.5,359.5 Z"/></g>
<g><path style="opacity:0.004" fill="#f1aa98" d="M 307.5,360.5 C 308.833,361.167 308.833,361.167 307.5,360.5 Z"/></g>
<g><path style="opacity:1" fill="#fefffe" d="M 276.5,362.5 C 277.167,362.5 277.833,362.5 278.5,362.5C 277.833,363.833 277.167,363.833 276.5,362.5 Z"/></g>
<g><path style="opacity:1" fill="#fefffe" d="M 281.5,362.5 C 280.833,363.167 280.833,363.167 281.5,362.5 Z"/></g>
<g><path style="opacity:0.004" fill="#f2aa98" d="M 285.5,363.5 C 286.251,362.427 287.251,362.26 288.5,363C 287.552,363.483 286.552,363.649 285.5,363.5 Z"/></g>
<g><path style="opacity:0.004" fill="#f1aa97" d="M 274.5,363.5 C 275.833,364.167 275.833,364.167 274.5,363.5 Z"/></g>
<g><path style="opacity:1" fill="#fefffe" d="M 267.5,364.5 C 267.833,364.5 268.167,364.5 268.5,364.5C 268.315,365.17 267.981,365.17 267.5,364.5 Z"/></g>
<g><path style="opacity:0.004" fill="#f1aa97" d="M 274.5,364.5 C 273.833,365.167 273.833,365.167 274.5,364.5 Z"/></g>
<g><path style="opacity:0.004" fill="#f1aa98" d="M 289.5,365.5 C 288.833,364.167 288.833,364.167 289.5,365.5 Z"/></g>
<g><path style="opacity:0.004" fill="#f1aa97" d="M 291.5,364.5 C 292.833,365.167 292.833,365.167 291.5,364.5 Z"/></g>
<g><path style="opacity:0.004" fill="#f1aa98" d="M 277.5,365.5 C 278.833,366.167 278.833,366.167 277.5,365.5 Z"/></g>
<g><path style="opacity:0.004" fill="#f1aa98" d="M 289.5,365.5 C 290.833,366.167 290.833,366.167 289.5,365.5 Z"/></g>
<g><path style="opacity:0.004" fill="#f1ab98" d="M 263.5,366.5 C 264.833,367.167 264.833,367.167 263.5,366.5 Z"/></g>
<g><path style="opacity:0.004" fill="#f1aa97" d="M 270.5,366.5 C 271.833,367.167 271.833,367.167 270.5,366.5 Z"/></g>
<g><path style="opacity:0.004" fill="#f1aa98" d="M 273.5,366.5 C 274.833,367.167 274.833,367.167 273.5,366.5 Z"/></g>
<g><path style="opacity:0.004" fill="#f1aa98" d="M 281.5,366.5 C 282.833,367.167 282.833,367.167 281.5,366.5 Z"/></g>
<g><path style="opacity:1" fill="#fefffe" d="M 258.5,367.5 C 258.833,367.5 259.167,367.5 259.5,367.5C 259.315,368.17 258.981,368.17 258.5,367.5 Z"/></g>
<g><path style="opacity:1" fill="#fefffe" d="M 249.5,368.5 C 250.833,369.167 250.833,369.167 249.5,368.5 Z"/></g>
<g><path style="opacity:1" fill="#fefffe" d="M 245.5,370.5 C 246.833,371.167 246.833,371.167 245.5,370.5 Z"/></g>
</svg>
