<?xml version="1.0" encoding="UTF-8"?>
<!DOCTYPE svg PUBLIC "-//W3C//DTD SVG 1.1//EN" "http://www.w3.org/Graphics/SVG/1.1/DTD/svg11.dtd">
<svg xmlns="http://www.w3.org/2000/svg" version="1.1" width="1024px" height="1024px" style="shape-rendering:geometricPrecision; text-rendering:geometricPrecision; image-rendering:optimizeQuality; fill-rule:evenodd; clip-rule:evenodd" xmlns:xlink="http://www.w3.org/1999/xlink">
<g><path style="opacity:1" fill="#fefffe" d="M 648.5,432.5 C 648.167,431.167 647.833,431.167 647.5,432.5C 647.167,432.5 646.833,432.5 646.5,432.5C 646.167,431.167 645.833,431.167 645.5,432.5C 641.96,431.965 638.46,432.632 635,434.5C 632.837,433.232 630.67,433.232 628.5,434.5C 628.167,433.167 627.833,433.167 627.5,434.5C 625.038,434.618 622.538,434.951 620,435.5C 618.667,434.833 617.333,434.167 616,433.5C 614.192,433.888 612.525,433.888 611,433.5C 610.683,435.301 610.016,435.634 609,434.5C 606.626,437.288 605.293,436.954 605,433.5C 604.667,434.5 604.333,435.5 604,436.5C 601.978,435.009 600.312,435.342 599,437.5C 598.667,436.833 598.333,436.167 598,435.5C 597.722,436.416 597.222,437.082 596.5,437.5C 595.652,436.375 594.652,436.375 593.5,437.5C 592.833,436.167 592.167,436.167 591.5,437.5C 589.486,437.392 587.82,438.058 586.5,439.5C 585.452,437.067 584.786,437.067 584.5,439.5C 584.167,439.5 583.833,439.5 583.5,439.5C 583.167,438.167 582.833,438.167 582.5,439.5C 579.645,440.117 576.978,441.117 574.5,442.5C 574.167,441.167 573.833,441.167 573.5,442.5C 572.12,441.294 570.953,441.627 570,443.5C 569.309,441.109 568.309,441.109 567,443.5C 566.023,442.226 565.189,442.226 564.5,443.5C 562.847,443.66 561.514,444.326 560.5,445.5C 559.213,446.768 558.213,446.435 557.5,444.5C 555.008,446.181 552.508,446.848 550,446.5C 534.435,451.286 517.935,454.119 500.5,455C 480.857,456.685 461.191,458.018 441.5,459C 433.768,459.946 426.102,461.28 418.5,463C 412.877,464.276 407.71,463.443 403,460.5C 390.806,462.518 386.806,457.518 391,445.5C 395.939,436.899 401.272,428.565 407,420.5C 408.257,418.254 410.09,416.921 412.5,416.5C 421.76,387.312 435.26,360.312 453,335.5C 457.195,325.914 461.195,316.248 465,306.5C 478.24,281.015 492.24,256.015 507,231.5C 508.522,229.978 510.022,228.478 511.5,227C 514.318,217.896 517.818,209.063 522,200.5C 528.607,197.027 535.441,196.693 542.5,199.5C 543.84,200.688 544.507,202.188 544.5,204C 543.14,206.27 542.473,208.77 542.5,211.5C 547.193,211.898 551.526,213.398 555.5,216C 564.725,225.388 573.391,235.222 581.5,245.5C 585.725,249.526 590.225,253.192 595,256.5C 598.146,261.343 602.313,265.177 607.5,268C 611.217,269.18 614.884,270.513 618.5,272C 633.67,286.923 649.67,300.923 666.5,314C 670.877,318.043 674.044,322.876 676,328.5C 676.66,331.534 676.16,334.367 674.5,337C 676.455,337.953 678.122,339.287 679.5,341C 683.848,340.918 687.848,341.918 691.5,344C 701.39,354.054 710.724,364.554 719.5,375.5C 724.963,378.297 728.63,382.631 730.5,388.5C 739.097,390.547 746.597,394.547 753,400.5C 756.54,408.759 754.373,414.926 746.5,419C 742.517,419.64 738.517,420.14 734.5,420.5C 731.622,420.614 728.956,419.948 726.5,418.5C 723.896,421.636 720.562,423.469 716.5,424C 696.786,424.522 677.12,425.689 657.5,427.5C 656.756,429.986 655.256,431.986 653,433.5C 651.532,431.964 650.032,431.63 648.5,432.5 Z M 586.5,439.5 C 585.833,439.5 585.167,439.5 584.5,439.5C 584.786,437.067 585.452,437.067 586.5,439.5 Z"/></g>
<g><path style="opacity:1" fill="#fefffe" d="M 645.5,432.5 C 645.833,432.5 646.167,432.5 646.5,432.5C 646.315,433.17 645.981,433.17 645.5,432.5 Z"/></g>
<g><path style="opacity:1" fill="#fefffe" d="M 647.5,432.5 C 647.833,432.5 648.167,432.5 648.5,432.5C 648.315,433.17 647.981,433.17 647.5,432.5 Z"/></g>
<g><path style="opacity:1" fill="#fefffe" d="M 643.5,433.5 C 644.833,434.167 644.833,434.167 643.5,433.5 Z"/></g>
<g><path style="opacity:1" fill="#fefffe" d="M 627.5,434.5 C 627.833,434.5 628.167,434.5 628.5,434.5C 628.315,435.17 627.981,435.17 627.5,434.5 Z"/></g>
<g><path style="opacity:1" fill="#fefffe" d="M 622.5,435.5 C 623.833,436.167 623.833,436.167 622.5,435.5 Z"/></g>
<g><path style="opacity:1" fill="#fefffe" d="M 591.5,437.5 C 592.167,437.5 592.833,437.5 593.5,437.5C 592.833,438.833 592.167,438.833 591.5,437.5 Z"/></g>
<g><path style="opacity:1" fill="#fefffe" d="M 596.5,437.5 C 595.833,438.167 595.833,438.167 596.5,437.5 Z"/></g>
<g><path style="opacity:1" fill="#fefffe" d="M 600.5,438.5 C 601.251,437.427 602.251,437.26 603.5,438C 602.552,438.483 601.552,438.649 600.5,438.5 Z"/></g>
<g><path style="opacity:1" fill="#fefffe" d="M 589.5,438.5 C 590.833,439.167 590.833,439.167 589.5,438.5 Z"/></g>
<g><path style="opacity:1" fill="#fefffe" d="M 582.5,439.5 C 582.833,439.5 583.167,439.5 583.5,439.5C 583.315,440.17 582.981,440.17 582.5,439.5 Z"/></g>
<g><path style="opacity:1" fill="#fefffe" d="M 589.5,439.5 C 588.833,440.167 588.833,440.167 589.5,439.5 Z"/></g>
<g><path style="opacity:1" fill="#fefffe" d="M 604.5,440.5 C 603.833,439.167 603.833,439.167 604.5,440.5 Z"/></g>
<g><path style="opacity:1" fill="#fefffe" d="M 606.5,439.5 C 607.833,440.167 607.833,440.167 606.5,439.5 Z"/></g>
<g><path style="opacity:1" fill="#fefffe" d="M 592.5,440.5 C 593.833,441.167 593.833,441.167 592.5,440.5 Z"/></g>
<g><path style="opacity:1" fill="#fefffe" d="M 604.5,440.5 C 605.833,441.167 605.833,441.167 604.5,440.5 Z"/></g>
<g><path style="opacity:1" fill="#fefffe" d="M 578.5,441.5 C 579.833,442.167 579.833,442.167 578.5,441.5 Z"/></g>
<g><path style="opacity:1" fill="#fefffe" d="M 585.5,441.5 C 586.833,442.167 586.833,442.167 585.5,441.5 Z"/></g>
<g><path style="opacity:1" fill="#fefffe" d="M 588.5,441.5 C 589.833,442.167 589.833,442.167 588.5,441.5 Z"/></g>
<g><path style="opacity:1" fill="#fefffe" d="M 596.5,441.5 C 597.833,442.167 597.833,442.167 596.5,441.5 Z"/></g>
<g><path style="opacity:1" fill="#fefffe" d="M 573.5,442.5 C 573.833,442.5 574.167,442.5 574.5,442.5C 574.315,443.17 573.981,443.17 573.5,442.5 Z"/></g>
<g><path style="opacity:1" fill="#fefffe" d="M 564.5,443.5 C 565.833,444.167 565.833,444.167 564.5,443.5 Z"/></g>
<g><path style="opacity:1" fill="#fefffe" d="M 560.5,445.5 C 561.833,446.167 561.833,446.167 560.5,445.5 Z"/></g>
</svg>
