<?xml version="1.0" encoding="UTF-8"?>
<!DOCTYPE svg PUBLIC "-//W3C//DTD SVG 1.1//EN" "http://www.w3.org/Graphics/SVG/1.1/DTD/svg11.dtd">
<svg xmlns="http://www.w3.org/2000/svg" version="1.1" width="1024px" height="1024px" style="shape-rendering:geometricPrecision; text-rendering:geometricPrecision; image-rendering:optimizeQuality; fill-rule:evenodd; clip-rule:evenodd" xmlns:xlink="http://www.w3.org/1999/xlink">
<g><path style="opacity:0.969" fill="#fefffe" d="M 476.5,422.5 C 476.5,421.167 475.833,420.5 474.5,420.5C 474.167,417.833 473.833,417.833 473.5,420.5C 472.609,419.89 471.609,419.557 470.5,419.5C 471.598,418.603 471.598,417.77 470.5,417C 468.273,416.879 466.44,416.046 465,414.5C 463.334,415.34 463.167,414.84 464.5,413C 463.915,411.698 463.249,410.531 462.5,409.5C 461.974,407.77 460.974,406.436 459.5,405.5C 459.167,404.167 458.833,404.167 458.5,405.5C 457.957,405.44 457.624,405.107 457.5,404.5C 458.074,402.941 458.74,401.441 459.5,400C 457.216,397.447 455.382,394.613 454,391.5C 451.239,390.501 449.906,388.501 450,385.5C 445.65,387.635 443.317,386.301 443,381.5C 442.667,381.833 442.333,382.167 442,382.5C 441.215,380.714 440.049,379.214 438.5,378C 438.959,376.057 437.959,374.724 435.5,374C 436.552,372.284 435.886,371.284 433.5,371C 433.833,370.667 434.167,370.333 434.5,370C 431.427,369.261 429.26,367.428 428,364.5C 427.536,365.094 427.369,365.761 427.5,366.5C 426.027,365.928 424.693,365.095 423.5,364C 424.167,363.667 424.833,363.333 425.5,363C 423.959,361.629 422.625,360.129 421.5,358.5C 422.167,358.5 422.5,358.167 422.5,357.5C 423.833,357.167 423.833,356.833 422.5,356.5C 422.5,355.833 422.167,355.5 421.5,355.5C 420.886,353.717 419.72,352.384 418,351.5C 415.316,342.366 413.316,332.699 412,322.5C 411.5,322 411,321.5 410.5,321C 409.64,314.386 409.64,307.386 410.5,300C 408.423,294.48 408.423,289.146 410.5,284C 410.056,282.467 409.723,280.967 409.5,279.5C 411.269,277.443 413.269,275.61 415.5,274C 413.342,272.688 413.009,271.022 414.5,269C 413.833,268.667 413.167,268.333 412.5,268C 413.27,265.393 413.937,262.727 414.5,260C 412.084,258.103 412.084,256.103 414.5,254C 413.5,253 412.5,252 411.5,251C 414.301,247.711 414.635,244.378 412.5,241C 412.869,237.781 412.869,234.448 412.5,231C 416.422,224.243 421.755,219.076 428.5,215.5C 428.5,214.5 428.5,213.5 428.5,212.5C 429.822,212.67 430.989,212.337 432,211.5C 434.531,208.27 436.364,204.603 437.5,200.5C 441.567,197.405 442.567,193.405 440.5,188.5C 441.655,183.905 442.488,179.238 443,174.5C 445.069,173.736 447.236,173.236 449.5,173C 450.184,169.078 452.518,167.578 456.5,168.5C 456.5,167.5 456.5,166.5 456.5,165.5C 460.471,166.242 463.304,164.909 465,161.5C 465.333,161.833 465.667,162.167 466,162.5C 470.353,161.612 474.186,159.779 477.5,157C 481.501,156.127 485.168,154.627 488.5,152.5C 493.38,153.347 497.713,155.347 501.5,158.5C 505.357,157.904 509.357,157.904 513.5,158.5C 516.921,156.36 519.421,153.36 521,149.5C 521.725,148.941 522.558,148.608 523.5,148.5C 533.387,150.541 542.887,153.541 552,157.5C 554.538,156.601 557.038,156.934 559.5,158.5C 562.494,157.252 565.494,157.252 568.5,158.5C 572.857,161.204 577.191,163.87 581.5,166.5C 581.05,170.224 582.717,172.391 586.5,173C 591.181,179.676 597.348,184.51 605,187.5C 606.173,191.828 607.839,195.828 610,199.5C 612.596,203.019 615.429,206.352 618.5,209.5C 617.952,211.541 617.785,213.874 618,216.5C 622.994,218.488 626.161,221.988 627.5,227C 627.167,227.333 626.833,227.667 626.5,228C 627.833,229.333 629.167,230.667 630.5,232C 630.043,232.414 629.709,232.914 629.5,233.5C 633.058,239.421 635.058,245.255 635.5,251C 638.992,256.129 641.325,261.796 642.5,268C 642.355,269.226 642.022,270.393 641.5,271.5C 642.719,273.768 644.385,275.601 646.5,277C 647.084,281.501 647.751,286.001 648.5,290.5C 649.748,291.04 650.915,291.707 652,292.5C 652.236,294.764 652.736,296.931 653.5,299C 654.533,310.248 654.533,321.915 653.5,334C 654.167,336.667 654.833,339.333 655.5,342C 654.574,346.49 654.241,350.823 654.5,355C 655.833,355.667 656.833,356.667 657.5,358C 655.205,374.126 652.038,390.292 648,406.5C 647.74,408.618 646.74,410.284 645,411.5C 644.66,415.558 643.993,419.558 643,423.5C 639.865,424.799 636.699,424.799 633.5,423.5C 632.542,425.624 631.375,427.624 630,429.5C 628.986,435.261 627.652,440.927 626,446.5C 623.29,449.643 621.623,453.309 621,457.5C 620.333,458.167 619.667,458.833 619,459.5C 617.215,458.76 615.382,458.093 613.5,457.5C 612.204,459.336 611.37,461.336 611,463.5C 610.333,464.833 609.667,464.833 609,463.5C 608.506,465.134 608.34,466.801 608.5,468.5C 606.473,468.338 604.473,468.505 602.5,469C 600.959,471.04 599.626,473.207 598.5,475.5C 596.722,475.431 594.889,475.097 593,474.5C 592.311,475.357 591.478,476.023 590.5,476.5C 584.893,475.947 579.393,474.947 574,473.5C 573.667,473.833 573.333,474.167 573,474.5C 567.533,472.265 562.7,469.098 558.5,465C 548.103,461.984 538.269,457.818 529,452.5C 527.433,454.168 525.766,454.502 524,453.5C 520.597,455.894 517.097,456.06 513.5,454C 507.054,450.694 501.221,446.527 496,441.5C 491.166,441.261 486.833,439.261 483,435.5C 482.086,436.654 481.253,436.487 480.5,435C 480.577,432.889 480.911,430.889 481.5,429C 479.855,426.656 478.188,424.49 476.5,422.5 Z"/></g>
<g><path style="opacity:0.013" fill="#fefffe" d="M 421.5,355.5 C 422.167,355.5 422.5,355.833 422.5,356.5C 422.5,356.833 422.5,357.167 422.5,357.5C 421.833,357.5 421.5,357.833 421.5,358.5C 420.167,357.5 420.167,356.5 421.5,355.5 Z"/></g>
<g><path style="opacity:0.004" fill="#fefffe" d="M 424.5,366.5 C 425.833,367.167 425.833,367.167 424.5,366.5 Z"/></g>
<g><path style="opacity:0.016" fill="#fefffe" d="M 427.5,366.5 C 428.833,367.167 428.833,367.167 427.5,366.5 Z"/></g>
<g><path style="opacity:0.008" fill="#fefffe" d="M 430.5,370.5 C 429.833,369.167 429.833,369.167 430.5,370.5 Z"/></g>
<g><path style="opacity:0.008" fill="#fefffe" d="M 430.5,370.5 C 431.167,370.5 431.5,370.833 431.5,371.5C 431.167,371.167 430.833,370.833 430.5,370.5 Z"/></g>
<g><path style="opacity:0.004" fill="#fefffe" d="M 431.5,371.5 C 432.833,372.167 432.833,372.167 431.5,371.5 Z"/></g>
<g><path style="opacity:0.004" fill="#fefffe" d="M 431.5,373.5 C 432.833,374.167 432.833,374.167 431.5,373.5 Z"/></g>
<g><path style="opacity:0.004" fill="#fefffe" d="M 436.5,377.5 C 437.833,378.167 437.833,378.167 436.5,377.5 Z"/></g>
<g><path style="opacity:0.031" fill="#fefffe" d="M 458.5,405.5 C 458.833,405.5 459.167,405.5 459.5,405.5C 459.315,406.17 458.981,406.17 458.5,405.5 Z"/></g>
<g><path style="opacity:0.016" fill="#fefffe" d="M 459.5,407.5 C 460.833,408.167 460.833,408.167 459.5,407.5 Z"/></g>
<g><path style="opacity:0.027" fill="#fefffe" d="M 462.5,409.5 C 461.833,410.167 461.833,410.167 462.5,409.5 Z"/></g>
<g><path style="opacity:0.004" fill="#fefffe" d="M 461.5,410.5 C 460.833,411.167 460.833,411.167 461.5,410.5 Z"/></g>
<g><path style="opacity:0.008" fill="#fefffe" d="M 464.5,417.5 C 463.833,416.167 463.833,416.167 464.5,417.5 Z"/></g>
<g><path style="opacity:0.004" fill="#fefffe" d="M 464.5,417.5 C 465.167,417.5 465.5,417.833 465.5,418.5C 465.167,418.167 464.833,417.833 464.5,417.5 Z"/></g>
<g><path style="opacity:0.004" fill="#fefffe" d="M 469.5,419.5 C 468.475,419.103 468.308,418.437 469,417.5C 469.464,418.094 469.631,418.761 469.5,419.5 Z"/></g>
<g><path style="opacity:0.004" fill="#fefffe" d="M 464.5,418.5 C 463.833,419.167 463.833,419.167 464.5,418.5 Z"/></g>
<g><path style="opacity:0.004" fill="#fefffe" d="M 465.5,418.5 C 466.833,419.167 466.833,419.167 465.5,418.5 Z"/></g>
<g><path style="opacity:0.004" fill="#fefffe" d="M 469.5,419.5 C 469.833,419.5 470.167,419.5 470.5,419.5C 470.315,420.17 469.981,420.17 469.5,419.5 Z"/></g>
<g><path style="opacity:0.004" fill="#fefffe" d="M 466.5,420.5 C 467.833,421.167 467.833,421.167 466.5,420.5 Z"/></g>
<g><path style="opacity:0.004" fill="#fefffe" d="M 473.5,420.5 C 473.833,420.5 474.167,420.5 474.5,420.5C 474.315,421.17 473.981,421.17 473.5,420.5 Z"/></g>
<g><path style="opacity:0.014" fill="#fefffe" d="M 476.5,422.5 C 476.103,423.525 475.437,423.692 474.5,423C 475.094,422.536 475.761,422.369 476.5,422.5 Z"/></g>
</svg>
