<?xml version="1.0" encoding="UTF-8"?>
<!DOCTYPE svg PUBLIC "-//W3C//DTD SVG 1.1//EN" "http://www.w3.org/Graphics/SVG/1.1/DTD/svg11.dtd">
<svg xmlns="http://www.w3.org/2000/svg" version="1.1" width="1024px" height="1024px" style="shape-rendering:geometricPrecision; text-rendering:geometricPrecision; image-rendering:optimizeQuality; fill-rule:evenodd; clip-rule:evenodd" xmlns:xlink="http://www.w3.org/1999/xlink">
<g><path style="opacity:0.941" fill="#fefffe" d="M 490.5,53.5 C 496.064,52.7118 500.897,54.0452 505,57.5C 507.141,61.5991 506.975,65.5991 504.5,69.5C 493.682,78.9126 481.348,85.746 467.5,90C 460.352,90.8473 453.352,92.3473 446.5,94.5C 444.726,94.1132 443.059,93.4465 441.5,92.5C 440.386,93.723 440.219,95.0563 441,96.5C 443.948,98.0429 444.782,100.21 443.5,103C 445.706,106.268 447.539,109.768 449,113.5C 453.855,112.007 457.855,113.34 461,117.5C 461.619,120.032 462.619,122.365 464,124.5C 466.571,121.668 469.737,120.835 473.5,122C 476.685,117.539 480.852,116.373 486,118.5C 493.13,116.13 500.297,115.964 507.5,118C 510.658,120.719 514.158,122.886 518,124.5C 523.996,123.039 529.496,124.205 534.5,128C 542.322,133.818 547.822,141.318 551,150.5C 555.326,153.826 559.326,157.493 563,161.5C 566.938,174.952 561.771,182.786 547.5,185C 545.792,187.043 543.792,188.71 541.5,190C 535.116,191.679 528.783,193.512 522.5,195.5C 522.906,201.193 521.406,206.526 518,211.5C 507.46,221.042 496.627,230.209 485.5,239C 480.466,241.789 475.132,243.789 469.5,245C 459.646,246.09 449.813,247.257 440,248.5C 436.833,248.333 433.667,248.167 430.5,248C 429.975,247.308 429.308,246.808 428.5,246.5C 422.057,249.261 415.39,251.094 408.5,252C 402.79,255.855 396.79,259.188 390.5,262C 385.973,266.892 381.807,272.059 378,277.5C 376.054,271.082 374.554,264.748 373.5,258.5C 378.304,248.222 383.137,237.889 388,227.5C 390.288,223.544 393.288,220.211 397,217.5C 397.27,214.776 397.77,212.109 398.5,209.5C 397.655,207.238 396.322,206.571 394.5,207.5C 393.67,201.119 394.17,194.786 396,188.5C 397.972,176.559 402.639,165.892 410,156.5C 417.754,147.908 426.254,140.242 435.5,133.5C 435.467,130.361 435.8,127.195 436.5,124C 434.071,123.549 433.904,122.715 436,121.5C 437.688,123.848 439.522,124.015 441.5,122C 437.43,117.197 435.097,111.697 434.5,105.5C 433.448,105.351 432.448,105.517 431.5,106C 427.58,110.084 424.247,114.584 421.5,119.5C 409.642,124.762 397.975,130.596 386.5,137C 381.843,137.366 377.51,137.032 373.5,136C 372.397,134.32 372.73,132.82 374.5,131.5C 371.522,129.652 371.188,127.652 373.5,125.5C 377.693,122.14 382.026,118.973 386.5,116C 388.487,114.681 389.654,112.848 390,110.5C 391.388,111.554 392.888,111.72 394.5,111C 396.984,108.016 399.65,105.182 402.5,102.5C 410.211,99.8209 417.878,96.9875 425.5,94C 427.355,92.1449 429.188,90.3116 431,88.5C 443.719,84.1014 454.553,76.9347 463.5,67C 473.66,65.2534 482.66,60.7534 490.5,53.5 Z"/></g>
<g><path style="opacity:0.024" fill="#fefffe" d="M 441.5,72.5 C 446.532,72.3323 446.699,73.3323 442,75.5C 441.517,74.552 441.351,73.552 441.5,72.5 Z"/></g>
<g><path style="opacity:0.004" fill="#fefffe" d="M 409.5,132.5 C 409.897,131.475 410.563,131.308 411.5,132C 410.906,132.464 410.239,132.631 409.5,132.5 Z"/></g>
<g><path style="opacity:0.006" fill="#fefffe" d="M 409.5,132.5 C 407.881,134.238 405.881,134.738 403.5,134C 405.436,133.187 407.436,132.687 409.5,132.5 Z"/></g>
</svg>
