<?xml version="1.0" encoding="UTF-8"?>
<!DOCTYPE svg PUBLIC "-//W3C//DTD SVG 1.1//EN" "http://www.w3.org/Graphics/SVG/1.1/DTD/svg11.dtd">
<svg xmlns="http://www.w3.org/2000/svg" version="1.1" width="1024px" height="1024px" style="shape-rendering:geometricPrecision; text-rendering:geometricPrecision; image-rendering:optimizeQuality; fill-rule:evenodd; clip-rule:evenodd" xmlns:xlink="http://www.w3.org/1999/xlink">
<g><path style="opacity:0.974" fill="#fefffe" d="M 489.5,112.5 C 506.491,115.548 523.491,118.715 540.5,122C 545.989,124.468 549.489,128.635 551,134.5C 551.926,140.154 552.259,145.82 552,151.5C 547.45,159.435 542.284,166.935 536.5,174C 532.297,175.064 528.63,177.064 525.5,180C 521.01,180.263 517.677,182.263 515.5,186C 517.558,191.387 519.391,196.887 521,202.5C 526.647,207.734 526.98,213.401 522,219.5C 518.978,225.091 514.478,228.924 508.5,231C 507.36,232.973 506.027,234.807 504.5,236.5C 487.643,245.093 470.977,253.927 454.5,263C 447.678,265.258 441.011,264.924 434.5,262C 432.457,260.292 430.79,258.292 429.5,256C 425.385,254.777 421.718,252.777 418.5,250C 414.927,245.772 411.427,241.606 408,237.5C 397.127,245.294 385.293,247.294 372.5,243.5C 368.201,244.542 363.868,244.709 359.5,244C 353.881,242.038 350.881,238.038 350.5,232C 351.292,226.495 352.126,220.995 353,215.5C 358.16,198.685 363.327,181.851 368.5,165C 368.99,163.018 369.99,161.351 371.5,160C 374.993,158.209 378.659,156.876 382.5,156C 384.556,151.968 387.89,149.968 392.5,150C 396.5,145.333 400.5,140.667 404.5,136C 412.788,130.047 420.788,123.714 428.5,117C 436.321,114.565 444.321,113.898 452.5,115C 458.814,117.578 465.314,119.412 472,120.5C 478.501,118.944 484.334,116.277 489.5,112.5 Z"/></g>
</svg>
