<?xml version="1.0" encoding="UTF-8"?>
<!DOCTYPE svg PUBLIC "-//W3C//DTD SVG 1.1//EN" "http://www.w3.org/Graphics/SVG/1.1/DTD/svg11.dtd">
<svg xmlns="http://www.w3.org/2000/svg" version="1.1" width="1024px" height="1024px" style="shape-rendering:geometricPrecision; text-rendering:geometricPrecision; image-rendering:optimizeQuality; fill-rule:evenodd; clip-rule:evenodd" xmlns:xlink="http://www.w3.org/1999/xlink">
<g><path style="opacity:0.978" fill="#fefffe" d="M 569.5,44.5 C 571.857,44.3367 574.19,44.5034 576.5,45C 586.765,54.7104 598.265,62.5437 611,68.5C 615.144,67.8355 619.311,67.3355 623.5,67C 630.432,63.0961 637.765,60.0961 645.5,58C 651.657,56.251 656.324,58.0843 659.5,63.5C 665.135,66.6525 670.801,69.8192 676.5,73C 678.074,74.8259 678.907,76.9925 679,79.5C 682.733,85.1656 687.733,86.8323 694,84.5C 695.809,87.7351 695.809,91.0685 694,94.5C 690.045,100.123 685.712,105.457 681,110.5C 674.763,129.735 664.096,146.068 649,159.5C 644.175,174.149 637.508,187.816 629,200.5C 624.115,215.157 618.448,229.49 612,243.5C 608.34,247.367 603.84,248.534 598.5,247C 596.259,245.261 594.592,243.094 593.5,240.5C 591.187,239.727 588.854,239.06 586.5,238.5C 580.008,241.243 574.008,244.743 568.5,249C 564.69,249.415 561.023,249.082 557.5,248C 556,249.5 554.5,251 553,252.5C 552.42,255.161 551.586,257.661 550.5,260C 546.159,263.172 541.492,265.839 536.5,268C 531.157,268.877 525.824,269.544 520.5,270C 517.894,274.401 516.394,279.234 516,284.5C 514.749,289.258 512.915,293.758 510.5,298C 506.606,299.999 502.44,300.832 498,300.5C 495.167,300.333 492.333,300.167 489.5,300C 488.667,299.167 487.833,298.333 487,297.5C 485.871,300.265 484.371,302.765 482.5,305C 483.617,312.463 483.784,319.963 483,327.5C 480.381,332.622 476.215,334.956 470.5,334.5C 469.262,339.389 468.429,344.389 468,349.5C 466.895,352.937 464.728,355.437 461.5,357C 447.602,358.546 435.935,354.213 426.5,344C 415.648,339.938 404.648,336.271 393.5,333C 391.253,331.626 389.087,330.126 387,328.5C 367.322,321.911 348.155,314.077 329.5,305C 325.92,302.172 323.92,298.506 323.5,294C 317.102,289.972 310.102,287.972 302.5,288C 300.622,286.457 299.122,284.624 298,282.5C 297.783,266.104 297.116,249.77 296,233.5C 302.493,231.781 308.66,229.281 314.5,226C 319.167,226.333 323.833,226.667 328.5,227C 330.657,225.019 332.324,222.686 333.5,220C 336.107,217.895 339.107,217.062 342.5,217.5C 342.539,212.816 342.872,208.149 343.5,203.5C 342.259,192.318 340.925,181.152 339.5,170C 339.585,168.893 339.919,167.893 340.5,167C 337.253,164.261 336.753,161.094 339,157.5C 346.356,155.813 353.856,154.646 361.5,154C 369.532,151.895 377.532,149.728 385.5,147.5C 386.554,147.68 387.554,148.013 388.5,148.5C 389.48,145.914 389.813,143.247 389.5,140.5C 391.857,140.337 394.19,140.503 396.5,141C 398.667,143.833 400.833,146.667 403,149.5C 403.221,144.78 403.721,140.113 404.5,135.5C 402.013,130.604 401.847,125.604 404,120.5C 406.62,117.424 409.12,114.258 411.5,111C 415.871,108.82 419.871,106.153 423.5,103C 433.057,101.006 442.39,101.839 451.5,105.5C 455.131,104.509 458.798,103.676 462.5,103C 466.758,95.1466 471.758,87.8133 477.5,81C 482.409,79.2718 487.409,77.7718 492.5,76.5C 499.083,77.947 505.75,78.6137 512.5,78.5C 514.682,70.237 520.015,67.4037 528.5,70C 530.691,71.9194 533.024,73.2527 535.5,74C 538.04,66.2979 542.04,59.4645 547.5,53.5C 551.899,51.8425 555.899,52.5092 559.5,55.5C 560.421,53.244 562.088,52.244 564.5,52.5C 565.166,49.1597 566.833,46.493 569.5,44.5 Z"/></g>
</svg>
