<?xml version="1.0" encoding="UTF-8"?>
<!DOCTYPE svg PUBLIC "-//W3C//DTD SVG 1.1//EN" "http://www.w3.org/Graphics/SVG/1.1/DTD/svg11.dtd">
<svg xmlns="http://www.w3.org/2000/svg" version="1.1" width="1024px" height="1024px" style="shape-rendering:geometricPrecision; text-rendering:geometricPrecision; image-rendering:optimizeQuality; fill-rule:evenodd; clip-rule:evenodd" xmlns:xlink="http://www.w3.org/1999/xlink">
<g><path style="opacity:0.945" fill="#fefffe" d="M 713.5,789.5 C 718.991,789.16 722.824,791.494 725,796.5C 726.012,802.35 725.512,808.016 723.5,813.5C 725.797,814.898 727.963,816.564 730,818.5C 731.738,821.693 732.571,824.859 732.5,828C 736.518,828.919 740.185,830.586 743.5,833C 749.826,833.923 756.159,834.757 762.5,835.5C 771.095,830.589 776.762,832.923 779.5,842.5C 778.244,845.012 778.244,847.512 779.5,850C 778.802,854.355 776.469,857.522 772.5,859.5C 769.727,868.107 764.06,873.941 755.5,877C 742.553,882.314 729.553,887.314 716.5,892C 707.719,892.09 699.052,893.09 690.5,895C 681.194,896.718 672.527,895.218 664.5,890.5C 656.968,891.83 649.968,890.33 643.5,886C 639.658,881.457 635.491,877.291 631,873.5C 625.677,861.245 624.01,848.578 626,835.5C 627.438,834.282 629.105,833.615 631,833.5C 636.438,833.301 641.938,833.634 647.5,834.5C 652.64,834.068 657.64,833.068 662.5,831.5C 664.485,825.898 666.318,820.231 668,814.5C 668.465,813.069 669.299,811.903 670.5,811C 681.75,807.768 692.75,803.768 703.5,799C 704.623,797.956 705.956,797.29 707.5,797C 708.984,794.023 710.984,791.523 713.5,789.5 Z"/></g>
<g><path style="opacity:0.944" fill="#fefffe" d="M 426.5,833.5 C 444.449,835.531 462.449,837.031 480.5,838C 486.781,838.927 492.781,840.761 498.5,843.5C 508.678,841.348 513.011,845.348 511.5,855.5C 511.998,857.664 513.164,859.331 515,860.5C 515.576,865.378 516.409,870.211 517.5,875C 517.507,876.812 516.84,878.312 515.5,879.5C 516.696,883.37 515.696,886.703 512.5,889.5C 504.158,893.333 496.492,898.167 489.5,904C 473.995,908.748 458.661,914.082 443.5,920C 435.889,921.478 428.222,921.812 420.5,921C 416.153,919.82 413.82,916.987 413.5,912.5C 409.253,912.822 405.253,911.989 401.5,910C 398.417,906.592 395.751,902.925 393.5,899C 387.166,895.835 381.166,892.169 375.5,888C 374.299,887.097 373.465,885.931 373,884.5C 372.73,881.776 372.23,879.109 371.5,876.5C 371.833,875.833 372.167,875.167 372.5,874.5C 380.82,873.503 388.82,871.336 396.5,868C 400.235,864.286 404.569,861.286 409.5,859C 412.496,854.346 415.829,850.013 419.5,846C 418.224,843.719 416.557,841.719 414.5,840C 417.187,835.341 421.187,833.174 426.5,833.5 Z"/></g>
</svg>
