<?xml version="1.0" encoding="UTF-8"?>
<!DOCTYPE svg PUBLIC "-//W3C//DTD SVG 1.1//EN" "http://www.w3.org/Graphics/SVG/1.1/DTD/svg11.dtd">
<svg xmlns="http://www.w3.org/2000/svg" version="1.1" width="1024px" height="1024px" style="shape-rendering:geometricPrecision; text-rendering:geometricPrecision; image-rendering:optimizeQuality; fill-rule:evenodd; clip-rule:evenodd" xmlns:xlink="http://www.w3.org/1999/xlink">
<g><path style="opacity:0.687" fill="#fefffe" d="M 630.5,305.5 C 633.528,305.339 636.361,306.006 639,307.5C 647.02,306.473 654.687,307.806 662,311.5C 664.147,313.49 666.647,314.823 669.5,315.5C 673.153,319.995 676.653,324.662 680,329.5C 680.054,335.057 680.221,340.557 680.5,346C 679.833,346.333 679.167,346.667 678.5,347C 679.8,355.536 677.967,363.703 673,371.5C 668.616,375.715 664.45,380.048 660.5,384.5C 649.976,389.167 639.143,389.834 628,386.5C 627,386.833 626,387.167 625,387.5C 623.073,386.139 620.906,385.306 618.5,385C 617.572,384.612 616.905,383.945 616.5,383C 617.615,381.607 618.115,380.107 618,378.5C 614.908,375.395 611.575,372.729 608,370.5C 607.64,368.579 606.806,366.912 605.5,365.5C 606.668,364.094 606.335,362.928 604.5,362C 605.767,356.437 603.433,354.27 597.5,355.5C 592.295,355.606 587.295,356.439 582.5,358C 583.447,360.188 583.447,362.522 582.5,365C 579.434,368.296 577.267,372.129 576,376.5C 571.574,380.092 568.074,384.425 565.5,389.5C 559.863,392.049 554.196,394.382 548.5,396.5C 544.974,397.046 541.474,396.379 538,394.5C 535.134,395.9 532.134,396.9 529,397.5C 526.178,396.725 523.344,396.058 520.5,395.5C 520.5,394.5 520.5,393.5 520.5,392.5C 517.484,392.159 514.818,390.993 512.5,389C 511.663,387.989 511.33,386.822 511.5,385.5C 509,384.877 506.5,384.543 504,384.5C 498.57,374.182 494.404,363.348 491.5,352C 492.628,349.545 494.128,347.378 496,345.5C 496.66,342.953 496.493,340.453 495.5,338C 496.611,334.945 498.111,332.112 500,329.5C 505.392,323.938 511.225,318.938 517.5,314.5C 520.827,312.278 524.494,311.112 528.5,311C 527.663,309.989 527.33,308.822 527.5,307.5C 538.116,306.665 548.782,308.165 559.5,312C 560.047,312.925 560.713,313.758 561.5,314.5C 568.487,315.987 574.154,319.487 578.5,325C 580.807,331.419 582.807,337.919 584.5,344.5C 583.529,345.962 583.862,347.295 585.5,348.5C 589.317,347.798 593.15,347.131 597,346.5C 598.652,346.86 600.318,347.193 602,347.5C 603.755,338.521 606.421,329.521 610,320.5C 612.971,317.94 615.804,315.273 618.5,312.5C 622.891,310.645 626.891,308.311 630.5,305.5 Z M 659.5,324.5 C 660.309,325.469 661.309,326.302 662.5,327C 661.226,327.977 661.226,328.811 662.5,329.5C 663.058,330.79 664.058,331.623 665.5,332C 664.713,333.313 665.046,334.48 666.5,335.5C 666.577,336.75 667.244,337.583 668.5,338C 665.258,338.283 664.924,339.117 667.5,340.5C 664.972,341.517 664.972,342.684 667.5,344C 665.043,345.154 665.043,346.488 667.5,348C 665.065,348.075 664.398,348.908 665.5,350.5C 663.862,351.705 663.529,353.038 664.5,354.5C 667.125,355.441 667.125,356.607 664.5,358C 664.848,360.055 664.181,362.055 662.5,364C 662.833,364.333 663.167,364.667 663.5,365C 662.5,365.333 661.5,365.667 660.5,366C 660.5,367 660.5,368 660.5,369C 656.991,371.03 653.658,373.196 650.5,375.5C 649.508,375.328 648.842,375.662 648.5,376.5C 648.167,376.5 647.833,376.5 647.5,376.5C 646.368,377.354 645.035,377.354 643.5,376.5C 642.221,375.285 641.221,375.618 640.5,377.5C 637.124,376.538 633.458,375.371 629.5,374C 628.167,373.333 628.167,372.667 629.5,372C 627.634,373.008 626.301,372.508 625.5,370.5C 626.833,370.167 626.833,369.833 625.5,369.5C 625.5,369.167 625.5,368.833 625.5,368.5C 626.833,368.167 626.833,367.833 625.5,367.5C 624.554,366.069 623.388,364.736 622,363.5C 620.334,364.34 620.167,363.84 621.5,362C 620.662,360.845 619.662,359.678 618.5,358.5C 619.833,358.167 619.833,357.833 618.5,357.5C 618.328,356.508 618.662,355.842 619.5,355.5C 619.047,354.542 618.381,353.708 617.5,353C 618.634,351.984 618.301,351.317 616.5,351C 618.619,350.658 618.953,349.825 617.5,348.5C 618.338,348.158 618.672,347.492 618.5,346.5C 619.833,346.167 619.833,345.833 618.5,345.5C 618.5,345.167 618.5,344.833 618.5,344.5C 617.167,343.167 617.167,341.833 618.5,340.5C 617.904,338.602 617.904,336.935 618.5,335.5C 618.072,333.595 618.738,331.762 620.5,330C 620.167,329.667 619.833,329.333 619.5,329C 621.087,328.138 622.754,327.471 624.5,327C 623.833,326.667 623.167,326.333 622.5,326C 623.984,325.338 625.317,324.504 626.5,323.5C 626.783,322.711 627.283,322.044 628,321.5C 628.977,322.774 629.811,322.774 630.5,321.5C 631.217,320.539 632.383,319.539 634,318.5C 637.759,318.986 641.259,318.986 644.5,318.5C 646.084,319.018 648.918,319.018 653,318.5C 655.096,319.715 654.929,320.549 652.5,321C 654.402,321.199 655.902,322.033 657,323.5C 658.461,322.117 659.294,322.451 659.5,324.5 Z M 545.5,318.5 C 545.833,319.833 546.167,319.833 546.5,318.5C 547.872,319.512 549.205,320.512 550.5,321.5C 549.167,321.833 549.167,322.167 550.5,322.5C 551.172,323.267 552.005,323.934 553,324.5C 554.84,323.167 555.34,323.334 554.5,325C 558.516,328.755 562.516,332.422 566.5,336C 565.346,336.914 565.513,337.747 567,338.5C 567.232,337.263 567.732,336.263 568.5,335.5C 568.472,337.582 569.139,339.416 570.5,341C 569.748,341.671 569.414,342.504 569.5,343.5C 570.234,344.878 570.901,346.378 571.5,348C 570.833,348.667 570.167,349.333 569.5,350C 570.598,350.77 570.598,351.603 569.5,352.5C 568.167,353.167 568.167,353.833 569.5,354.5C 569.5,355.167 569.5,355.833 569.5,356.5C 568.167,356.833 568.167,357.167 569.5,357.5C 570.602,359.092 569.935,359.925 567.5,360C 567.5,362 567.5,364 567.5,366C 566.675,368.1 565.008,370.1 562.5,372C 562.833,372.333 563.167,372.667 563.5,373C 561.347,374.628 559.013,375.961 556.5,377C 556.833,377.333 557.167,377.667 557.5,378C 556.24,379.113 555.073,379.28 554,378.5C 552.488,379.257 551.154,380.257 550,381.5C 549.667,381.167 549.333,380.833 549,380.5C 545.899,381.643 542.899,382.976 540,384.5C 535.425,384.264 530.925,382.931 526.5,380.5C 523.085,381.508 519.919,381.508 517,380.5C 514.52,379.193 513.02,377.193 512.5,374.5C 515.356,376.093 518.356,377.427 521.5,378.5C 522.776,377.386 522.776,376.386 521.5,375.5C 520.01,373.72 518.01,373.054 515.5,373.5C 515.5,372.5 515.5,371.5 515.5,370.5C 519.646,373.408 521.98,372.575 522.5,368C 519.242,367.566 517.242,365.4 516.5,361.5C 518.106,359.604 517.773,358.271 515.5,357.5C 514.517,359.291 513.184,360.791 511.5,362C 512.308,362.308 512.975,362.808 513.5,363.5C 513.24,364.905 512.907,366.238 512.5,367.5C 511.5,366.167 510.5,364.833 509.5,363.5C 510.833,362.833 510.833,362.167 509.5,361.5C 509.5,361.167 509.5,360.833 509.5,360.5C 510.757,359.377 510.424,358.711 508.5,358.5C 508.833,357.833 509.167,357.167 509.5,356.5C 508.711,356.217 508.044,355.717 507.5,355C 508.053,353.122 509.053,351.622 510.5,350.5C 510.07,348.38 510.07,346.38 510.5,344.5C 509.167,343.5 509.167,342.5 510.5,341.5C 510.328,340.508 510.662,339.842 511.5,339.5C 514.098,338.528 514.098,337.528 511.5,336.5C 514.613,333.784 516.613,330.784 517.5,327.5C 518.774,326.811 518.774,325.977 517.5,325C 518.469,323.242 519.636,322.742 521,323.5C 521.464,322.906 521.631,322.239 521.5,321.5C 522.5,320.833 523.5,320.167 524.5,319.5C 524.833,322.167 525.167,322.167 525.5,319.5C 531.824,319.638 538.49,319.305 545.5,318.5 Z M 550.5,322.5 C 550.5,322.167 550.5,321.833 550.5,321.5C 551.648,320.105 552.648,320.272 553.5,322C 552.552,322.483 551.552,322.649 550.5,322.5 Z M 568.5,335.5 C 567.287,332.775 565.454,330.441 563,328.5C 562.312,327.668 562.479,327.002 563.5,326.5C 565.453,327.761 567.453,328.927 569.5,330C 569.167,330.333 568.833,330.667 568.5,331C 570.036,332.599 570.536,334.433 570,336.5C 569.617,335.944 569.117,335.611 568.5,335.5 Z M 509.5,361.5 C 509.5,362.167 509.5,362.833 509.5,363.5C 507.067,363.214 507.067,362.548 509.5,361.5 Z M 512.5,368.5 C 514.027,368.427 515.027,369.094 515.5,370.5C 513.877,371.491 512.877,370.824 512.5,368.5 Z"/></g>
<g><path style="opacity:0.57" fill="#fefffe" d="M 623.5,352.5 C 625.429,352.231 627.095,352.731 628.5,354C 628.368,357.075 629.701,359.742 632.5,362C 630.057,365.006 627.557,364.839 625,361.5C 623.851,358.607 623.351,355.607 623.5,352.5 Z"/></g>
<g><path style="opacity:0.543" fill="#fefffe" d="M 515.5,357.5 C 517.773,358.271 518.106,359.604 516.5,361.5C 517.242,365.4 519.242,367.566 522.5,368C 521.98,372.575 519.646,373.408 515.5,370.5C 515.027,369.094 514.027,368.427 512.5,368.5C 512.5,368.167 512.5,367.833 512.5,367.5C 512.907,366.238 513.24,364.905 513.5,363.5C 512.975,362.808 512.308,362.308 511.5,362C 513.184,360.791 514.517,359.291 515.5,357.5 Z"/></g>
<g><path style="opacity:0.005" fill="#fefffe" d="M 508.5,359.5 C 508.5,359.167 508.5,358.833 508.5,358.5C 510.424,358.711 510.757,359.377 509.5,360.5C 509.5,359.833 509.167,359.5 508.5,359.5 Z"/></g>
<g><path style="opacity:0.505" fill="#fefffe" d="M 642.5,364.5 C 645.439,364.918 647.772,366.418 649.5,369C 644.848,375.015 640.514,374.848 636.5,368.5C 637.277,366.461 638.443,365.795 640,366.5C 640.995,365.934 641.828,365.267 642.5,364.5 Z"/></g>
<g><path style="opacity:0.557" fill="#fefffe" d="M 532.5,372.5 C 534.341,373.673 536.174,373.673 538,372.5C 542.868,373.442 544.034,375.775 541.5,379.5C 539.424,380.1 537.424,380.433 535.5,380.5C 533.587,379.627 531.753,378.627 530,377.5C 529.294,375.045 530.127,373.378 532.5,372.5 Z"/></g>
</svg>
