<?xml version="1.0" encoding="UTF-8"?>
<!DOCTYPE svg PUBLIC "-//W3C//DTD SVG 1.1//EN" "http://www.w3.org/Graphics/SVG/1.1/DTD/svg11.dtd">
<svg xmlns="http://www.w3.org/2000/svg" version="1.1" width="1024px" height="1024px" style="shape-rendering:geometricPrecision; text-rendering:geometricPrecision; image-rendering:optimizeQuality; fill-rule:evenodd; clip-rule:evenodd" xmlns:xlink="http://www.w3.org/1999/xlink">
<g><path style="opacity:0.982" fill="#fefffe" d="M 616.5,661.5 C 616.167,660.167 615.833,660.167 615.5,661.5C 613.961,663.982 612.461,663.982 611,661.5C 610.583,662.756 609.75,663.423 608.5,663.5C 607.399,662.402 606.066,662.235 604.5,663C 605.044,663.717 605.711,664.217 606.5,664.5C 606.672,665.492 606.338,666.158 605.5,666.5C 605.5,665.833 605.167,665.5 604.5,665.5C 604.092,664.357 603.425,663.357 602.5,662.5C 601.304,662.846 601.304,663.346 602.5,664C 600.603,665.11 598.77,665.276 597,664.5C 595.899,666.394 594.566,667.061 593,666.5C 591.698,667.085 590.531,667.751 589.5,668.5C 588.833,668.5 588.5,668.833 588.5,669.5C 587.175,668.047 586.342,668.381 586,670.5C 585.667,670.167 585.333,669.833 585,669.5C 573.37,674.121 561.537,673.288 549.5,667C 536.83,666.4 524.163,665.733 511.5,665C 505.523,664.339 499.856,662.672 494.5,660C 477.488,660.629 460.821,658.629 444.5,654C 428.946,646.359 421.779,633.859 423,616.5C 423.638,615.391 424.138,614.225 424.5,613C 423.487,605.296 421.654,597.796 419,590.5C 417.617,573.629 418.784,556.963 422.5,540.5C 401.578,542.999 384.411,536.332 371,520.5C 370.333,516.5 370.333,512.5 371,508.5C 382.449,486.086 396.949,465.919 414.5,448C 419.324,444.838 423.158,440.672 426,435.5C 437.64,424.258 451.14,415.925 466.5,410.5C 474.127,403.605 481.46,403.938 488.5,411.5C 494.001,409.158 498.001,410.658 500.5,416C 509.024,416.741 517.357,418.408 525.5,421C 542.238,424.496 558.905,424.162 575.5,420C 585.686,416.536 596.02,413.536 606.5,411C 611.014,407.909 615.347,404.575 619.5,401C 623.894,398.626 628.56,397.959 633.5,399C 643.316,403.823 652.316,409.823 660.5,417C 663.576,417.346 666.576,418.012 669.5,419C 676.543,425.773 682.876,433.107 688.5,441C 700.223,445.721 708.723,453.888 714,465.5C 714.794,468.471 715.461,471.471 716,474.5C 718.333,478.5 720.667,482.5 723,486.5C 728.387,490.891 733.387,495.558 738,500.5C 739.422,503.03 739.755,505.697 739,508.5C 733.955,512.512 728.788,516.345 723.5,520C 721.5,520.333 719.5,520.667 717.5,521C 706.866,526.989 695.533,530.989 683.5,533C 689.098,538.569 691.598,545.402 691,553.5C 695.81,561.84 697.476,570.84 696,580.5C 691.857,583.919 690.524,588.252 692,593.5C 699.094,602.345 700.428,612.011 696,622.5C 685.092,630.372 673.925,637.872 662.5,645C 658.118,645.457 653.784,645.457 649.5,645C 640.714,648.892 632.38,653.559 624.5,659C 621.721,659.561 619.054,660.394 616.5,661.5 Z"/></g>
<g><path style="opacity:0.004" fill="#fefffe" d="M 615.5,661.5 C 615.833,661.5 616.167,661.5 616.5,661.5C 616.315,662.17 615.981,662.17 615.5,661.5 Z"/></g>
<g><path style="opacity:0.022" fill="#fefffe" d="M 606.5,664.5 C 606.842,663.662 607.508,663.328 608.5,663.5C 608.591,665.698 607.925,666.031 606.5,664.5 Z"/></g>
<g><path style="opacity:0.008" fill="#fefffe" d="M 600.5,665.5 C 601.833,666.167 601.833,666.167 600.5,665.5 Z"/></g>
<g><path style="opacity:0.014" fill="#fefffe" d="M 604.5,665.5 C 604.5,665.833 604.5,666.167 604.5,666.5C 603.637,667.463 602.97,667.463 602.5,666.5C 602.957,665.702 603.624,665.369 604.5,665.5 Z"/></g>
<g><path style="opacity:0.012" fill="#fefffe" d="M 600.5,666.5 C 600.103,667.525 599.437,667.692 598.5,667C 599.094,666.536 599.761,666.369 600.5,666.5 Z"/></g>
<g><path style="opacity:0.004" fill="#fefffe" d="M 604.5,666.5 C 604.833,666.5 605.167,666.5 605.5,666.5C 605.315,667.17 604.981,667.17 604.5,666.5 Z"/></g>
<g><path style="opacity:0.004" fill="#fefffe" d="M 589.5,669.5 C 589.5,669.167 589.5,668.833 589.5,668.5C 592.167,668.833 592.167,669.167 589.5,669.5 Z"/></g>
<g><path style="opacity:0.004" fill="#fefffe" d="M 594.5,668.5 C 595.833,669.167 595.833,669.167 594.5,668.5 Z"/></g>
<g><path style="opacity:0.004" fill="#fefffe" d="M 588.5,669.5 C 588.833,669.5 589.167,669.5 589.5,669.5C 589.315,670.17 588.981,670.17 588.5,669.5 Z"/></g>
</svg>
