<?xml version="1.0" encoding="UTF-8"?>
<!DOCTYPE svg PUBLIC "-//W3C//DTD SVG 1.1//EN" "http://www.w3.org/Graphics/SVG/1.1/DTD/svg11.dtd">
<svg xmlns="http://www.w3.org/2000/svg" version="1.1" width="1024px" height="1024px" style="shape-rendering:geometricPrecision; text-rendering:geometricPrecision; image-rendering:optimizeQuality; fill-rule:evenodd; clip-rule:evenodd" xmlns:xlink="http://www.w3.org/1999/xlink">
<g><path style="opacity:0.93" fill="#fefffe" d="M 696.5,892.5 C 695.833,891.167 695.167,891.167 694.5,892.5C 693.175,891.047 692.342,891.381 692,893.5C 690.488,892.743 689.154,891.743 688,890.5C 687.333,891.167 686.667,891.833 686,892.5C 684.556,890.845 682.722,890.178 680.5,890.5C 680.167,889.167 679.833,889.167 679.5,890.5C 677.265,890.682 675.265,890.015 673.5,888.5C 672.833,888.833 672.167,889.167 671.5,889.5C 670.735,888.388 669.735,887.721 668.5,887.5C 667.729,885.227 666.396,884.894 664.5,886.5C 662.297,885.233 659.963,884.233 657.5,883.5C 657.167,882.167 656.833,882.167 656.5,883.5C 655.542,883.047 654.708,882.381 654,881.5C 652.984,882.634 652.317,882.301 652,880.5C 650.855,881.684 649.688,881.684 648.5,880.5C 646.917,878.137 645.084,878.137 643,880.5C 642.399,878.641 641.566,878.308 640.5,879.5C 639.167,879.833 637.833,880.167 636.5,880.5C 637.895,879.352 637.728,878.352 636,877.5C 634.989,878.337 633.822,878.67 632.5,878.5C 631.5,877.167 630.5,877.167 629.5,878.5C 628.448,878.649 627.448,878.483 626.5,878C 627.672,877.581 628.672,876.915 629.5,876C 627.939,875.682 626.772,874.849 626,873.5C 625.667,873.833 625.333,874.167 625,874.5C 624.316,873.216 624.483,872.049 625.5,871C 622.393,867.83 621.726,864.163 623.5,860C 622.101,858.938 621.101,857.605 620.5,856C 621.303,849.462 621.303,843.129 620.5,837C 618.977,834.566 617.977,831.899 617.5,829C 617.957,828.586 618.291,828.086 618.5,827.5C 617.289,826.126 616.289,824.626 615.5,823C 617.219,816.819 619.886,811.152 623.5,806C 628.112,805.487 632.112,806.82 635.5,810C 638.669,810.978 641.503,810.478 644,808.5C 648.823,809.175 653.823,809.508 659,809.5C 659.667,808.833 660.333,808.167 661,807.5C 665.333,808.167 669.667,808.833 674,809.5C 674.928,807.665 676.094,807.332 677.5,808.5C 679.811,807.786 681.978,806.786 684,805.5C 684.414,805.957 684.914,806.291 685.5,806.5C 690.988,804.501 696.821,802.501 703,800.5C 706.987,803.189 710.32,802.522 713,798.5C 714.268,798.616 715.602,798.949 717,799.5C 719.892,796.918 722.725,797.084 725.5,800C 727.657,801.981 729.324,804.314 730.5,807C 728.649,808.684 726.982,810.517 725.5,812.5C 728.529,815.141 729.195,818.308 727.5,822C 728,823.5 728.5,825 729,826.5C 733.08,823.96 737.413,821.96 742,820.5C 744.74,821.282 747.574,821.782 750.5,822C 757.4,824.06 764.067,826.726 770.5,830C 773.424,830.988 776.424,831.654 779.5,832C 781.145,833.8 782.478,835.8 783.5,838C 783.043,838.414 782.709,838.914 782.5,839.5C 785.452,841.012 786.119,843.012 784.5,845.5C 787.742,846.52 790.575,848.187 793,850.5C 793.667,851.833 793.667,853.167 793,854.5C 791.187,859.613 789.187,864.613 787,869.5C 783.455,872.897 780.621,876.897 778.5,881.5C 776.631,882.624 774.631,883.457 772.5,884C 771.74,885.441 771.074,886.941 770.5,888.5C 768.668,889.248 767.001,890.248 765.5,891.5C 760.585,891.958 755.918,891.958 751.5,891.5C 750.73,893.272 749.397,894.272 747.5,894.5C 745.235,894.06 743.068,893.394 741,892.5C 740.311,893.357 739.478,894.023 738.5,894.5C 736.2,894.438 733.867,894.105 731.5,893.5C 729.971,893.529 728.804,894.196 728,895.5C 724,894.833 720,894.167 716,893.5C 712.223,894.458 708.223,894.792 704,894.5C 703.612,893.572 702.945,892.905 702,892.5C 700.31,893.149 698.477,893.149 696.5,892.5 Z"/></g>
<g><path style="opacity:1" fill="#fefffe" d="M 489.5,816.5 C 491.068,818.931 492.568,818.931 494,816.5C 495.506,819.474 497.172,819.807 499,817.5C 501.039,819.874 503.372,821.874 506,823.5C 508.715,827.133 507.882,829.633 503.5,831C 505.721,834.973 508.721,838.14 512.5,840.5C 510.645,844.966 508.979,849.466 507.5,854C 509.45,855.244 510.45,857.077 510.5,859.5C 508.776,867.067 505.109,873.567 499.5,879C 500.747,880.458 500.747,881.958 499.5,883.5C 492.935,890.893 486.269,898.06 479.5,905C 477.324,905.163 475.491,905.996 474,907.5C 472.667,906.833 471.333,906.167 470,905.5C 467.551,907.732 464.884,909.732 462,911.5C 460.657,910.786 459.324,911.12 458,912.5C 457.586,912.043 457.086,911.709 456.5,911.5C 455.167,912.5 453.833,913.5 452.5,914.5C 451.549,913.674 450.549,913.508 449.5,914C 446.927,915.571 444.594,917.404 442.5,919.5C 440.958,918.253 439.458,918.253 438,919.5C 436.903,917.947 435.57,916.614 434,915.5C 432.735,917.397 431.069,918.73 429,919.5C 425.771,918.901 422.604,918.068 419.5,917C 418.333,916.5 417.5,915.667 417,914.5C 415.207,916.806 413.04,917.139 410.5,915.5C 409.618,916.76 408.618,917.926 407.5,919C 406.551,919.617 405.718,919.451 405,918.5C 403.874,919.944 402.374,920.61 400.5,920.5C 396.917,919.751 393.583,918.418 390.5,916.5C 389.319,914.865 389.319,913.198 390.5,911.5C 387.652,909.576 384.652,907.909 381.5,906.5C 379.14,904.14 376.806,901.806 374.5,899.5C 373.833,896.5 373.167,893.5 372.5,890.5C 373.77,888.452 374.103,886.452 373.5,884.5C 375.151,882.356 376.485,880.022 377.5,877.5C 376.572,876.232 376.405,874.899 377,873.5C 383.088,865.754 388.754,857.754 394,849.5C 398.535,851.216 402.368,850.216 405.5,846.5C 410.303,846.473 415.136,846.473 420,846.5C 422.113,844.729 421.947,843.229 419.5,842C 420.398,838.879 420.565,835.712 420,832.5C 425.699,830.634 431.199,828.3 436.5,825.5C 437.748,826.04 438.915,826.707 440,827.5C 443.248,824.286 446.748,823.619 450.5,825.5C 452.392,822.956 454.225,822.956 456,825.5C 457.333,822.833 458.667,822.833 460,825.5C 461.402,823.027 462.902,823.027 464.5,825.5C 466.11,824.448 467.777,824.448 469.5,825.5C 473.699,825.246 477.199,823.58 480,820.5C 480.873,820.735 481.707,821.069 482.5,821.5C 485.289,820.367 487.622,818.7 489.5,816.5 Z"/></g>
<g><path style="opacity:0.017" fill="#fefffe" d="M 629.5,878.5 C 630.5,878.5 631.5,878.5 632.5,878.5C 633.5,879.167 634.5,879.833 635.5,880.5C 633.657,879.957 631.99,880.624 630.5,882.5C 629.14,881.82 627.807,881.153 626.5,880.5C 627.5,879.833 628.5,879.167 629.5,878.5 Z"/></g>
<g><path style="opacity:0.039" fill="#fefffe" d="M 640.5,879.5 C 641.833,880.167 641.833,880.167 640.5,879.5 Z"/></g>
<g><path style="opacity:0.004" fill="#fefffe" d="M 626.5,880.5 C 626.5,881.167 626.5,881.833 626.5,882.5C 625.167,881.833 625.167,881.167 626.5,880.5 Z"/></g>
<g><path style="opacity:0.006" fill="#fefffe" d="M 635.5,880.5 C 635.833,880.5 636.167,880.5 636.5,880.5C 636.167,883.167 635.833,883.167 635.5,880.5 Z"/></g>
<g><path style="opacity:0.004" fill="#fefffe" d="M 648.5,880.5 C 647.833,881.167 647.833,881.167 648.5,880.5 Z"/></g>
<g><path style="opacity:0.004" fill="#fefffe" d="M 642.5,881.5 C 643.833,882.167 643.833,882.167 642.5,881.5 Z"/></g>
<g><path style="opacity:0.004" fill="#fefffe" d="M 644.5,881.5 C 645.833,882.167 645.833,882.167 644.5,881.5 Z"/></g>
<g><path style="opacity:0.006" fill="#fefffe" d="M 626.5,882.5 C 627.525,882.897 627.692,883.563 627,884.5C 626.536,883.906 626.369,883.239 626.5,882.5 Z"/></g>
<g><path style="opacity:0.004" fill="#fefffe" d="M 639.5,882.5 C 640.833,883.167 640.833,883.167 639.5,882.5 Z"/></g>
<g><path style="opacity:0.006" fill="#fefffe" d="M 628.5,884.5 C 629.601,883.402 630.934,883.235 632.5,884C 631.207,884.49 629.873,884.657 628.5,884.5 Z"/></g>
<g><path style="opacity:0.004" fill="#fefffe" d="M 656.5,883.5 C 656.833,883.5 657.167,883.5 657.5,883.5C 657.315,884.17 656.981,884.17 656.5,883.5 Z"/></g>
<g><path style="opacity:0.004" fill="#fefffe" d="M 626.5,885.5 C 627.833,886.167 627.833,886.167 626.5,885.5 Z"/></g>
<g><path style="opacity:0.004" fill="#fefffe" d="M 630.5,886.5 C 631.833,887.167 631.833,887.167 630.5,886.5 Z"/></g>
<g><path style="opacity:0.004" fill="#fefffe" d="M 630.5,887.5 C 629.833,888.167 629.833,888.167 630.5,887.5 Z"/></g>
<g><path style="opacity:0.004" fill="#fefffe" d="M 668.5,887.5 C 668.103,888.525 667.437,888.692 666.5,888C 667.094,887.536 667.761,887.369 668.5,887.5 Z"/></g>
<g><path style="opacity:0.012" fill="#fefffe" d="M 679.5,890.5 C 679.833,890.5 680.167,890.5 680.5,890.5C 680.315,891.17 679.981,891.17 679.5,890.5 Z"/></g>
<g><path style="opacity:0.016" fill="#fefffe" d="M 694.5,892.5 C 695.167,892.5 695.833,892.5 696.5,892.5C 695.833,893.833 695.167,893.833 694.5,892.5 Z"/></g>
<g><path style="opacity:0.004" fill="#fefffe" d="M 632.5,894.5 C 633.833,895.167 633.833,895.167 632.5,894.5 Z"/></g>
<g><path style="opacity:0.006" fill="#fefffe" d="M 634.5,896.5 C 634.369,895.761 634.536,895.094 635,894.5C 635.692,895.437 635.525,896.103 634.5,896.5 Z"/></g>
<g><path style="opacity:0.234" fill="#fefffe" d="M 634.5,896.5 C 637.051,897.484 639.718,898.484 642.5,899.5C 644.133,898.256 645.133,898.756 645.5,901C 645.37,902.059 644.87,902.892 644,903.5C 640.456,902.37 636.622,901.036 632.5,899.5C 631.614,898.675 631.281,897.675 631.5,896.5C 632.5,896.5 633.5,896.5 634.5,896.5 Z"/></g>
</svg>
