<?xml version="1.0" encoding="UTF-8"?>
<!DOCTYPE svg PUBLIC "-//W3C//DTD SVG 1.1//EN" "http://www.w3.org/Graphics/SVG/1.1/DTD/svg11.dtd">
<svg xmlns="http://www.w3.org/2000/svg" version="1.1" width="1024px" height="1024px" style="shape-rendering:geometricPrecision; text-rendering:geometricPrecision; image-rendering:optimizeQuality; fill-rule:evenodd; clip-rule:evenodd" xmlns:xlink="http://www.w3.org/1999/xlink">
<g><path style="opacity:0.139" fill="#ec0000" d="M 536.5,777.5 C 537.675,777.281 538.675,777.614 539.5,778.5C 537.948,779.798 536.948,779.465 536.5,777.5 Z"/></g>
<g><path style="opacity:0.932" fill="#fefffe" d="M 696.5,892.5 C 695.833,891.167 695.167,891.167 694.5,892.5C 693.175,891.047 692.342,891.381 692,893.5C 690.488,892.743 689.154,891.743 688,890.5C 687.333,891.167 686.667,891.833 686,892.5C 684.556,890.845 682.722,890.178 680.5,890.5C 680.167,889.167 679.833,889.167 679.5,890.5C 677.265,890.682 675.265,890.015 673.5,888.5C 672.833,888.833 672.167,889.167 671.5,889.5C 670.735,888.388 669.735,887.721 668.5,887.5C 667.729,885.227 666.396,884.894 664.5,886.5C 662.297,885.233 659.963,884.233 657.5,883.5C 657.167,882.167 656.833,882.167 656.5,883.5C 655.542,883.047 654.708,882.381 654,881.5C 652.984,882.634 652.317,882.301 652,880.5C 650.855,881.684 649.688,881.684 648.5,880.5C 646.917,878.137 645.084,878.137 643,880.5C 642.399,878.641 641.566,878.308 640.5,879.5C 639.167,879.833 637.833,880.167 636.5,880.5C 637.895,879.352 637.728,878.352 636,877.5C 634.989,878.337 633.822,878.67 632.5,878.5C 631.5,877.167 630.5,877.167 629.5,878.5C 628.448,878.649 627.448,878.483 626.5,878C 627.672,877.581 628.672,876.915 629.5,876C 627.939,875.682 626.772,874.849 626,873.5C 625.667,873.833 625.333,874.167 625,874.5C 624.316,873.216 624.483,872.049 625.5,871C 622.393,867.83 621.726,864.163 623.5,860C 622.101,858.938 621.101,857.605 620.5,856C 620.88,852.311 621.213,848.644 621.5,845C 621.241,843.739 620.574,842.739 619.5,842C 619.441,837.692 619.775,833.026 620.5,828C 620.314,823.921 619.647,819.921 618.5,816C 619.731,812.439 621.398,809.106 623.5,806C 628.112,805.487 632.112,806.82 635.5,810C 638.669,810.978 641.503,810.478 644,808.5C 648.823,809.175 653.823,809.508 659,809.5C 659.667,808.833 660.333,808.167 661,807.5C 665.333,808.167 669.667,808.833 674,809.5C 674.928,807.665 676.094,807.332 677.5,808.5C 682.064,805.867 686.898,805.2 692,806.5C 697.889,803.988 704.055,802.488 710.5,802C 712.305,801.028 713.972,799.861 715.5,798.5C 716.086,798.709 716.586,799.043 717,799.5C 717.804,798.196 718.971,797.529 720.5,797.5C 725.571,798.908 728.571,802.241 729.5,807.5C 728.167,809.167 726.833,810.833 725.5,812.5C 728.529,815.141 729.195,818.308 727.5,822C 728,823.5 728.5,825 729,826.5C 731.11,824.875 733.443,823.542 736,822.5C 741.116,823.764 746.283,823.764 751.5,822.5C 760.954,825.398 770.287,828.565 779.5,832C 781.324,834.897 783.491,837.397 786,839.5C 786.305,841.557 786.305,843.557 786,845.5C 788.573,846.806 790.906,848.473 793,850.5C 793.667,851.833 793.667,853.167 793,854.5C 791.187,859.613 789.187,864.613 787,869.5C 783.455,872.897 780.621,876.897 778.5,881.5C 776.631,882.624 774.631,883.457 772.5,884C 771.74,885.441 771.074,886.941 770.5,888.5C 768.668,889.248 767.001,890.248 765.5,891.5C 760.585,891.958 755.918,891.958 751.5,891.5C 750.73,893.272 749.397,894.272 747.5,894.5C 745.235,894.06 743.068,893.394 741,892.5C 740.311,893.357 739.478,894.023 738.5,894.5C 736.2,894.438 733.867,894.105 731.5,893.5C 729.971,893.529 728.804,894.196 728,895.5C 724,894.833 720,894.167 716,893.5C 712.223,894.458 708.223,894.792 704,894.5C 703.612,893.572 702.945,892.905 702,892.5C 700.31,893.149 698.477,893.149 696.5,892.5 Z"/></g>
<g><path style="opacity:0.977" fill="#fefffe" d="M 489.5,816.5 C 491.068,818.931 492.568,818.931 494,816.5C 495.506,819.474 497.172,819.807 499,817.5C 501.039,819.874 503.372,821.874 506,823.5C 507.488,826.194 507.321,828.528 505.5,830.5C 506.154,832.115 506.654,833.782 507,835.5C 509.046,836.911 510.879,838.577 512.5,840.5C 510.325,843.845 509.992,847.345 511.5,851C 511.608,862.114 507.608,871.448 499.5,879C 500.517,880.049 500.684,881.216 500,882.5C 496.245,887.377 492.245,892.044 488,896.5C 487,895.5 486,894.5 485,893.5C 483.933,894.191 482.766,894.691 481.5,895C 479.707,897.795 477.54,900.295 475,902.5C 474.51,903.793 474.343,905.127 474.5,906.5C 472.856,906.714 471.356,906.38 470,905.5C 468.307,907.604 466.14,909.104 463.5,910C 455.846,911.564 448.179,913.064 440.5,914.5C 427.436,912.305 414.603,911.972 402,913.5C 390.956,912.395 381.789,907.728 374.5,899.5C 373.833,896.5 373.167,893.5 372.5,890.5C 373.497,882.875 374.33,875.209 375,867.5C 375.667,866.167 376.333,864.833 377,863.5C 382.706,858.823 388.373,854.156 394,849.5C 397.746,850.526 401.246,849.859 404.5,847.5C 410.789,849.387 417.122,850.053 423.5,849.5C 423.358,846.383 422.024,843.883 419.5,842C 420.148,838.642 420.481,835.309 420.5,832C 426.149,830.562 431.482,828.396 436.5,825.5C 445.195,829.439 454.028,829.105 463,824.5C 469.209,826.368 474.875,825.034 480,820.5C 480.873,820.735 481.707,821.069 482.5,821.5C 485.289,820.367 487.622,818.7 489.5,816.5 Z"/></g>
<g><path style="opacity:0.017" fill="#fefffe" d="M 629.5,878.5 C 630.5,878.5 631.5,878.5 632.5,878.5C 633.5,879.167 634.5,879.833 635.5,880.5C 633.657,879.957 631.99,880.624 630.5,882.5C 629.14,881.82 627.807,881.153 626.5,880.5C 627.5,879.833 628.5,879.167 629.5,878.5 Z"/></g>
<g><path style="opacity:0.039" fill="#fefffe" d="M 640.5,879.5 C 641.833,880.167 641.833,880.167 640.5,879.5 Z"/></g>
<g><path style="opacity:0.004" fill="#fefffe" d="M 626.5,880.5 C 626.5,881.167 626.5,881.833 626.5,882.5C 625.167,881.833 625.167,881.167 626.5,880.5 Z"/></g>
<g><path style="opacity:0.006" fill="#fefffe" d="M 635.5,880.5 C 635.833,880.5 636.167,880.5 636.5,880.5C 636.167,883.167 635.833,883.167 635.5,880.5 Z"/></g>
<g><path style="opacity:0.004" fill="#fefffe" d="M 648.5,880.5 C 647.833,881.167 647.833,881.167 648.5,880.5 Z"/></g>
<g><path style="opacity:0.004" fill="#fefffe" d="M 642.5,881.5 C 643.833,882.167 643.833,882.167 642.5,881.5 Z"/></g>
<g><path style="opacity:0.004" fill="#fefffe" d="M 644.5,881.5 C 645.833,882.167 645.833,882.167 644.5,881.5 Z"/></g>
<g><path style="opacity:0.006" fill="#fefffe" d="M 626.5,882.5 C 627.525,882.897 627.692,883.563 627,884.5C 626.536,883.906 626.369,883.239 626.5,882.5 Z"/></g>
<g><path style="opacity:0.004" fill="#fefffe" d="M 639.5,882.5 C 640.833,883.167 640.833,883.167 639.5,882.5 Z"/></g>
<g><path style="opacity:0.006" fill="#fefffe" d="M 628.5,884.5 C 629.601,883.402 630.934,883.235 632.5,884C 631.207,884.49 629.873,884.657 628.5,884.5 Z"/></g>
<g><path style="opacity:0.004" fill="#fefffe" d="M 656.5,883.5 C 656.833,883.5 657.167,883.5 657.5,883.5C 657.315,884.17 656.981,884.17 656.5,883.5 Z"/></g>
<g><path style="opacity:0.004" fill="#fefffe" d="M 626.5,885.5 C 627.833,886.167 627.833,886.167 626.5,885.5 Z"/></g>
<g><path style="opacity:0.004" fill="#fefffe" d="M 630.5,886.5 C 631.833,887.167 631.833,887.167 630.5,886.5 Z"/></g>
<g><path style="opacity:0.004" fill="#fefffe" d="M 630.5,887.5 C 629.833,888.167 629.833,888.167 630.5,887.5 Z"/></g>
<g><path style="opacity:0.004" fill="#fefffe" d="M 668.5,887.5 C 668.103,888.525 667.437,888.692 666.5,888C 667.094,887.536 667.761,887.369 668.5,887.5 Z"/></g>
<g><path style="opacity:0.012" fill="#fefffe" d="M 679.5,890.5 C 679.833,890.5 680.167,890.5 680.5,890.5C 680.315,891.17 679.981,891.17 679.5,890.5 Z"/></g>
<g><path style="opacity:0.016" fill="#fefffe" d="M 694.5,892.5 C 695.167,892.5 695.833,892.5 696.5,892.5C 695.833,893.833 695.167,893.833 694.5,892.5 Z"/></g>
<g><path style="opacity:0.004" fill="#fefffe" d="M 632.5,894.5 C 633.833,895.167 633.833,895.167 632.5,894.5 Z"/></g>
<g><path style="opacity:0.006" fill="#fefffe" d="M 634.5,896.5 C 634.369,895.761 634.536,895.094 635,894.5C 635.692,895.437 635.525,896.103 634.5,896.5 Z"/></g>
<g><path style="opacity:0.234" fill="#fefffe" d="M 634.5,896.5 C 637.051,897.484 639.718,898.484 642.5,899.5C 644.133,898.256 645.133,898.756 645.5,901C 645.37,902.059 644.87,902.892 644,903.5C 640.456,902.37 636.622,901.036 632.5,899.5C 631.614,898.675 631.281,897.675 631.5,896.5C 632.5,896.5 633.5,896.5 634.5,896.5 Z"/></g>
<g><path style="opacity:0.096" fill="#fefffe" d="M 422.5,918.5 C 424.517,917.126 426.517,917.293 428.5,919C 426.575,918.865 424.575,918.698 422.5,918.5 Z"/></g>
<g><path style="opacity:0.014" fill="#fefffe" d="M 397.5,920.5 C 398.251,919.427 399.251,919.26 400.5,920C 399.552,920.483 398.552,920.649 397.5,920.5 Z"/></g>
</svg>
