<?xml version="1.0" encoding="UTF-8"?>
<!DOCTYPE svg PUBLIC "-//W3C//DTD SVG 1.1//EN" "http://www.w3.org/Graphics/SVG/1.1/DTD/svg11.dtd">
<svg xmlns="http://www.w3.org/2000/svg" version="1.1" width="1024px" height="1024px" style="shape-rendering:geometricPrecision; text-rendering:geometricPrecision; image-rendering:optimizeQuality; fill-rule:evenodd; clip-rule:evenodd" xmlns:xlink="http://www.w3.org/1999/xlink">
<g><path style="opacity:0.974" fill="#fefffe" d="M 506.5,64.5 C 509.271,62.233 511.938,59.733 514.5,57C 517.424,56.0124 520.424,55.3457 523.5,55C 527.812,52.0297 532.146,49.0297 536.5,46C 535.185,44.6054 535.519,43.6054 537.5,43C 535.291,42.043 535.457,40.8764 538,39.5C 538.333,39.8333 538.667,40.1667 539,40.5C 541.266,39.0437 543.766,38.2104 546.5,38C 547.226,36.6026 548.393,35.7692 550,35.5C 559.408,37.4132 568.741,38.4132 578,38.5C 580.35,37.4958 582.684,36.4958 585,35.5C 588.695,35.9137 592.195,37.4137 595.5,40C 599.147,40.7745 602.814,41.4412 606.5,42C 612.5,45.3333 618.5,48.6667 624.5,52C 626.181,54.5221 627.181,57.3555 627.5,60.5C 630.153,62.4576 631.82,65.1243 632.5,68.5C 635.788,69.9596 638.955,71.6263 642,73.5C 641.945,81.497 641.445,89.497 640.5,97.5C 641.037,100.035 642.037,102.369 643.5,104.5C 641.423,110.315 643.423,113.648 649.5,114.5C 649.108,109.394 651.442,106.56 656.5,106C 658.643,99.2 663.143,96.3667 670,97.5C 674.404,97.8383 677.237,96.005 678.5,92C 681.222,90.4303 683.722,89.2636 686,88.5C 687.292,89.7911 688.458,89.7911 689.5,88.5C 690.222,88.0825 690.722,87.4158 691,86.5C 691.333,86.8333 691.667,87.1667 692,87.5C 691.923,86.2624 692.089,85.2624 692.5,84.5C 693.192,85.0253 693.692,85.6919 694,86.5C 695.931,85.5083 698.097,85.175 700.5,85.5C 708.233,87.1876 715.566,89.8542 722.5,93.5C 723.086,93.2907 723.586,92.9574 724,92.5C 733.127,98.603 741.293,105.77 748.5,114C 748.167,114.333 747.833,114.667 747.5,115C 750.381,116.358 753.214,117.858 756,119.5C 756.333,123.167 756.667,126.833 757,130.5C 759.796,133.267 761.963,136.433 763.5,140C 762.128,141.242 761.128,142.742 760.5,144.5C 760.5,146.5 760.5,148.5 760.5,150.5C 757.806,154.554 755.639,158.888 754,163.5C 752.921,165.394 751.587,165.727 750,164.5C 746.493,169.196 744.326,174.529 743.5,180.5C 743.833,181.167 744.167,181.833 744.5,182.5C 750,181.291 755,182.457 759.5,186C 762.099,186.769 764.599,186.602 767,185.5C 768.895,187.724 771.729,189.391 775.5,190.5C 776.584,191.665 777.417,192.998 778,194.5C 778.226,197.095 778.726,199.595 779.5,202C 777.445,202.687 775.779,203.854 774.5,205.5C 777.315,207.569 779.648,210.069 781.5,213C 780.488,218.024 780.488,223.024 781.5,228C 780.015,230.156 778.515,232.323 777,234.5C 776.594,239.966 775.594,245.299 774,250.5C 773.558,252.679 772.558,253.345 771,252.5C 768.579,256.34 766.412,260.34 764.5,264.5C 763.726,265.711 762.893,265.711 762,264.5C 761.517,265.448 761.351,266.448 761.5,267.5C 759.801,267.34 758.134,267.506 756.5,268C 751.435,270.726 747.269,274.559 744,279.5C 742.417,279.507 740.751,279.174 739,278.5C 738.385,280.116 737.385,281.449 736,282.5C 732.089,280.902 728.256,279.902 724.5,279.5C 723.108,280.605 721.941,281.939 721,283.5C 720.586,283.043 720.086,282.709 719.5,282.5C 717.546,285.474 714.88,287.474 711.5,288.5C 704.767,286.595 698.433,283.928 692.5,280.5C 690.675,281.571 689.508,280.904 689,278.5C 687.951,279.517 686.784,279.684 685.5,279C 684.167,278.333 684.167,277.667 685.5,277C 676.788,275.23 669.288,271.397 663,265.5C 661,266.167 659.667,267.5 659,269.5C 657.757,268.664 656.59,268.997 655.5,270.5C 657.936,272.553 657.602,274.386 654.5,276C 644.227,282.27 634.227,288.104 624.5,293.5C 622.627,294.089 620.96,293.422 619.5,291.5C 618.312,292.84 616.812,293.507 615,293.5C 609.35,291.52 604.85,288.02 601.5,283C 596.241,282.763 591.241,281.763 586.5,280C 580.331,276.416 574.331,272.583 568.5,268.5C 564.058,263.565 560.224,258.232 557,252.5C 556.51,251.207 556.343,249.873 556.5,248.5C 550.274,249.043 543.941,250.21 537.5,252C 537,252.5 536.5,253 536,253.5C 533.408,252.018 531.075,252.352 529,254.5C 528,253.833 527,253.167 526,252.5C 523.242,252.489 520.409,252.823 517.5,253.5C 520.785,256.857 521.785,260.69 520.5,265C 521.96,268.17 522.96,271.503 523.5,275C 521.807,280.039 520.64,285.206 520,290.5C 519.085,291.328 518.419,292.328 518,293.5C 510.975,297.734 503.641,301.401 496,304.5C 495.333,303.833 494.667,303.167 494,302.5C 490.049,303.231 486.049,303.898 482,304.5C 480.779,303.728 479.779,302.728 479,301.5C 477.902,313.848 473.402,324.681 465.5,334C 470.266,335.584 474.6,337.917 478.5,341C 487.891,343.729 497.224,346.562 506.5,349.5C 507.474,351.743 507.808,354.076 507.5,356.5C 512.263,356.963 515.097,359.63 516,364.5C 521.471,369.781 524.305,376.114 524.5,383.5C 528.939,388.966 531.273,395.299 531.5,402.5C 532.5,403.5 533.5,404.5 534.5,405.5C 534.413,410.194 534.413,414.861 534.5,419.5C 532.004,424.338 532.004,429.171 534.5,434C 531.844,436.794 531.177,439.96 532.5,443.5C 531.511,446.818 530.511,450.152 529.5,453.5C 530.322,457.365 529.322,460.865 526.5,464C 527.018,466.893 527.351,469.726 527.5,472.5C 524.502,477.27 521.169,482.27 517.5,487.5C 508.61,494.992 499.277,501.158 489.5,506C 486.351,507.099 483.184,507.599 480,507.5C 478.342,507.325 477.009,506.658 476,505.5C 474.518,507.781 472.851,507.781 471,505.5C 469.758,506.872 468.258,507.872 466.5,508.5C 463.807,507.855 461.307,507.855 459,508.5C 458,507.5 457,506.5 456,505.5C 452.855,508.47 450.355,507.97 448.5,504C 444.283,502.241 440.116,500.407 436,498.5C 432.025,499.287 428.192,499.287 424.5,498.5C 420.828,496.89 417.162,495.39 413.5,494C 407.522,490.703 401.522,487.37 395.5,484C 392.617,481.398 390.95,478.232 390.5,474.5C 387.314,474.105 384.314,473.105 381.5,471.5C 380.943,469.354 380.61,467.354 380.5,465.5C 381.538,463.892 380.871,462.892 378.5,462.5C 377.893,462.624 377.56,462.957 377.5,463.5C 378.5,463.833 379.167,464.5 379.5,465.5C 377.549,465.773 376.049,465.107 375,463.5C 374.583,464.756 373.75,465.423 372.5,465.5C 371.06,463.249 369.227,462.916 367,464.5C 359.857,463.756 352.691,463.256 345.5,463C 343.311,462.323 342.978,461.156 344.5,459.5C 341.489,456.988 338.656,454.322 336,451.5C 335.316,450.216 335.483,449.049 336.5,448C 335.097,445.991 333.763,443.991 332.5,442C 332.585,440.893 332.919,439.893 333.5,439C 331.59,438.592 330.59,437.425 330.5,435.5C 332.944,425.076 335.778,414.409 339,403.5C 341.207,400.922 343.04,398.089 344.5,395C 342.414,394.443 341.081,395.276 340.5,397.5C 332.54,399.213 324.707,401.213 317,403.5C 313.076,402.368 308.909,402.368 304.5,403.5C 300.926,403.309 297.593,402.309 294.5,400.5C 292.487,401.596 290.654,401.263 289,399.5C 285.734,399.367 282.401,399.367 279,399.5C 277.71,397.646 276.21,397.313 274.5,398.5C 273.636,396.803 272.303,395.637 270.5,395C 268.1,394.814 265.766,394.314 263.5,393.5C 261.078,389.495 259.411,385.162 258.5,380.5C 258.977,379.522 259.643,378.689 260.5,378C 257.553,375.836 254.219,375.002 250.5,375.5C 250.649,374.448 250.483,373.448 250,372.5C 248.391,373.15 246.891,372.65 245.5,371C 245.833,370.667 246.167,370.333 246.5,370C 245.55,367.133 243.883,364.8 241.5,363C 241.833,362.667 242.167,362.333 242.5,362C 241.044,359.734 240.21,357.234 240,354.5C 239.535,353.069 238.701,351.903 237.5,351C 237.957,350.586 238.291,350.086 238.5,349.5C 238.006,345.034 237.006,340.7 235.5,336.5C 235.345,328.549 236.012,320.549 237.5,312.5C 238.873,312.657 240.207,312.49 241.5,312C 241.511,309.317 241.511,306.65 241.5,304C 242.09,299.821 243.757,296.155 246.5,293C 245.549,292.282 245.383,291.449 246,290.5C 250.865,286.099 254.198,280.765 256,274.5C 259.742,271.926 262.575,268.593 264.5,264.5C 271.71,262.796 277.043,258.629 280.5,252C 281.784,251.316 282.951,251.483 284,252.5C 290.039,245.994 297.205,244.66 305.5,248.5C 306.5,248.167 307.167,247.5 307.5,246.5C 298.72,239.27 289.72,232.27 280.5,225.5C 279.833,224.167 279.167,222.833 278.5,221.5C 279.428,220.232 279.595,218.899 279,217.5C 277.485,215.323 275.985,213.156 274.5,211C 276.029,209.418 276.529,207.585 276,205.5C 270.391,200.51 267.891,195.176 268.5,189.5C 270.507,187.193 270.507,184.693 268.5,182C 268.762,179.453 269.262,176.953 270,174.5C 275.464,165.742 280.297,156.576 284.5,147C 283.549,146.282 283.383,145.449 284,144.5C 287.257,141.343 290.924,140.009 295,140.5C 297.212,137.196 299.045,133.696 300.5,130C 313.168,124.61 326.168,120.11 339.5,116.5C 346.675,119.06 353.841,121.394 361,123.5C 361.333,123.167 361.667,122.833 362,122.5C 364.313,124.037 366.813,124.537 369.5,124C 368.833,123.667 368.167,123.333 367.5,123C 368.641,122.259 368.641,121.425 367.5,120.5C 370.995,118.245 371.162,115.912 368,113.5C 366.927,114.28 365.76,114.113 364.5,113C 365.833,112.333 366.833,111.333 367.5,110C 366.289,109.213 365.289,108.546 364.5,108C 364.643,105.523 364.643,103.023 364.5,100.5C 365.833,98.1667 367.167,95.8333 368.5,93.5C 366.941,91.0365 364.941,89.0365 362.5,87.5C 362.937,85.9256 363.937,84.7589 365.5,84C 364.549,83.2825 364.383,82.4491 365,81.5C 365.654,82.6956 366.154,82.6956 366.5,81.5C 365.197,79.4106 365.697,77.7439 368,76.5C 369.666,77.3402 369.833,76.8402 368.5,75C 378.492,65.6438 389.825,56.4772 402.5,47.5C 404.602,46.7404 406.602,45.0737 408.5,42.5C 409.736,43.2458 411.07,43.5792 412.5,43.5C 412.117,40.538 413.117,39.538 415.5,40.5C 418.276,39.9109 420.61,38.5776 422.5,36.5C 423.814,37.3128 424.981,38.3128 426,39.5C 426.317,37.6992 426.984,37.3659 428,38.5C 431.61,36.5904 435.443,35.2571 439.5,34.5C 441.683,35.7321 443.849,35.7321 446,34.5C 449.164,35.1714 451.997,36.5047 454.5,38.5C 462.286,35.1296 470.286,34.6296 478.5,37C 482.316,39.4627 484.483,42.9627 485,47.5C 492.601,55.1988 495.934,64.5322 495,75.5C 498.429,71.2405 502.262,67.5738 506.5,64.5 Z M 377.5,463.5 C 377.56,462.957 377.893,462.624 378.5,462.5C 380.871,462.892 381.538,463.892 380.5,465.5C 380.167,465.5 379.833,465.5 379.5,465.5C 379.167,464.5 378.5,463.833 377.5,463.5 Z"/></g>
<g><path style="opacity:0.008" fill="#fefffe" d="M 533.5,41.5 C 534.833,42.1667 534.833,42.1667 533.5,41.5 Z"/></g>
<g><path style="opacity:0.004" fill="#fefffe" d="M 530.5,44.5 C 531.833,45.1667 531.833,45.1667 530.5,44.5 Z"/></g>
<g><path style="opacity:0.012" fill="#fefffe" d="M 533.5,44.5 C 534.833,45.1667 534.833,45.1667 533.5,44.5 Z"/></g>
<g><path style="opacity:0.02" fill="#fefffe" d="M 402.5,47.5 C 401.833,46.1667 401.833,46.1667 402.5,47.5 Z"/></g>
<g><path style="opacity:0.008" fill="#fefffe" d="M 526.5,46.5 C 527.833,47.1667 527.833,47.1667 526.5,46.5 Z"/></g>
<g><path style="opacity:0.004" fill="#fefffe" d="M 385.5,54.5 C 386.833,55.1667 386.833,55.1667 385.5,54.5 Z"/></g>
<g><path style="opacity:0.004" fill="#fefffe" d="M 506.5,64.5 C 505.833,63.1667 505.833,63.1667 506.5,64.5 Z"/></g>
<g><path style="opacity:0.008" fill="#fefffe" d="M 689.5,88.5 C 688.475,88.1034 688.308,87.4368 689,86.5C 689.464,87.0944 689.631,87.7611 689.5,88.5 Z"/></g>
<g><path style="opacity:0.004" fill="#fefffe" d="M 362.5,87.5 C 361.833,88.1667 361.833,88.1667 362.5,87.5 Z"/></g>
<g><path style="opacity:0.012" fill="#fefffe" d="M 364.5,114.5 C 365.833,115.167 365.833,115.167 364.5,114.5 Z"/></g>
<g><path style="opacity:0.004" fill="#fefffe" d="M 364.5,117.5 C 365.833,118.167 365.833,118.167 364.5,117.5 Z"/></g>
<g><path style="opacity:0.004" fill="#fefffe" d="M 237.5,312.5 C 236.833,311.167 236.833,311.167 237.5,312.5 Z"/></g>
<g><path style="opacity:0.008" fill="#fefffe" d="M 372.5,465.5 C 372.5,465.833 372.5,466.167 372.5,466.5C 371.83,466.019 371.83,465.685 372.5,465.5 Z"/></g>
<g><path style="opacity:0.004" fill="#fefffe" d="M 372.5,466.5 C 373.833,467.167 373.833,467.167 372.5,466.5 Z"/></g>
<g><path style="opacity:0.004" fill="#fefffe" d="M 374.5,466.5 C 375.525,466.897 375.692,467.563 375,468.5C 374.536,467.906 374.369,467.239 374.5,466.5 Z"/></g>
<g><path style="opacity:0.004" fill="#fefffe" d="M 378.5,467.5 C 379.833,468.167 379.833,468.167 378.5,467.5 Z"/></g>
</svg>
