<?xml version="1.0" encoding="UTF-8"?>
<!DOCTYPE svg PUBLIC "-//W3C//DTD SVG 1.1//EN" "http://www.w3.org/Graphics/SVG/1.1/DTD/svg11.dtd">
<svg xmlns="http://www.w3.org/2000/svg" version="1.1" width="1024px" height="1024px" style="shape-rendering:geometricPrecision; text-rendering:geometricPrecision; image-rendering:optimizeQuality; fill-rule:evenodd; clip-rule:evenodd" xmlns:xlink="http://www.w3.org/1999/xlink">
<g><path style="opacity:0.971" fill="#fefffe" d="M 689.5,88.5 C 690.222,88.0825 690.722,87.4158 691,86.5C 691.333,86.8333 691.667,87.1667 692,87.5C 691.923,86.2624 692.089,85.2624 692.5,84.5C 693.192,85.0253 693.692,85.6919 694,86.5C 695.931,85.5083 698.097,85.175 700.5,85.5C 708.233,87.1876 715.566,89.8542 722.5,93.5C 723.086,93.2907 723.586,92.9574 724,92.5C 733.127,98.603 741.293,105.77 748.5,114C 748.167,114.333 747.833,114.667 747.5,115C 750.381,116.358 753.214,117.858 756,119.5C 757.212,129.958 756.045,140.125 752.5,150C 752.603,151.561 752.937,153.061 753.5,154.5C 751.723,161.382 748.889,167.715 745,173.5C 743.943,176.549 743.776,179.549 744.5,182.5C 747.846,181.395 751.179,181.562 754.5,183C 758.334,186.42 762.667,189.086 767.5,191C 768.46,194.73 768.793,198.563 768.5,202.5C 769.978,202.238 771.311,202.571 772.5,203.5C 773.641,204.425 773.641,205.259 772.5,206C 776.442,207.136 779.442,209.469 781.5,213C 780.488,218.024 780.488,223.024 781.5,228C 780.015,230.156 778.515,232.323 777,234.5C 776.259,240.643 774.926,246.643 773,252.5C 771.434,251.939 770.101,252.606 769,254.5C 767.704,257.951 766.204,261.285 764.5,264.5C 763.726,265.711 762.893,265.711 762,264.5C 761.517,265.448 761.351,266.448 761.5,267.5C 759.801,267.34 758.134,267.506 756.5,268C 751.435,270.726 747.269,274.559 744,279.5C 742.417,279.507 740.751,279.174 739,278.5C 738.385,280.116 737.385,281.449 736,282.5C 732.089,280.902 728.256,279.902 724.5,279.5C 723.108,280.605 721.941,281.939 721,283.5C 720.586,283.043 720.086,282.709 719.5,282.5C 717.546,285.474 714.88,287.474 711.5,288.5C 707.839,287.168 704.172,285.835 700.5,284.5C 699.288,282.159 699.622,279.993 701.5,278C 700.335,276.916 699.002,276.083 697.5,275.5C 696.167,277.167 694.833,278.833 693.5,280.5C 684.891,277.908 676.558,274.575 668.5,270.5C 666.879,268.577 665.046,266.911 663,265.5C 661,266.167 659.667,267.5 659,269.5C 658.667,269.167 658.333,268.833 658,268.5C 654.412,269.922 651.579,272.255 649.5,275.5C 647.311,276.173 645.311,277.173 643.5,278.5C 642.833,278.167 642.167,277.833 641.5,277.5C 639.739,279.68 637.573,281.346 635,282.5C 632.944,281.798 631.111,282.465 629.5,284.5C 623.902,283.632 618.236,283.632 612.5,284.5C 610.813,284.24 609.313,283.573 608,282.5C 605.974,283.019 603.974,283.353 602,283.5C 600.667,282.833 599.333,282.167 598,281.5C 595.28,282.311 592.78,282.311 590.5,281.5C 582.869,277.684 575.536,273.351 568.5,268.5C 567.258,265.09 565.091,262.424 562,260.5C 561.594,257.085 559.928,254.418 557,252.5C 556.51,251.207 556.343,249.873 556.5,248.5C 550.274,249.043 543.941,250.21 537.5,252C 537,252.5 536.5,253 536,253.5C 533.408,252.018 531.075,252.352 529,254.5C 528,253.833 527,253.167 526,252.5C 523.242,252.489 520.409,252.823 517.5,253.5C 520.785,256.857 521.785,260.69 520.5,265C 521.96,268.17 522.96,271.503 523.5,275C 521.807,280.039 520.64,285.206 520,290.5C 519.085,291.328 518.419,292.328 518,293.5C 510.975,297.734 503.641,301.401 496,304.5C 495.333,303.833 494.667,303.167 494,302.5C 490.049,303.231 486.049,303.898 482,304.5C 480.779,303.728 479.779,302.728 479,301.5C 478.124,313.399 473.791,323.732 466,332.5C 464.129,331.332 462.629,331.832 461.5,334C 474.966,340.266 488.966,344.933 503.5,348C 506.909,349.696 508.242,352.529 507.5,356.5C 512.263,356.963 515.097,359.63 516,364.5C 521.471,369.781 524.305,376.114 524.5,383.5C 528.939,388.966 531.273,395.299 531.5,402.5C 532.5,403.5 533.5,404.5 534.5,405.5C 534.413,410.194 534.413,414.861 534.5,419.5C 532.004,424.338 532.004,429.171 534.5,434C 531.844,436.794 531.177,439.96 532.5,443.5C 531.511,446.818 530.511,450.152 529.5,453.5C 530.175,456.522 529.675,459.522 528,462.5C 521.813,469.702 516.813,477.702 513,486.5C 511.989,487.337 510.822,487.67 509.5,487.5C 509.313,489.564 508.813,491.564 508,493.5C 505.571,494.029 503.738,495.363 502.5,497.5C 501.393,496.978 500.226,496.645 499,496.5C 495.222,497.971 491.389,499.305 487.5,500.5C 486.914,500.291 486.414,499.957 486,499.5C 484.667,500.833 483.333,502.167 482,503.5C 481.667,503.167 481.333,502.833 481,502.5C 478.906,504.527 476.573,506.194 474,507.5C 473,506.833 472,506.167 471,505.5C 469.758,506.872 468.258,507.872 466.5,508.5C 463.807,507.855 461.307,507.855 459,508.5C 458,507.5 457,506.5 456,505.5C 454.806,506.43 453.473,507.097 452,507.5C 447.722,502.693 442.389,499.693 436,498.5C 432.025,499.287 428.192,499.287 424.5,498.5C 420.828,496.89 417.162,495.39 413.5,494C 407.522,490.703 401.522,487.37 395.5,484C 392.617,481.398 390.95,478.232 390.5,474.5C 387.314,474.105 384.314,473.105 381.5,471.5C 380.943,469.354 380.61,467.354 380.5,465.5C 381.538,463.892 380.871,462.892 378.5,462.5C 377.893,462.624 377.56,462.957 377.5,463.5C 378.5,463.833 379.167,464.5 379.5,465.5C 377.549,465.773 376.049,465.107 375,463.5C 374.583,464.756 373.75,465.423 372.5,465.5C 369.223,461.976 365.556,461.309 361.5,463.5C 358.452,462.654 355.452,461.654 352.5,460.5C 351.914,460.709 351.414,461.043 351,461.5C 347.51,460.478 344.01,458.645 340.5,456C 338.86,454.605 337.36,453.105 336,451.5C 335.316,450.216 335.483,449.049 336.5,448C 335.097,445.991 333.763,443.991 332.5,442C 332.585,440.893 332.919,439.893 333.5,439C 331.59,438.592 330.59,437.425 330.5,435.5C 333.553,424.504 336.719,413.504 340,402.5C 341.626,400.083 343.126,397.583 344.5,395C 340.749,395.594 337.082,396.761 333.5,398.5C 330.875,397.62 328.542,398.287 326.5,400.5C 324.694,399.141 323.194,399.475 322,401.5C 318.402,398.911 314.736,398.911 311,401.5C 308.849,401.726 306.683,401.059 304.5,399.5C 301.634,400.795 298.801,400.795 296,399.5C 294.915,400.293 293.748,400.96 292.5,401.5C 291.452,400.617 290.285,399.95 289,399.5C 285.734,399.367 282.401,399.367 279,399.5C 277.71,397.646 276.21,397.313 274.5,398.5C 273.636,396.803 272.303,395.637 270.5,395C 268.1,394.814 265.766,394.314 263.5,393.5C 261.078,389.495 259.411,385.162 258.5,380.5C 258.977,379.522 259.643,378.689 260.5,378C 257.553,375.836 254.219,375.002 250.5,375.5C 250.649,374.448 250.483,373.448 250,372.5C 248.391,373.15 246.891,372.65 245.5,371C 245.833,370.667 246.167,370.333 246.5,370C 245.55,367.133 243.883,364.8 241.5,363C 241.833,362.667 242.167,362.333 242.5,362C 241.044,359.734 240.21,357.234 240,354.5C 239.535,353.069 238.701,351.903 237.5,351C 237.957,350.586 238.291,350.086 238.5,349.5C 238.006,345.034 237.006,340.7 235.5,336.5C 235.345,328.549 236.012,320.549 237.5,312.5C 238.873,312.657 240.207,312.49 241.5,312C 241.511,309.317 241.511,306.65 241.5,304C 242.09,299.821 243.757,296.155 246.5,293C 245.549,292.282 245.383,291.449 246,290.5C 250.865,286.099 254.198,280.765 256,274.5C 259.742,271.926 262.575,268.593 264.5,264.5C 271.71,262.796 277.043,258.629 280.5,252C 281.784,251.316 282.951,251.483 284,252.5C 287.902,247.311 293.069,245.478 299.5,247C 305.136,249.56 310.803,250.226 316.5,249C 313.693,246.73 310.693,245.73 307.5,246C 298.5,239.167 289.5,232.333 280.5,225.5C 279.833,224.167 279.167,222.833 278.5,221.5C 279.428,220.232 279.595,218.899 279,217.5C 277.485,215.323 275.985,213.156 274.5,211C 276.029,209.418 276.529,207.585 276,205.5C 270.391,200.51 267.891,195.176 268.5,189.5C 270.14,186.027 272.64,183.36 276,181.5C 276.167,181 276.333,180.5 276.5,180C 272.655,176.099 273.155,172.599 278,169.5C 283.131,158.055 289.465,147.388 297,137.5C 298.009,135.975 298.509,134.308 298.5,132.5C 301.833,132.5 303.5,130.833 303.5,127.5C 307.262,127.743 310.762,126.41 314,123.5C 316.957,126.106 319.79,126.106 322.5,123.5C 323.156,124.278 323.989,124.944 325,125.5C 326.416,124.427 327.75,124.427 329,125.5C 329.953,121.848 331.453,119.181 333.5,117.5C 335.509,117.183 337.509,116.85 339.5,116.5C 346.521,119.277 353.521,121.61 360.5,123.5C 361.086,123.291 361.586,122.957 362,122.5C 364.313,124.037 366.813,124.537 369.5,124C 368.833,123.667 368.167,123.333 367.5,123C 368.641,122.259 368.641,121.425 367.5,120.5C 370.995,118.245 371.162,115.912 368,113.5C 366.927,114.28 365.76,114.113 364.5,113C 365.833,112.333 366.833,111.333 367.5,110C 366.289,109.213 365.289,108.546 364.5,108C 364.643,105.523 364.643,103.023 364.5,100.5C 365.833,98.1667 367.167,95.8333 368.5,93.5C 366.941,91.0365 364.941,89.0365 362.5,87.5C 362.937,85.9256 363.937,84.7589 365.5,84C 364.549,83.2825 364.383,82.4491 365,81.5C 365.654,82.6956 366.154,82.6956 366.5,81.5C 365.197,79.4106 365.697,77.7439 368,76.5C 369.666,77.3402 369.833,76.8402 368.5,75C 378.492,65.6438 389.825,56.4772 402.5,47.5C 404.602,46.7404 406.602,45.0737 408.5,42.5C 409.736,43.2458 411.07,43.5792 412.5,43.5C 412.117,40.538 413.117,39.538 415.5,40.5C 418.276,39.9109 420.61,38.5776 422.5,36.5C 423.814,37.3128 424.981,38.3128 426,39.5C 426.317,37.6992 426.984,37.3659 428,38.5C 435.232,34.1349 442.732,33.3016 450.5,36C 452.954,37.8291 455.287,39.6624 457.5,41.5C 460.862,40.9366 463.862,39.6033 466.5,37.5C 485.314,43.1081 494.981,55.7748 495.5,75.5C 498.073,71.8622 500.907,69.1956 504,67.5C 507.225,68.3411 510.558,68.6745 514,68.5C 514.617,67.5509 514.451,66.7175 513.5,66C 514.449,65.3828 515.282,65.5494 516,66.5C 519.085,63.4244 521.752,60.091 524,56.5C 524.333,57.1667 524.667,57.8333 525,58.5C 525.667,57.1667 526.333,55.8333 527,54.5C 527.914,55.6537 528.747,55.487 529.5,54C 529.167,53.6667 528.833,53.3333 528.5,53C 530.167,52 531.833,51 533.5,50C 532.833,49.6667 532.167,49.3333 531.5,49C 533.001,47.7485 534.668,46.7485 536.5,46C 535.185,44.6054 535.519,43.6054 537.5,43C 535.291,42.043 535.457,40.8764 538,39.5C 538.333,39.8333 538.667,40.1667 539,40.5C 541.266,39.0437 543.766,38.2104 546.5,38C 547.226,36.6026 548.393,35.7692 550,35.5C 557.539,37.413 565.039,38.0797 572.5,37.5C 580.204,38.05 587.87,38.8834 595.5,40C 598.312,40.946 600.645,42.6127 602.5,45C 605.5,45.3333 608.5,45.6667 611.5,46C 615.574,48.4881 619.907,50.4881 624.5,52C 626.181,54.5221 627.181,57.3555 627.5,60.5C 630.153,62.4576 631.82,65.1243 632.5,68.5C 635.788,69.9596 638.955,71.6263 642,73.5C 641.945,81.497 641.445,89.497 640.5,97.5C 641.037,100.035 642.037,102.369 643.5,104.5C 641.423,110.315 643.423,113.648 649.5,114.5C 649.108,109.394 651.442,106.56 656.5,106C 658.643,99.2 663.143,96.3667 670,97.5C 674.404,97.8383 677.237,96.005 678.5,92C 681.222,90.4303 683.722,89.2636 686,88.5C 687.292,89.7911 688.458,89.7911 689.5,88.5 Z M 457.5,334.5 C 460.001,334.511 460.168,335.178 458,336.5C 457.536,335.906 457.369,335.239 457.5,334.5 Z M 377.5,463.5 C 377.56,462.957 377.893,462.624 378.5,462.5C 380.871,462.892 381.538,463.892 380.5,465.5C 380.167,465.5 379.833,465.5 379.5,465.5C 379.167,464.5 378.5,463.833 377.5,463.5 Z"/></g>
<g><path style="opacity:0.008" fill="#fefffe" d="M 533.5,41.5 C 534.833,42.1667 534.833,42.1667 533.5,41.5 Z"/></g>
<g><path style="opacity:0.004" fill="#fefffe" d="M 530.5,44.5 C 531.833,45.1667 531.833,45.1667 530.5,44.5 Z"/></g>
<g><path style="opacity:0.012" fill="#fefffe" d="M 533.5,44.5 C 534.833,45.1667 534.833,45.1667 533.5,44.5 Z"/></g>
<g><path style="opacity:0.02" fill="#fefffe" d="M 402.5,47.5 C 401.833,46.1667 401.833,46.1667 402.5,47.5 Z"/></g>
<g><path style="opacity:0.008" fill="#fefffe" d="M 526.5,46.5 C 527.833,47.1667 527.833,47.1667 526.5,46.5 Z"/></g>
<g><path style="opacity:0.004" fill="#fefffe" d="M 385.5,54.5 C 386.833,55.1667 386.833,55.1667 385.5,54.5 Z"/></g>
<g><path style="opacity:0.004" fill="#fefffe" d="M 505.5,63.5 C 506.833,64.1667 506.833,64.1667 505.5,63.5 Z"/></g>
<g><path style="opacity:0.004" fill="#fefffe" d="M 514.5,63.5 C 515.833,64.1667 515.833,64.1667 514.5,63.5 Z"/></g>
<g><path style="opacity:0.01" fill="#fefffe" d="M 508.5,66.5 C 508.897,65.475 509.563,65.3083 510.5,66C 509.906,66.4643 509.239,66.631 508.5,66.5 Z"/></g>
<g><path style="opacity:0.008" fill="#fefffe" d="M 689.5,88.5 C 688.475,88.1034 688.308,87.4368 689,86.5C 689.464,87.0944 689.631,87.7611 689.5,88.5 Z"/></g>
<g><path style="opacity:0.004" fill="#fefffe" d="M 362.5,87.5 C 361.833,88.1667 361.833,88.1667 362.5,87.5 Z"/></g>
<g><path style="opacity:0.012" fill="#fefffe" d="M 364.5,114.5 C 365.833,115.167 365.833,115.167 364.5,114.5 Z"/></g>
<g><path style="opacity:0.004" fill="#fefffe" d="M 333.5,117.5 C 332.833,116.167 332.833,116.167 333.5,117.5 Z"/></g>
<g><path style="opacity:0.004" fill="#fefffe" d="M 364.5,117.5 C 365.833,118.167 365.833,118.167 364.5,117.5 Z"/></g>
<g><path style="opacity:0.004" fill="#fefffe" d="M 322.5,121.5 C 323.833,122.167 323.833,122.167 322.5,121.5 Z"/></g>
<g><path style="opacity:0.012" fill="#fefffe" d="M 317.5,122.5 C 318.833,123.167 318.833,123.167 317.5,122.5 Z"/></g>
<g><path style="opacity:0.005" fill="#fefffe" d="M 322.5,122.5 C 322.5,122.833 322.5,123.167 322.5,123.5C 318.5,123.167 318.5,122.833 322.5,122.5 Z"/></g>
<g><path style="opacity:0.004" fill="#fefffe" d="M 237.5,312.5 C 236.833,311.167 236.833,311.167 237.5,312.5 Z"/></g>
<g><path style="opacity:0.008" fill="#fefffe" d="M 372.5,465.5 C 372.5,465.833 372.5,466.167 372.5,466.5C 371.83,466.019 371.83,465.685 372.5,465.5 Z"/></g>
<g><path style="opacity:0.004" fill="#fefffe" d="M 372.5,466.5 C 373.833,467.167 373.833,467.167 372.5,466.5 Z"/></g>
<g><path style="opacity:0.004" fill="#fefffe" d="M 374.5,466.5 C 375.525,466.897 375.692,467.563 375,468.5C 374.536,467.906 374.369,467.239 374.5,466.5 Z"/></g>
<g><path style="opacity:0.004" fill="#fefffe" d="M 378.5,467.5 C 379.833,468.167 379.833,468.167 378.5,467.5 Z"/></g>
</svg>
