<?xml version="1.0" encoding="UTF-8"?>
<!DOCTYPE svg PUBLIC "-//W3C//DTD SVG 1.1//EN" "http://www.w3.org/Graphics/SVG/1.1/DTD/svg11.dtd">
<svg xmlns="http://www.w3.org/2000/svg" version="1.1" width="66px" height="61px" style="shape-rendering:geometricPrecision; text-rendering:geometricPrecision; image-rendering:optimizeQuality; fill-rule:evenodd; clip-rule:evenodd" xmlns:xlink="http://www.w3.org/1999/xlink">
<g><path style="opacity:0.922" fill="#fefffe" d="M 7.5,1.5 C 22.7632,2.02629 37.2632,2.02629 51,1.5C 57.1589,0.992262 59.9923,3.8256 59.5,10C 59.6243,12.59 58.9577,14.9233 57.5,17C 59.5127,17.8753 59.5127,19.2087 57.5,21C 58.9628,24.1165 59.2962,27.2832 58.5,30.5C 59.1832,33.4129 60.5165,35.9129 62.5,38C 61.8333,38.3333 61.1667,38.6667 60.5,39C 61.5784,39.6739 62.2451,40.6739 62.5,42C 61.2708,44.062 60.2708,46.2287 59.5,48.5C 59.6316,50.601 60.6316,52.101 62.5,53C 59.6894,54.6437 57.356,56.8103 55.5,59.5C 53.5237,57.6033 51.6904,55.6033 50,53.5C 47.3333,54.8333 44.6667,56.1667 42,57.5C 38,57.5 34,57.5 30,57.5C 25.8445,57.005 21.8445,56.005 18,54.5C 15.3844,54.0186 12.8844,54.6853 10.5,56.5C 7.25517,54.4214 4.92184,51.5881 3.5,48C 3.38288,33.6458 3.54955,19.1458 4,4.5C 4.98498,3.18586 6.15164,2.18586 7.5,1.5 Z"/></g>
</svg>
