<?xml version="1.0" encoding="UTF-8"?>
<!DOCTYPE svg PUBLIC "-//W3C//DTD SVG 1.1//EN" "http://www.w3.org/Graphics/SVG/1.1/DTD/svg11.dtd">
<svg xmlns="http://www.w3.org/2000/svg" version="1.1" width="1024px" height="1024px" style="shape-rendering:geometricPrecision; text-rendering:geometricPrecision; image-rendering:optimizeQuality; fill-rule:evenodd; clip-rule:evenodd" xmlns:xlink="http://www.w3.org/1999/xlink">
<g><path style="opacity:0.971" fill="#fefffe" d="M 489.5,112.5 C 505.841,115.334 522.175,118.334 538.5,121.5C 541.358,118.122 544.691,117.622 548.5,120C 552.519,124.369 555.519,129.369 557.5,135C 555.567,141.803 553.401,148.636 551,155.5C 546.298,161.718 541.465,167.885 536.5,174C 535.552,174.483 534.552,174.649 533.5,174.5C 533.785,176.288 533.452,177.955 532.5,179.5C 529.349,182.15 526.349,184.984 523.5,188C 521.003,188.412 519.003,189.578 517.5,191.5C 518.571,197.566 521.071,202.9 525,207.5C 525.022,214.468 522.522,220.468 517.5,225.5C 520.335,228.671 520.002,231.504 516.5,234C 512.844,237.163 508.844,239.829 504.5,242C 502.433,242.536 500.599,242.036 499,240.5C 483.964,247.601 469.131,255.101 454.5,263C 447.612,265.071 440.779,264.904 434,262.5C 426.555,263.576 422.389,260.243 421.5,252.5C 416.437,248.536 412.437,243.703 409.5,238C 408.5,237.333 407.5,237.333 406.5,238C 401.615,241.297 396.282,243.631 390.5,245C 380.164,244.162 369.83,243.828 359.5,244C 356.804,243.31 354.637,241.81 353,239.5C 351.536,234.576 349.536,229.909 347,225.5C 346.333,224.167 346.333,222.833 347,221.5C 349.907,214.352 352.24,207.018 354,199.5C 355.31,196.527 357.31,194.193 360,192.5C 363.957,180.921 367.623,169.254 371,157.5C 375.218,152.615 380.052,148.448 385.5,145C 389.855,145.569 394.188,145.403 398.5,144.5C 399.436,141.041 401.436,138.207 404.5,136C 412.788,130.047 420.788,123.714 428.5,117C 436.321,114.565 444.321,113.898 452.5,115C 458.814,117.578 465.314,119.412 472,120.5C 478.501,118.944 484.334,116.277 489.5,112.5 Z"/></g>
</svg>
