<?xml version="1.0" encoding="UTF-8"?>
<!DOCTYPE svg PUBLIC "-//W3C//DTD SVG 1.1//EN" "http://www.w3.org/Graphics/SVG/1.1/DTD/svg11.dtd">
<svg xmlns="http://www.w3.org/2000/svg" version="1.1" width="1024px" height="1024px" style="shape-rendering:geometricPrecision; text-rendering:geometricPrecision; image-rendering:optimizeQuality; fill-rule:evenodd; clip-rule:evenodd" xmlns:xlink="http://www.w3.org/1999/xlink">
<g><path style="opacity:0.975" fill="#fefffe" d="M 425.5,107.5 C 431.352,106.861 436.852,107.861 442,110.5C 445.967,108.614 450.134,108.114 454.5,109C 466.349,114.501 476.849,122.001 486,131.5C 489.277,139.055 492.277,146.722 495,154.5C 496.906,153.869 498.906,153.536 501,153.5C 507.851,154.437 514.685,155.437 521.5,156.5C 521.457,150.499 524.457,148.332 530.5,150C 535.139,153.306 539.139,157.306 542.5,162C 547.919,160.744 551.252,157.244 552.5,151.5C 558.478,147.029 563.144,141.529 566.5,135C 577.002,129.585 587.002,123.419 596.5,116.5C 599.409,118.356 602.409,120.023 605.5,121.5C 606.466,123.396 606.799,125.396 606.5,127.5C 617.576,123.683 628.909,122.683 640.5,124.5C 644.724,122.92 649.058,122.42 653.5,123C 656.049,123.751 657.716,125.418 658.5,128C 665.491,132.501 673.158,134.835 681.5,135C 685.729,136.115 689.729,137.781 693.5,140C 703,148.167 711.833,157 720,166.5C 731.501,185.506 743.501,204.173 756,222.5C 758.874,226.02 759.708,229.853 758.5,234C 763.825,249.613 765.492,265.613 763.5,282C 766.605,283.611 768.939,286.111 770.5,289.5C 771.666,300.151 771.832,310.818 771,321.5C 770.686,326.774 769.353,331.774 767,336.5C 767.696,351.659 765.362,366.326 760,380.5C 756.736,388.126 753.569,395.793 750.5,403.5C 748.517,404.982 746.684,406.649 745,408.5C 741.167,415 737.333,421.5 733.5,428C 731.711,428.52 730.044,428.187 728.5,427C 727.089,424.004 726.089,420.837 725.5,417.5C 722.034,428.138 718.201,438.805 714,449.5C 708.156,457.99 702.49,466.657 697,475.5C 692.833,479.667 688.667,483.833 684.5,488C 682.541,488.931 680.541,489.764 678.5,490.5C 669.148,499.02 659.648,507.353 650,515.5C 646.831,514.158 645.498,511.824 646,508.5C 651.657,500.552 655.99,491.886 659,482.5C 660.406,480.129 662.406,478.462 665,477.5C 664.004,473.117 664.337,468.784 666,464.5C 668.75,453.494 672.416,442.827 677,432.5C 678.222,417.389 680.222,402.389 683,387.5C 683.514,381.133 683.847,374.8 684,368.5C 682.756,371.638 682.089,374.972 682,378.5C 681.252,380.332 680.252,381.999 679,383.5C 678.393,380.798 678.56,378.132 679.5,375.5C 678.35,371.566 677.516,367.566 677,363.5C 672.701,357.346 668.534,351.012 664.5,344.5C 645.964,327.462 627.964,309.962 610.5,292C 596.046,280.547 582.546,268.047 570,254.5C 564.408,264.086 557.408,272.419 549,279.5C 546.883,284.065 545.05,288.732 543.5,293.5C 540.012,301.942 534.012,304.442 525.5,301C 522.926,297.63 522.259,293.963 523.5,290C 522.333,287.833 521.167,285.667 520,283.5C 518.333,286.5 516.667,289.5 515,292.5C 514.798,297.989 513.798,303.322 512,308.5C 510.667,309.833 509.333,309.833 508,308.5C 506.956,309.623 506.29,310.956 506,312.5C 502.417,345.397 500.417,378.397 500,411.5C 499.4,417.864 498.567,424.198 497.5,430.5C 498.114,437.097 501.114,442.097 506.5,445.5C 512.252,454.669 517.752,464.002 523,473.5C 525,479.5 527,485.5 529,491.5C 532.497,494.135 533.33,497.468 531.5,501.5C 527.435,503.144 523.769,502.644 520.5,500C 518.833,499.667 517.167,499.333 515.5,499C 500.906,484.643 490.239,467.81 483.5,448.5C 481.631,447.376 479.631,446.543 477.5,446C 477.833,445.667 478.167,445.333 478.5,445C 477.914,442.72 477.08,440.553 476,438.5C 473.333,440.448 471.833,443.115 471.5,446.5C 474.045,452.615 474.878,458.948 474,465.5C 470.949,468.094 467.449,468.927 463.5,468C 457.606,459.769 452.106,451.269 447,442.5C 441.492,440.51 438.659,436.51 438.5,430.5C 433.671,428.93 431.337,430.763 431.5,436C 432.346,443.885 434.513,451.385 438,458.5C 438.769,461.099 438.602,463.599 437.5,466C 439.343,473.194 442.177,480.028 446,486.5C 451.081,495.665 456.415,504.665 462,513.5C 462.014,524.883 456.514,528.716 445.5,525C 442.13,521.965 439.13,518.632 436.5,515C 433.377,514.794 430.377,514.127 427.5,513C 393.558,483.294 366.724,448.128 347,407.5C 345.524,402.924 345.19,398.257 346,393.5C 346.465,392.069 347.299,390.903 348.5,390C 333.402,361.874 323.402,332.041 318.5,300.5C 318.138,295.8 319.138,291.467 321.5,287.5C 320.985,285.364 320.651,283.197 320.5,281C 321.114,266.314 321.781,251.647 322.5,237C 321.372,235.532 320.706,233.865 320.5,232C 321.661,227.844 323.495,224.011 326,220.5C 328.218,208.844 332.218,197.844 338,187.5C 346.084,176.339 353.417,164.672 360,152.5C 368.941,140.708 379.774,131.375 392.5,124.5C 393.438,121.109 395.438,118.609 398.5,117C 407.312,112.898 416.312,109.731 425.5,107.5 Z"/></g>
<g><path style="opacity:0.048" fill="#fefffe" d="M 668.5,371.5 C 669.94,375.265 669.44,378.932 667,382.5C 667.159,378.83 667.659,375.163 668.5,371.5 Z"/></g>
</svg>
