<?xml version="1.0" encoding="UTF-8"?>
<!DOCTYPE svg PUBLIC "-//W3C//DTD SVG 1.1//EN" "http://www.w3.org/Graphics/SVG/1.1/DTD/svg11.dtd">
<svg xmlns="http://www.w3.org/2000/svg" version="1.1" width="1024px" height="1024px" style="shape-rendering:geometricPrecision; text-rendering:geometricPrecision; image-rendering:optimizeQuality; fill-rule:evenodd; clip-rule:evenodd" xmlns:xlink="http://www.w3.org/1999/xlink">
<g><path style="opacity:0.946" fill="#fefffe" d="M 716.5,796.5 C 724.376,795.994 727.376,799.494 725.5,807C 723.984,809.014 722.317,810.847 720.5,812.5C 721.707,817.204 723.041,821.871 724.5,826.5C 727.062,828.752 729.896,829.418 733,828.5C 741.873,832.017 750.039,836.684 757.5,842.5C 762.605,850.794 767.105,859.461 771,868.5C 771.954,873.135 770.788,877.135 767.5,880.5C 762.771,884.723 757.271,887.39 751,888.5C 748.523,888.002 746.023,887.669 743.5,887.5C 734.629,889.603 725.629,891.103 716.5,892C 697.465,893.742 680.132,889.242 664.5,878.5C 663.554,878.987 662.554,879.32 661.5,879.5C 656.926,877.96 652.426,876.293 648,874.5C 638.63,877.164 629.963,875.497 622,869.5C 620.087,866.174 618.587,862.674 617.5,859C 621.003,850.841 621.67,842.841 619.5,835C 621.148,828.195 620.815,821.528 618.5,815C 620.354,813.71 620.687,812.21 619.5,810.5C 621.638,800.083 626.638,798.249 634.5,805C 638.153,805.773 641.653,806.94 645,808.5C 657.24,802.974 670.073,801.141 683.5,803C 686.393,803.631 689.226,804.464 692,805.5C 700.446,802.966 708.613,799.966 716.5,796.5 Z"/></g>
<g><path style="opacity:0.948" fill="#fefffe" d="M 492.5,804.5 C 494.17,804.751 495.67,805.418 497,806.5C 503.817,803.238 508.483,805.238 511,812.5C 511.344,819.679 511.844,826.845 512.5,834C 510.862,838.808 511.195,843.474 513.5,848C 516.13,850.277 517.797,853.111 518.5,856.5C 517.557,861.053 515.557,865.053 512.5,868.5C 512.833,869.167 513.167,869.833 513.5,870.5C 512.194,871.912 511.36,873.579 511,875.5C 500.361,884.242 488.527,891.075 475.5,896C 473.608,901.454 470.275,905.788 465.5,909C 447.793,919.011 428.793,924.844 408.5,926.5C 401.364,926.973 394.697,925.473 388.5,922C 387.874,921.25 387.374,920.416 387,919.5C 385.917,909.662 386.75,899.995 389.5,890.5C 389.167,889.167 388.833,887.833 388.5,886.5C 390.538,883.086 392.038,879.42 393,875.5C 401.203,868.974 410.036,863.307 419.5,858.5C 420.36,855.407 421.694,852.573 423.5,850C 420.464,843.76 418.131,837.26 416.5,830.5C 416.841,825.462 419.341,822.129 424,820.5C 425,820.833 426,821.167 427,821.5C 432.462,820.736 437.962,820.236 443.5,820C 459.615,814.056 475.948,808.89 492.5,804.5 Z"/></g>
</svg>
