<?xml version="1.0" encoding="UTF-8"?>
<!DOCTYPE svg PUBLIC "-//W3C//DTD SVG 1.1//EN" "http://www.w3.org/Graphics/SVG/1.1/DTD/svg11.dtd">
<svg xmlns="http://www.w3.org/2000/svg" version="1.1" width="1024px" height="1024px" style="shape-rendering:geometricPrecision; text-rendering:geometricPrecision; image-rendering:optimizeQuality; fill-rule:evenodd; clip-rule:evenodd" xmlns:xlink="http://www.w3.org/1999/xlink">
<g><path style="opacity:0.004" fill="#fefffe" d="M 408.5,50.5 C 409.077,49.2267 409.743,49.2267 410.5,50.5C 410.03,51.463 409.363,51.463 408.5,50.5 Z"/></g>
<g><path style="opacity:0.969" fill="#fefffe" d="M 414.5,50.5 C 421.491,53.4642 428.825,55.2975 436.5,56C 440.511,57.4417 444.178,59.4417 447.5,62C 452.427,69.0441 457.927,75.5441 464,81.5C 463.039,85.3839 462.706,89.3839 463,93.5C 465,94.1667 467,94.8333 469,95.5C 468.848,97.5185 468.348,99.5185 467.5,101.5C 481.899,103.392 496.566,105.558 511.5,108C 516.755,111.546 522.255,114.712 528,117.5C 536.012,114.003 542.679,115.67 548,122.5C 549.921,127.292 550.421,132.125 549.5,137C 552.762,139.592 555.262,142.759 557,146.5C 561.708,148.212 564.708,151.546 566,156.5C 568.279,158.289 570.279,160.289 572,162.5C 572.105,168.313 570.439,173.647 567,178.5C 566.03,183.994 564.53,189.327 562.5,194.5C 555.206,202.995 547.206,210.828 538.5,218C 520.369,229.904 502.036,241.571 483.5,253C 472.089,257.137 460.755,261.47 449.5,266C 436.46,268.075 423.46,270.408 410.5,273C 403.8,273.553 397.133,273.22 390.5,272C 385.15,270.572 380.65,267.739 377,263.5C 370.566,255.062 365.899,245.728 363,235.5C 362.667,230.5 362.333,225.5 362,220.5C 356.981,213.931 357.648,207.931 364,202.5C 365.852,193.59 367.185,184.59 368,175.5C 370.771,168.718 375.104,163.051 381,158.5C 386.673,149.153 392.839,140.153 399.5,131.5C 396.625,128.253 392.959,126.42 388.5,126C 386.926,124.174 386.093,122.007 386,119.5C 383.636,117.637 381.136,115.971 378.5,114.5C 375.882,110.902 374.715,106.902 375,102.5C 377.685,98.8169 381.018,95.8169 385,93.5C 385.887,86.9377 383.387,82.2711 377.5,79.5C 378.376,78.7492 379.376,78.2492 380.5,78C 378.842,77.2747 378.342,76.108 379,74.5C 381.226,68.6163 385.059,64.4496 390.5,62C 396.241,54.7904 403.574,52.1237 412.5,54C 413.305,52.8873 413.972,51.7206 414.5,50.5 Z"/></g>
<g><path style="opacity:0.008" fill="#fefffe" d="M 374.5,85.5 C 375.525,85.8966 375.692,86.5632 375,87.5C 374.536,86.9056 374.369,86.2389 374.5,85.5 Z"/></g>
<g><path style="opacity:0.004" fill="#fefffe" d="M 373.5,88.5 C 374.833,89.1667 374.833,89.1667 373.5,88.5 Z"/></g>
</svg>
