<?xml version="1.0" encoding="UTF-8"?>
<!DOCTYPE svg PUBLIC "-//W3C//DTD SVG 1.1//EN" "http://www.w3.org/Graphics/SVG/1.1/DTD/svg11.dtd">
<svg xmlns="http://www.w3.org/2000/svg" version="1.1" width="1024px" height="1024px" style="shape-rendering:geometricPrecision; text-rendering:geometricPrecision; image-rendering:optimizeQuality; fill-rule:evenodd; clip-rule:evenodd" xmlns:xlink="http://www.w3.org/1999/xlink">
<g><path style="opacity:0.004" fill="#fefffe" d="M 700.5,764.5 C 699.833,763.167 699.833,763.167 700.5,764.5 Z"/></g>
<g><path style="opacity:0.957" fill="#fefffe" d="M 729.5,911.5 C 725.949,910.814 725.783,909.814 729,908.5C 729.833,906.833 730.667,905.167 731.5,903.5C 731.167,902.5 730.5,901.833 729.5,901.5C 726.298,903.901 724.798,906.901 725,910.5C 724.667,910.167 724.333,909.833 724,909.5C 716.733,912.476 709.566,915.643 702.5,919C 689.515,922.306 681.182,917.639 677.5,905C 673.823,904.547 670.156,904.714 666.5,905.5C 662.833,907 659.167,908.5 655.5,910C 652.5,910.667 649.5,910.667 646.5,910C 639.534,907.185 633.201,903.352 627.5,898.5C 626.067,892.024 626.567,885.691 629,879.5C 631,877.833 633,876.167 635,874.5C 636.367,875.524 637.2,875.024 637.5,873C 636.303,871.48 634.803,870.313 633,869.5C 632.916,865.565 631.916,861.898 630,858.5C 630.03,847.33 630.53,836.164 631.5,825C 629.557,817.284 628.39,809.451 628,801.5C 626.252,798.631 624.252,795.964 622,793.5C 618.678,785.477 621.178,780.477 629.5,778.5C 635.443,780.316 641.443,781.816 647.5,783C 659.234,783.23 670.901,784.063 682.5,785.5C 685.091,779.207 687.758,772.874 690.5,766.5C 693.874,766.535 697.207,765.868 700.5,764.5C 703.601,763.571 706.934,763.238 710.5,763.5C 717.347,764.171 720.181,767.838 719,774.5C 717.686,777.624 716.52,780.791 715.5,784C 716.917,786.594 717.584,789.428 717.5,792.5C 715.973,802.239 716.973,811.739 720.5,821C 724.276,825.718 728.943,829.218 734.5,831.5C 735.167,833.167 735.833,834.833 736.5,836.5C 740.606,838.782 744.939,840.615 749.5,842C 753,844.833 756.5,847.667 760,850.5C 764.07,857.969 765.57,865.969 764.5,874.5C 767.558,874.712 770.058,876.045 772,878.5C 782.566,895.836 778.733,908.669 760.5,917C 752.833,917.667 745.167,917.667 737.5,917C 734.968,916.381 732.635,915.381 730.5,914C 732.903,911.599 732.57,910.765 729.5,911.5 Z"/></g>
<g><path style="opacity:0.964" fill="#fefffe" d="M 440.5,777.5 C 444.662,778.242 448.662,779.576 452.5,781.5C 456.946,789.347 463.78,793.014 473,792.5C 480.252,791.416 487.418,789.916 494.5,788C 496.455,787.047 498.122,785.713 499.5,784C 507.701,782.232 510.368,785.398 507.5,793.5C 504.305,794.877 503.805,796.877 506,799.5C 506.124,819.96 509.291,839.96 515.5,859.5C 515.153,863.355 513.486,866.522 510.5,869C 515.207,870.207 518.541,873.04 520.5,877.5C 523.31,878.146 525.144,879.812 526,882.5C 527.055,898.613 519.555,907.613 503.5,909.5C 498.859,908.769 494.193,908.436 489.5,908.5C 487.928,913.655 485.762,918.655 483,923.5C 480.408,926.762 477.241,929.262 473.5,931C 466.361,931.438 459.361,932.605 452.5,934.5C 447.524,934.252 442.524,933.919 437.5,933.5C 435.021,937.147 432.021,940.313 428.5,943C 417.902,944.398 407.402,946.232 397,948.5C 393.679,945.685 389.846,944.018 385.5,943.5C 385.649,938.691 384.983,934.025 383.5,929.5C 384.395,925.206 385.729,921.039 387.5,917C 387.642,914.088 386.309,912.588 383.5,912.5C 382.747,902.072 381.58,891.738 380,881.5C 390.287,869.875 401.787,859.708 414.5,851C 419.552,846.217 423.885,840.883 427.5,835C 424.768,834.587 422.101,833.92 419.5,833C 418.424,831.274 418.257,829.441 419,827.5C 421.279,825.711 423.279,823.711 425,821.5C 425.851,815.747 425.517,810.08 424,804.5C 418.948,798.346 416.948,791.346 418,783.5C 419.041,781.415 420.541,779.748 422.5,778.5C 427.78,779.618 433.113,779.784 438.5,779C 439.416,778.722 440.082,778.222 440.5,777.5 Z"/></g>
<g><path style="opacity:0.008" fill="#fefffe" d="M 635.5,872.5 C 636.833,873.167 636.833,873.167 635.5,872.5 Z"/></g>
<g><path style="opacity:0.004" fill="#fefffe" d="M 729.5,911.5 C 730.833,912.167 730.833,912.167 729.5,911.5 Z"/></g>
</svg>
