<?xml version="1.0" encoding="UTF-8"?>
<!DOCTYPE svg PUBLIC "-//W3C//DTD SVG 1.1//EN" "http://www.w3.org/Graphics/SVG/1.1/DTD/svg11.dtd">
<svg xmlns="http://www.w3.org/2000/svg" version="1.1" width="1024px" height="1024px" style="shape-rendering:geometricPrecision; text-rendering:geometricPrecision; image-rendering:optimizeQuality; fill-rule:evenodd; clip-rule:evenodd" xmlns:xlink="http://www.w3.org/1999/xlink">
<g><path style="opacity:0.004" fill="#fefffe" d="M 700.5,764.5 C 699.833,763.167 699.833,763.167 700.5,764.5 Z"/></g>
<g><path style="opacity:0.96" fill="#fefffe" d="M 729.5,911.5 C 727.583,910.254 725.75,909.587 724,909.5C 716.733,912.476 709.566,915.643 702.5,919C 688.461,921.949 679.961,916.449 677,902.5C 663.659,907.238 650.825,906.072 638.5,899C 635.57,896.88 633.737,894.047 633,890.5C 632.171,885.467 632.338,880.467 633.5,875.5C 638.921,874.173 638.755,872.173 633,869.5C 631.098,854.696 630.598,839.863 631.5,825C 629.557,817.284 628.39,809.451 628,801.5C 626.252,798.631 624.252,795.964 622,793.5C 618.678,785.477 621.178,780.477 629.5,778.5C 636.249,780.124 642.749,782.457 649,785.5C 653.024,784.028 657.191,783.362 661.5,783.5C 668.607,784.031 675.607,785.031 682.5,786.5C 682.523,784.073 683.023,781.74 684,779.5C 686.825,775.544 688.992,771.211 690.5,766.5C 693.874,766.535 697.207,765.868 700.5,764.5C 702.296,764.394 704.296,764.228 706.5,764C 708.682,766.012 711.349,767.012 714.5,767C 718.035,769.707 719.202,773.207 718,777.5C 715.928,780.883 714.761,784.55 714.5,788.5C 715.407,799.536 717.407,810.369 720.5,821C 725.543,825.751 729.877,831.085 733.5,837C 740.504,841.837 747.837,846.171 755.5,850C 760.189,852.521 763.189,856.354 764.5,861.5C 762.284,865.157 761.284,869.157 761.5,873.5C 769.292,874.455 774.125,878.788 776,886.5C 779.987,901.36 774.82,911.527 760.5,917C 752.833,917.667 745.167,917.667 737.5,917C 734.968,916.381 732.635,915.381 730.5,914C 732.903,911.599 732.57,910.765 729.5,911.5 Z"/></g>
<g><path style="opacity:0.963" fill="#fefffe" d="M 422.5,778.5 C 428.352,777.861 433.852,778.861 439,781.5C 442.744,780.374 446.577,780.207 450.5,781C 452.377,784.494 453.044,788.327 452.5,792.5C 463.856,792.54 475.19,792.707 486.5,793C 491.008,790.247 495.341,787.247 499.5,784C 507.701,782.232 510.368,785.398 507.5,793.5C 505.143,796.186 503.143,799.186 501.5,802.5C 506.42,821.431 511.086,840.431 515.5,859.5C 515.153,863.355 513.486,866.522 510.5,869C 517.651,871.769 522.151,876.936 524,884.5C 524.667,887.167 524.667,889.833 524,892.5C 520.941,898.559 516.774,903.726 511.5,908C 508.893,908.818 506.226,909.318 503.5,909.5C 498.526,908.745 493.526,908.411 488.5,908.5C 487.358,918.629 482.358,926.129 473.5,931C 466.361,931.438 459.361,932.605 452.5,934.5C 447.524,934.252 442.524,933.919 437.5,933.5C 435.021,937.147 432.021,940.313 428.5,943C 416.572,945.884 404.572,946.55 392.5,945C 381.226,935.277 380.56,924.777 390.5,913.5C 386.445,902.415 386.611,891.415 391,880.5C 398.712,871.79 406.045,862.79 413,853.5C 418.333,849.5 423,844.833 427,839.5C 428.128,837.655 428.628,835.655 428.5,833.5C 420.987,834.154 418.654,830.987 421.5,824C 422.098,822.699 423.098,821.865 424.5,821.5C 425.662,816.869 425.828,812.202 425,807.5C 419.616,799.133 417.95,790.133 420,780.5C 420.995,779.934 421.828,779.267 422.5,778.5 Z"/></g>
<g><path style="opacity:0.008" fill="#fefffe" d="M 635.5,872.5 C 636.833,873.167 636.833,873.167 635.5,872.5 Z"/></g>
<g><path style="opacity:0.004" fill="#fefffe" d="M 729.5,911.5 C 730.833,912.167 730.833,912.167 729.5,911.5 Z"/></g>
</svg>
