<?xml version="1.0" encoding="UTF-8"?>
<!DOCTYPE svg PUBLIC "-//W3C//DTD SVG 1.1//EN" "http://www.w3.org/Graphics/SVG/1.1/DTD/svg11.dtd">
<svg xmlns="http://www.w3.org/2000/svg" version="1.1" width="1024px" height="1024px" style="shape-rendering:geometricPrecision; text-rendering:geometricPrecision; image-rendering:optimizeQuality; fill-rule:evenodd; clip-rule:evenodd" xmlns:xlink="http://www.w3.org/1999/xlink">
<g><path style="opacity:0.941" fill="#fefffe" d="M 470.5,215.5 C 477.01,215.07 483.344,215.903 489.5,218C 490.5,219 491.5,220 492.5,221C 487.928,228.316 485.761,235.816 486,243.5C 481.715,249.786 476.715,255.452 471,260.5C 470.261,264.385 468.927,268.052 467,271.5C 455.039,285.797 442.705,299.797 430,313.5C 425.886,317.129 421.719,320.629 417.5,324C 405.721,336.446 393.554,348.613 381,360.5C 380.667,361.833 380.333,363.167 380,364.5C 373.295,372.371 366.128,379.704 358.5,386.5C 355.227,387.585 351.894,387.752 348.5,387C 344.952,385.059 341.286,383.393 337.5,382C 333.271,376.099 329.437,369.932 326,363.5C 326.077,359.771 325.91,356.104 325.5,352.5C 333.03,342.215 340.697,332.715 348.5,324C 346.314,323.396 346.148,322.23 348,320.5C 349,319.833 350,319.167 351,318.5C 350.205,321.855 351.372,322.355 354.5,320C 370,303.167 386.167,287 403,271.5C 415.354,257.313 427.521,242.98 439.5,228.5C 445.481,223.177 452.481,220.677 460.5,221C 463.767,218.871 467.101,217.038 470.5,215.5 Z"/></g>
<g><path style="opacity:0.029" fill="#fefffe" d="M 385.5,279.5 C 388.611,276.124 391.611,272.624 394.5,269C 395.5,268.333 396.5,268.333 397.5,269C 393.905,273.104 389.905,276.604 385.5,279.5 Z"/></g>
<g><path style="opacity:0.016" fill="#fefffe" d="M 385.5,279.5 C 384.833,280.167 384.833,280.167 385.5,279.5 Z"/></g>
<g><path style="opacity:0.008" fill="#fefffe" d="M 384.5,280.5 C 383.833,281.167 383.833,281.167 384.5,280.5 Z"/></g>
<g><path style="opacity:0.008" fill="#fefffe" d="M 383.5,281.5 C 382.833,282.167 382.833,282.167 383.5,281.5 Z"/></g>
<g><path style="opacity:0.004" fill="#fefffe" d="M 382.5,282.5 C 381.833,283.167 381.833,283.167 382.5,282.5 Z"/></g>
<g><path style="opacity:0.008" fill="#fefffe" d="M 381.5,283.5 C 380.833,284.167 380.833,284.167 381.5,283.5 Z"/></g>
<g><path style="opacity:0.007" fill="#fefffe" d="M 380.5,284.5 C 380.315,286.196 379.481,287.529 378,288.5C 377.721,286.588 378.554,285.254 380.5,284.5 Z"/></g>
<g><path style="opacity:0.004" fill="#fefffe" d="M 377.5,376.5 C 378.833,377.167 378.833,377.167 377.5,376.5 Z"/></g>
<g><path style="opacity:0.008" fill="#fefffe" d="M 377.5,377.5 C 376.833,378.167 376.833,378.167 377.5,377.5 Z"/></g>
<g><path style="opacity:0.01" fill="#fefffe" d="M 376.5,378.5 C 376.167,379.5 375.5,380.167 374.5,380.5C 374.5,379.167 375.167,378.5 376.5,378.5 Z"/></g>
<g><path style="opacity:0.016" fill="#fefffe" d="M 374.5,380.5 C 373.833,381.167 373.833,381.167 374.5,380.5 Z"/></g>
<g><path style="opacity:0.016" fill="#fefffe" d="M 373.5,381.5 C 372.833,382.167 372.833,382.167 373.5,381.5 Z"/></g>
<g><path style="opacity:0.012" fill="#fefffe" d="M 372.5,382.5 C 371.833,383.167 371.833,383.167 372.5,382.5 Z"/></g>
<g><path style="opacity:0.008" fill="#fefffe" d="M 371.5,383.5 C 370.833,384.167 370.833,384.167 371.5,383.5 Z"/></g>
<g><path style="opacity:0.004" fill="#fefffe" d="M 337.5,388.5 C 336.833,387.167 336.833,387.167 337.5,388.5 Z"/></g>
<g><path style="opacity:0.036" fill="#fefffe" d="M 337.5,388.5 C 340.455,388.981 342.789,390.481 344.5,393C 341.04,393.391 338.707,391.891 337.5,388.5 Z"/></g>
</svg>
