<svg width="1024" height="1024" viewBox="0 0 1024 1024" fill="none" xmlns="http://www.w3.org/2000/svg">
<path opacity="0.941" fill-rule="evenodd" clip-rule="evenodd" d="M470.5 215.5C477.01 215.07 483.344 215.903 489.5 218C490.5 219 491.5 220 492.5 221C487.928 228.316 485.761 235.816 486 243.5C481.715 249.786 476.715 255.452 471 260.5C470.261 264.385 468.927 268.052 467 271.5C455.039 285.797 442.705 299.797 430 313.5C425.886 317.129 421.719 320.629 417.5 324C405.721 336.446 393.554 348.613 381 360.5C380.667 361.833 380.333 363.167 380 364.5C373.295 372.371 366.128 379.704 358.5 386.5C355.227 387.585 351.894 387.752 348.5 387C344.952 385.059 341.286 383.393 337.5 382C333.271 376.099 329.437 369.932 326 363.5C326.077 359.771 325.91 356.104 325.5 352.5C333.03 342.215 340.697 332.715 348.5 324C346.314 323.396 346.148 322.23 348 320.5C349 319.833 350 319.167 351 318.5C350.205 321.855 351.372 322.355 354.5 320C370 303.167 386.167 287 403 271.5C415.354 257.313 427.521 242.98 439.5 228.5C445.481 223.177 452.481 220.677 460.5 221C463.767 218.871 467.101 217.038 470.5 215.5Z" fill="white"/>
</svg>
