<?xml version="1.0" encoding="UTF-8"?>
<!DOCTYPE svg PUBLIC "-//W3C//DTD SVG 1.1//EN" "http://www.w3.org/Graphics/SVG/1.1/DTD/svg11.dtd">
<svg xmlns="http://www.w3.org/2000/svg" version="1.1" width="1024px" height="1024px" style="shape-rendering:geometricPrecision; text-rendering:geometricPrecision; image-rendering:optimizeQuality; fill-rule:evenodd; clip-rule:evenodd" xmlns:xlink="http://www.w3.org/1999/xlink">
<g><path style="opacity:0.976" fill="#fefffe" d="M 698.5,269.5 C 695.833,269.833 695.833,270.167 698.5,270.5C 698.5,270.833 698.5,271.167 698.5,271.5C 697.167,271.833 697.167,272.167 698.5,272.5C 697.326,274.368 697.993,275.368 700.5,275.5C 698.884,277.416 699.218,278.916 701.5,280C 700.619,280.708 699.953,281.542 699.5,282.5C 698.167,282.833 698.167,283.167 699.5,283.5C 699.932,284.71 700.599,285.71 701.5,286.5C 701.577,287.75 702.244,288.583 703.5,289C 701.519,289.605 701.185,290.605 702.5,292C 700.211,296.644 696.544,298.311 691.5,297C 689.898,295.065 688.731,292.899 688,290.5C 686.933,289.809 685.766,289.309 684.5,289C 687.167,288.333 687.167,287.667 684.5,287C 684.833,286.667 685.167,286.333 685.5,286C 683.671,285.727 682.171,284.893 681,283.5C 680.667,283.833 680.333,284.167 680,284.5C 679.517,283.552 679.351,282.552 679.5,281.5C 674.481,281.818 671.481,279.485 670.5,274.5C 667.319,272.408 664.319,270.075 661.5,267.5C 655.267,269.683 648.933,270.017 642.5,268.5C 641.452,269.383 640.285,270.05 639,270.5C 636.939,270.765 634.773,270.432 632.5,269.5C 630.08,269.23 627.413,268.563 624.5,267.5C 623.001,266.506 621.334,266.506 619.5,267.5C 619.289,265.576 618.623,265.243 617.5,266.5C 616.293,265.811 614.959,265.645 613.5,266C 612.258,262.643 611.424,262.81 611,266.5C 609.414,265.624 607.914,264.624 606.5,263.5C 605.537,263.97 605.537,264.637 606.5,265.5C 605.833,265.5 605.167,265.5 604.5,265.5C 604.631,264.761 604.464,264.094 604,263.5C 602.951,264.517 601.784,264.684 600.5,264C 602.595,263.444 602.762,262.944 601,262.5C 600.098,262.743 599.265,263.077 598.5,263.5C 598.167,262.167 597.833,262.167 597.5,263.5C 596.603,264.598 595.77,264.598 595,263.5C 593.955,264.373 593.122,265.373 592.5,266.5C 591.167,266.833 591.167,267.167 592.5,267.5C 592.209,268.649 591.376,269.316 590,269.5C 587.294,268.99 584.627,268.323 582,267.5C 577.308,273.408 571.308,275.075 564,272.5C 549.827,275.722 535.661,278.889 521.5,282C 519.109,288.723 516.942,295.556 515,302.5C 515.185,312.827 515.185,323.161 515,333.5C 513.35,334.891 512.85,336.391 513.5,338C 509.848,339.208 508.848,341.375 510.5,344.5C 510.07,346.38 510.07,348.38 510.5,350.5C 510.473,353.807 510.473,357.807 510.5,362.5C 509.833,363.833 509.167,365.167 508.5,366.5C 509.025,367.192 509.692,367.692 510.5,368C 508.301,375.208 506.968,382.875 506.5,391C 509.463,398.43 512.296,405.93 515,413.5C 521.479,419.44 526.979,425.44 531.5,431.5C 533.879,432.846 535.212,434.513 535.5,436.5C 535.427,438.027 536.094,439.027 537.5,439.5C 541.464,444.847 540.13,449.013 533.5,452C 526.99,453.085 520.99,451.752 515.5,448C 510.023,447.464 504.689,446.297 499.5,444.5C 493.445,461.944 485.278,478.277 475,493.5C 472.237,500.858 469.07,508.025 465.5,515C 466.626,518.744 466.793,522.577 466,526.5C 462.461,539.784 458.128,552.784 453,565.5C 451.902,582.985 451.069,600.485 450.5,618C 451.311,630.325 453.145,642.491 456,654.5C 469.387,675.111 464.22,682.277 440.5,676C 438.959,673.084 437.293,670.251 435.5,667.5C 425.181,664.507 415.847,659.674 407.5,653C 368.963,622.113 345.13,582.28 336,533.5C 331.845,508.992 330.512,484.325 332,459.5C 333.49,448.998 335.324,438.832 337.5,429C 336.607,424.894 336.607,420.727 337.5,416.5C 339.102,413.731 340.102,410.731 340.5,407.5C 338.978,405.844 339.311,404.677 341.5,404C 340.941,403.275 340.608,402.442 340.5,401.5C 342.574,396.755 343.907,391.755 344.5,386.5C 344.392,385.558 344.059,384.725 343.5,384C 345.481,383.395 345.815,382.395 344.5,381C 346.907,373.27 349.241,365.437 351.5,357.5C 351.167,356.833 350.833,356.167 350.5,355.5C 353.015,346.451 355.849,337.451 359,328.5C 363.304,322.495 366.304,315.829 368,308.5C 370.269,304.962 372.269,301.295 374,297.5C 375.124,290.877 376.624,284.377 378.5,278C 377.544,274.606 377.211,271.106 377.5,267.5C 375.516,267.617 373.85,266.95 372.5,265.5C 370.902,266.485 369.235,266.651 367.5,266C 366.601,264.764 365.434,263.93 364,263.5C 358.514,265.031 353.181,264.697 348,262.5C 344.734,253.367 347.901,248.034 357.5,246.5C 356.666,237.17 359.166,228.836 365,221.5C 368.575,217.347 371.909,213.014 375,208.5C 377.299,192.571 377.965,176.571 377,160.5C 371.351,150.332 371.018,139.999 376,129.5C 380.877,126.479 385.21,127.146 389,131.5C 393.035,135.918 396.535,140.752 399.5,146C 402.833,146.333 406.167,146.667 409.5,147C 419.71,150.136 430.043,152.802 440.5,155C 444.26,156.071 447.26,155.071 449.5,152C 451.366,151.015 453.366,150.515 455.5,150.5C 495.116,154.85 534.782,158.683 574.5,162C 576.167,163 577.833,164 579.5,165C 583.421,165.203 587.255,165.703 591,166.5C 595.925,163.982 600.925,163.982 606,166.5C 609.791,169.318 613.291,172.484 616.5,176C 628.039,179.845 639.039,184.845 649.5,191C 654.25,194.667 656.75,199.501 657,205.5C 662.753,205.57 667.42,207.904 671,212.5C 681.741,228.649 690.908,245.649 698.5,263.5C 698.93,265.38 698.93,267.38 698.5,269.5 Z M 617.5,266.5 C 618.623,265.243 619.289,265.576 619.5,267.5C 618.833,267.167 618.167,266.833 617.5,266.5 Z"/></g>
<g><path style="opacity:0.012" fill="#fefffe" d="M 597.5,263.5 C 597.833,263.5 598.167,263.5 598.5,263.5C 598.315,264.17 597.981,264.17 597.5,263.5 Z"/></g>
<g><path style="opacity:0.004" fill="#fefffe" d="M 604.5,265.5 C 604.5,265.833 604.5,266.167 604.5,266.5C 603.83,266.019 603.83,265.685 604.5,265.5 Z"/></g>
<g><path style="opacity:0.008" fill="#fefffe" d="M 606.5,265.5 C 607.833,266.167 607.833,266.167 606.5,265.5 Z"/></g>
<g><path style="opacity:0.016" fill="#fefffe" d="M 592.5,266.5 C 593.833,267.167 593.833,267.167 592.5,266.5 Z"/></g>
<g><path style="opacity:0.004" fill="#fefffe" d="M 604.5,266.5 C 605.833,267.167 605.833,267.167 604.5,266.5 Z"/></g>
<g><path style="opacity:0.008" fill="#fefffe" d="M 624.5,267.5 C 623.833,268.167 623.833,268.167 624.5,267.5 Z"/></g>
<g><path style="opacity:0.004" fill="#fefffe" d="M 632.5,269.5 C 632.5,269.833 632.5,270.167 632.5,270.5C 631.83,270.019 631.83,269.685 632.5,269.5 Z"/></g>
<g><path style="opacity:0.016" fill="#fefffe" d="M 698.5,269.5 C 699.833,270.167 699.833,270.167 698.5,269.5 Z"/></g>
<g><path style="opacity:0.004" fill="#fefffe" d="M 629.5,270.5 C 630.833,271.167 630.833,271.167 629.5,270.5 Z"/></g>
<g><path style="opacity:0.004" fill="#fefffe" d="M 632.5,270.5 C 633.167,270.5 633.5,270.833 633.5,271.5C 633.167,271.167 632.833,270.833 632.5,270.5 Z"/></g>
<g><path style="opacity:0.004" fill="#fefffe" d="M 633.5,271.5 C 634.833,272.167 634.833,272.167 633.5,271.5 Z"/></g>
<g><path style="opacity:0.004" fill="#fefffe" d="M 698.5,271.5 C 699.167,271.5 699.5,271.833 699.5,272.5C 699.167,272.167 698.833,271.833 698.5,271.5 Z"/></g>
<g><path style="opacity:0.012" fill="#fefffe" d="M 699.5,272.5 C 700.833,273.167 700.833,273.167 699.5,272.5 Z"/></g>
<g><path style="opacity:0.008" fill="#fefffe" d="M 700.5,274.5 C 701.833,275.167 701.833,275.167 700.5,274.5 Z"/></g>
<g><path style="opacity:0.016" fill="#fefffe" d="M 700.5,277.5 C 701.833,278.167 701.833,278.167 700.5,277.5 Z"/></g>
<g><path style="opacity:0.004" fill="#fefffe" d="M 702.5,278.5 C 703.833,279.167 703.833,279.167 702.5,278.5 Z"/></g>
<g><path style="opacity:0.007" fill="#fefffe" d="M 676.5,283.5 C 677.077,282.227 677.743,282.227 678.5,283.5C 678.03,284.463 677.363,284.463 676.5,283.5 Z"/></g>
<g><path style="opacity:0.063" fill="#fefffe" d="M 699.5,282.5 C 700.833,283.167 700.833,283.167 699.5,282.5 Z"/></g>
<g><path style="opacity:0.008" fill="#fefffe" d="M 702.5,282.5 C 703.833,283.167 703.833,283.167 702.5,282.5 Z"/></g>
<g><path style="opacity:0.004" fill="#fefffe" d="M 702.5,283.5 C 701.833,284.167 701.833,284.167 702.5,283.5 Z"/></g>
<g><path style="opacity:0.004" fill="#fefffe" d="M 703.5,284.5 C 704.833,285.167 704.833,285.167 703.5,284.5 Z"/></g>
<g><path style="opacity:0.012" fill="#fefffe" d="M 701.5,285.5 C 702.833,286.167 702.833,286.167 701.5,285.5 Z"/></g>
<g><path style="opacity:0.004" fill="#fefffe" d="M 683.5,290.5 C 684.833,291.167 684.833,291.167 683.5,290.5 Z"/></g>
<g><path style="opacity:0.012" fill="#fefffe" d="M 510.5,341.5 C 511.833,342.167 511.833,342.167 510.5,341.5 Z"/></g>
<g><path style="opacity:0.008" fill="#fefffe" d="M 510.5,343.5 C 511.833,344.167 511.833,344.167 510.5,343.5 Z"/></g>
<g><path style="opacity:0.004" fill="#fefffe" d="M 511.5,349.5 C 512.833,350.167 512.833,350.167 511.5,349.5 Z"/></g>
<g><path style="opacity:0.004" fill="#fefffe" d="M 510.5,350.5 C 510.833,350.5 511.167,350.5 511.5,350.5C 511.315,351.17 510.981,351.17 510.5,350.5 Z"/></g>
<g><path style="opacity:0.004" fill="#fefffe" d="M 512.5,354.5 C 513.833,355.167 513.833,355.167 512.5,354.5 Z"/></g>
<g><path style="opacity:0.016" fill="#fefffe" d="M 531.5,430.5 C 532.833,431.167 532.833,431.167 531.5,430.5 Z"/></g>
<g><path style="opacity:0.012" fill="#fefffe" d="M 535.5,435.5 C 536.833,436.167 536.833,436.167 535.5,435.5 Z"/></g>
<g><path style="opacity:0.012" fill="#fefffe" d="M 537.5,438.5 C 538.833,439.167 538.833,439.167 537.5,438.5 Z"/></g>
</svg>
