<?xml version="1.0" encoding="UTF-8"?>
<!DOCTYPE svg PUBLIC "-//W3C//DTD SVG 1.1//EN" "http://www.w3.org/Graphics/SVG/1.1/DTD/svg11.dtd">
<svg xmlns="http://www.w3.org/2000/svg" version="1.1" width="1024px" height="1024px" style="shape-rendering:geometricPrecision; text-rendering:geometricPrecision; image-rendering:optimizeQuality; fill-rule:evenodd; clip-rule:evenodd" xmlns:xlink="http://www.w3.org/1999/xlink">
<g><path style="opacity:0.2" fill="#fefffe" d="M 682.5,591.5 C 684.857,591.337 687.19,591.503 689.5,592C 690.833,592.667 690.833,593.333 689.5,594C 682.457,597.536 675.124,599.87 667.5,601C 671.5,599.333 675.5,597.667 679.5,596C 680.386,594.385 681.386,592.885 682.5,591.5 Z"/></g>
<g><path style="opacity:0.976" fill="#fefffe" d="M 693.5,599.5 C 694.5,599.5 695.5,599.5 696.5,599.5C 696.505,606.201 698.005,612.535 701,618.5C 702.951,625.753 704.451,633.086 705.5,640.5C 709.352,640.489 711.185,642.489 711,646.5C 711.361,649.525 711.861,652.525 712.5,655.5C 711.402,662.803 711.235,670.136 712,677.5C 714,689.499 716,701.499 718,713.5C 717.495,728.194 716.828,742.861 716,757.5C 717.368,760.186 718.701,762.853 720,765.5C 720.333,772.5 720.667,779.5 721,786.5C 727.558,791.615 730.224,798.281 729,806.5C 724.051,811.571 719.217,816.738 714.5,822C 711.567,823.271 708.901,824.938 706.5,827C 695.925,831.248 685.258,835.248 674.5,839C 671.374,839.759 668.207,840.259 665,840.5C 659.077,839.336 653.244,838.67 647.5,838.5C 639.998,844.07 631.998,844.903 623.5,841C 619.658,836.561 618.491,831.395 620,825.5C 621.791,822.048 623.958,818.882 626.5,816C 625.761,811.873 625.261,807.706 625,803.5C 619.618,781.871 614.452,760.205 609.5,738.5C 607.436,738.687 605.436,739.187 603.5,740C 584.778,753.678 564.112,758.011 541.5,753C 537.921,751.738 534.588,750.071 531.5,748C 526.146,747.471 520.813,747.638 515.5,748.5C 515.708,750.92 515.374,753.253 514.5,755.5C 515.84,756.688 516.507,758.188 516.5,760C 514.164,777.009 511.831,794.009 509.5,811C 516.138,818.2 518.305,826.7 516,836.5C 513.955,839.423 511.788,842.257 509.5,845C 498.253,849.044 486.587,851.211 474.5,851.5C 463.094,849.484 451.594,848.151 440,847.5C 430.185,850.239 421.518,848.239 414,841.5C 413.499,837.49 412.999,833.49 412.5,829.5C 408.315,828.444 407.648,826.277 410.5,823C 413.432,822.047 416.432,821.547 419.5,821.5C 418.297,817.139 418.63,812.973 420.5,809C 418.589,801.624 417.422,794.124 417,786.5C 413.55,741.846 415.883,697.513 424,653.5C 424.667,650.833 425.333,648.167 426,645.5C 428.056,644.417 429.389,642.75 430,640.5C 430.05,636.972 429.884,633.639 429.5,630.5C 430.706,627.921 432.039,625.421 433.5,623C 431.297,620.24 430.964,617.24 432.5,614C 450.849,622.213 470.016,626.713 490,627.5C 499.485,629.81 509.152,630.81 519,630.5C 533.548,630.186 548.048,629.186 562.5,627.5C 575.951,628.303 589.618,627.47 603.5,625C 628.997,620.376 653.997,614.043 678.5,606C 683.642,603.906 688.642,601.74 693.5,599.5 Z"/></g>
</svg>
