<?xml version="1.0" encoding="UTF-8"?>
<!DOCTYPE svg PUBLIC "-//W3C//DTD SVG 1.1//EN" "http://www.w3.org/Graphics/SVG/1.1/DTD/svg11.dtd">
<svg xmlns="http://www.w3.org/2000/svg" version="1.1" width="1024px" height="1024px" style="shape-rendering:geometricPrecision; text-rendering:geometricPrecision; image-rendering:optimizeQuality; fill-rule:evenodd; clip-rule:evenodd" xmlns:xlink="http://www.w3.org/1999/xlink">
<g><path style="opacity:0.984" fill="#fefefe" d="M 710.5,725.5 C 709.234,727.895 708.568,730.562 708.5,733.5C 708.885,738.02 709.552,742.354 710.5,746.5C 709.712,759.533 709.712,772.533 710.5,785.5C 712.693,799.746 713.86,814.08 714,828.5C 724.253,838.09 735.086,846.924 746.5,855C 751.284,858.58 754.284,863.247 755.5,869C 755.146,875.363 751.813,879.363 745.5,881C 729.453,885.749 713.453,885.416 697.5,880C 686.078,881.173 674.744,880.506 663.5,878C 648.455,874.288 639.622,864.788 637,849.5C 633.08,836.732 630.247,823.732 628.5,810.5C 628.995,803.823 629.329,797.156 629.5,790.5C 627.924,782.227 626.758,773.894 626,765.5C 620.798,757.754 616.631,749.421 613.5,740.5C 609.487,738.362 605.153,737.362 600.5,737.5C 600.739,735.533 600.406,733.699 599.5,732C 593.992,731.583 588.492,731.083 583,730.5C 580.001,730.481 577.168,731.148 574.5,732.5C 565.517,730.088 556.351,728.755 547,728.5C 539.184,729.216 531.351,729.716 523.5,730C 511.757,736.572 504.424,746.405 501.5,759.5C 499.589,759.574 498.422,760.574 498,762.5C 496.574,773.657 496.741,784.824 498.5,796C 498.084,799.492 497.751,802.992 497.5,806.5C 497.287,809.527 497.953,812.193 499.5,814.5C 498.721,820.418 499.888,825.751 503,830.5C 503.713,843.793 502.047,856.793 498,869.5C 495.37,876.135 491.203,881.635 485.5,886C 479.833,890.333 474.167,894.667 468.5,899C 446.899,907.752 424.566,910.419 401.5,907C 398.692,906.402 396.192,905.235 394,903.5C 395.384,898.988 396.718,894.321 398,889.5C 404.364,883.128 410.031,876.128 415,868.5C 418.946,864.555 423.446,861.389 428.5,859C 430.227,857.611 431.561,855.944 432.5,854C 428.307,833.214 426.641,812.214 427.5,791C 427.251,766.23 428.584,741.563 431.5,717C 428.775,712.774 427.442,708.107 427.5,703C 429.314,685.17 430.481,667.337 431,649.5C 427.88,654.954 423.713,659.454 418.5,663C 413.108,664.59 408.108,666.923 403.5,670C 394.27,671.375 385.436,670.208 377,666.5C 373.64,658.088 370.473,649.588 367.5,641C 368.309,639.216 368.976,637.383 369.5,635.5C 368.862,620.634 368.862,605.801 369.5,591C 369.738,586.454 371.071,582.287 373.5,578.5C 372.872,576.742 371.872,575.242 370.5,574C 372.797,572.84 372.464,571.84 369.5,571C 370.167,569 371.5,567.667 373.5,567C 372.5,566.5 371.5,566 370.5,565.5C 369.224,564.386 369.224,563.386 370.5,562.5C 371.688,560.656 372.688,558.823 373.5,557C 372.366,555.984 372.699,555.317 374.5,555C 374.167,554.667 373.833,554.333 373.5,554C 376.547,550.075 379.714,546.241 383,542.5C 386.574,534.347 390.907,526.68 396,519.5C 397.057,511.056 400.057,503.389 405,496.5C 411.333,487.5 417.667,478.5 424,469.5C 426.069,468.736 428.236,468.236 430.5,468C 448.791,443.857 472.124,426.524 500.5,416C 508.241,414.015 516.074,412.515 524,411.5C 538.12,413.503 552.453,415.503 567,417.5C 572.416,416.361 577.916,416.194 583.5,417C 588.505,418.837 593.505,420.67 598.5,422.5C 606.649,418.745 614.982,418.578 623.5,422C 632.42,425.125 640.42,429.792 647.5,436C 658.227,440.414 667.561,446.747 675.5,455C 681.625,459.456 687.458,464.289 693,469.5C 694.569,473.072 696.902,476.072 700,478.5C 701.667,482.833 703.333,487.167 705,491.5C 707,492.167 708.333,493.5 709,495.5C 711.075,503.392 713.742,511.059 717,518.5C 716.465,527.495 718.132,536.162 722,544.5C 725.08,545.199 727.414,546.866 729,549.5C 734.996,574.011 741.162,598.345 747.5,622.5C 747.205,625.432 745.705,627.432 743,628.5C 744.137,642.059 738.971,652.559 727.5,660C 722.178,661.908 716.845,661.908 711.5,660C 706.792,656.762 701.792,654.262 696.5,652.5C 696.167,653 695.833,653.5 695.5,654C 696.794,658.801 697.96,663.634 699,668.5C 700.318,665.059 702.818,663.725 706.5,664.5C 704.594,681.109 704.094,697.776 705,714.5C 705.667,717.167 706.333,717.167 707,714.5C 710.034,717.514 711.201,721.181 710.5,725.5 Z M 370.5,562.5 C 373.001,562.511 373.168,563.178 371,564.5C 370.536,563.906 370.369,563.239 370.5,562.5 Z"/></g>
<g><path style="opacity:0.485" fill="#c6c6c6" d="M 710.5,725.5 C 714.435,732.578 714.435,739.578 710.5,746.5C 709.552,742.354 708.885,738.02 708.5,733.5C 708.568,730.562 709.234,727.895 710.5,725.5 Z"/></g>
<g><path style="opacity:0.69" fill="#c6c6c6" d="M 501.5,759.5 C 503.125,778.058 502.458,796.391 499.5,814.5C 497.953,812.193 497.287,809.527 497.5,806.5C 497.751,802.992 498.084,799.492 498.5,796C 496.741,784.824 496.574,773.657 498,762.5C 498.422,760.574 499.589,759.574 501.5,759.5 Z"/></g>
</svg>
