<?xml version="1.0" encoding="UTF-8"?>
<!DOCTYPE svg PUBLIC "-//W3C//DTD SVG 1.1//EN" "http://www.w3.org/Graphics/SVG/1.1/DTD/svg11.dtd">
<svg xmlns="http://www.w3.org/2000/svg" version="1.1" width="1024px" height="1024px" style="shape-rendering:geometricPrecision; text-rendering:geometricPrecision; image-rendering:optimizeQuality; fill-rule:evenodd; clip-rule:evenodd" xmlns:xlink="http://www.w3.org/1999/xlink">
<g><path style="opacity:0.976" fill="#fefffe" d="M 683.5,602.5 C 687.31,602.379 690.477,603.712 693,606.5C 698.474,623.53 702.807,640.863 706,658.5C 709.849,665.551 713.016,672.884 715.5,680.5C 715.113,682.274 714.447,683.941 713.5,685.5C 715.604,694.733 717.937,703.9 720.5,713C 719.983,715.077 719.316,717.077 718.5,719C 725.224,724.908 724.891,730.575 717.5,736C 709.477,743.024 701.811,750.357 694.5,758C 681.115,767.356 666.449,774.023 650.5,778C 644.409,781.712 638.076,784.879 631.5,787.5C 628.536,786.528 625.536,786.362 622.5,787C 613.037,790.283 603.37,792.783 593.5,794.5C 590.93,793.786 588.43,792.786 586,791.5C 582.872,792.204 579.706,792.704 576.5,793C 574.382,793.26 572.716,794.26 571.5,796C 551.133,796.547 530.8,795.881 510.5,794C 504.517,792.001 498.517,790.001 492.5,788C 488.274,784.14 483.274,781.807 477.5,781C 464.323,777.765 450.99,775.431 437.5,774C 433.707,772.946 431.373,770.446 430.5,766.5C 427.415,765.27 424.249,764.27 421,763.5C 419.018,762.279 417.518,760.612 416.5,758.5C 414.201,757.365 412.034,756.032 410,754.5C 409.735,752.837 410.235,751.337 411.5,750C 409.264,749.266 407.931,747.766 407.5,745.5C 409.262,743.892 410.428,741.892 411,739.5C 411.227,733.296 411.727,727.129 412.5,721C 411.675,713.802 413.508,707.302 418,701.5C 418.131,692.398 419.131,683.398 421,674.5C 423.904,668.027 426.238,661.36 428,654.5C 429.152,652.351 430.652,650.518 432.5,649C 431.115,645.296 430.115,641.463 429.5,637.5C 430.408,631.041 434.074,628.541 440.5,630C 445.223,631.196 449.557,633.196 453.5,636C 458.845,636.067 463.179,638.067 466.5,642C 471.815,642.813 477.148,643.479 482.5,644C 484.167,645 485.833,646 487.5,647C 513.857,647.903 540.191,647.57 566.5,646C 576.673,644.874 586.339,642.04 595.5,637.5C 597.191,639.256 599.191,639.756 601.5,639C 612.406,635.586 623.406,632.586 634.5,630C 638.334,626.165 642.834,624.998 648,626.5C 652.847,623.429 658.014,622.262 663.5,623C 667,618.167 671.167,614 676,610.5C 677.396,606.639 679.896,603.972 683.5,602.5 Z"/></g>
</svg>
