<?xml version="1.0" encoding="UTF-8"?>
<!DOCTYPE svg PUBLIC "-//W3C//DTD SVG 1.1//EN" "http://www.w3.org/Graphics/SVG/1.1/DTD/svg11.dtd">
<svg xmlns="http://www.w3.org/2000/svg" version="1.1" width="1024px" height="1024px" style="shape-rendering:geometricPrecision; text-rendering:geometricPrecision; image-rendering:optimizeQuality; fill-rule:evenodd; clip-rule:evenodd" xmlns:xlink="http://www.w3.org/1999/xlink">
<g><path style="opacity:0.968" fill="#fefffe" d="M 654.5,597.5 C 661.739,596.245 665.573,599.245 666,606.5C 668.845,609.341 670.345,612.508 670.5,616C 673.558,616.458 676.558,616.124 679.5,615C 683.34,612.579 687.34,610.412 691.5,608.5C 695.701,610.14 697.701,612.974 697.5,617C 703.723,620.223 708.223,625.057 711,631.5C 717.697,638.532 724.697,645.198 732,651.5C 732.492,652.549 732.326,653.549 731.5,654.5C 733.885,656.884 735.885,659.55 737.5,662.5C 742.305,664.992 746.472,668.325 750,672.5C 751.742,681.467 753.242,690.467 754.5,699.5C 752.221,706.06 749.388,712.393 746,718.5C 736.067,730.754 725.901,742.92 715.5,755C 708.556,756.922 701.556,758.589 694.5,760C 680.186,770.936 664.852,772.436 648.5,764.5C 640.775,765.073 633.775,767.573 627.5,772C 621.515,773.19 617.182,771.023 614.5,765.5C 608.904,762.451 603.737,758.784 599,754.5C 597.675,749.771 596.175,745.105 594.5,740.5C 596.004,735.328 598.671,730.828 602.5,727C 597.523,728.983 592.523,731.316 587.5,734C 584.813,734.537 582.313,734.037 580,732.5C 565.969,735.703 552.136,739.703 538.5,744.5C 536.667,748.833 534.833,753.167 533,757.5C 531.22,758.594 529.386,759.594 527.5,760.5C 525.416,764.336 523.083,768.003 520.5,771.5C 515.711,773.263 510.878,774.93 506,776.5C 493.029,775.754 480.362,773.42 468,769.5C 455.756,771.305 443.59,772.138 431.5,772C 423.516,768.519 418.183,762.686 415.5,754.5C 403.512,753.173 393.512,748.173 385.5,739.5C 388.522,738.996 389.689,737.329 389,734.5C 384.418,730.455 379.251,727.289 373.5,725C 372.663,723.989 372.33,722.822 372.5,721.5C 374.39,721.703 375.89,721.037 377,719.5C 378.95,709.982 382.283,700.982 387,692.5C 394.36,683.806 402.36,675.806 411,668.5C 419.321,656.201 428.821,644.868 439.5,634.5C 444.19,636.674 449.023,638.341 454,639.5C 454.667,638.833 455.333,638.167 456,637.5C 458.382,641.466 460.715,641.466 463,637.5C 461.871,626.302 466.871,620.302 478,619.5C 482.5,620 485,622.5 485.5,627C 483.779,632.052 482.445,637.219 481.5,642.5C 481.903,645.761 482.57,648.928 483.5,652C 494.152,655.826 505.152,657.492 516.5,657C 532.676,660.538 549.01,661.205 565.5,659C 585.53,655.409 605.197,650.409 624.5,644C 632.094,640.065 639.427,635.732 646.5,631C 648.917,629.337 650.75,627.171 652,624.5C 651.945,616.836 651.945,609.169 652,601.5C 652.662,600.016 653.496,598.683 654.5,597.5 Z"/></g>
<g><path style="opacity:0.069" fill="#fefffe" d="M 448.5,629.5 C 449.919,628.549 451.585,628.216 453.5,628.5C 453.649,629.552 453.483,630.552 453,631.5C 451.67,630.418 450.17,629.751 448.5,629.5 Z"/></g>
</svg>
