<?xml version="1.0" encoding="UTF-8"?>
<!DOCTYPE svg PUBLIC "-//W3C//DTD SVG 1.1//EN" "http://www.w3.org/Graphics/SVG/1.1/DTD/svg11.dtd">
<svg xmlns="http://www.w3.org/2000/svg" version="1.1" width="1024px" height="1024px" style="shape-rendering:geometricPrecision; text-rendering:geometricPrecision; image-rendering:optimizeQuality; fill-rule:evenodd; clip-rule:evenodd" xmlns:xlink="http://www.w3.org/1999/xlink">
<g><path style="opacity:0.967" fill="#fefffe" d="M 689.5,595.5 C 693.061,595.365 695.895,596.698 698,599.5C 699.222,603.61 700.722,607.61 702.5,611.5C 700.547,617.059 698.547,622.559 696.5,628C 703.596,638.188 709.929,648.854 715.5,660C 714.263,662.537 712.93,665.037 711.5,667.5C 713.309,674.095 714.809,680.762 716,687.5C 718.868,690.94 720.535,694.94 721,699.5C 722.158,709.124 722.824,718.791 723,728.5C 728.883,735.335 731.716,743.335 731.5,752.5C 730.297,758.828 729.13,765.161 728,771.5C 704.721,787.759 678.888,795.426 650.5,794.5C 648.707,797.566 646.04,799.4 642.5,800C 632.166,800.376 621.999,799.209 612,796.5C 603.912,802.693 598.412,800.86 595.5,791C 596.087,788.267 596.087,785.434 595.5,782.5C 597.08,774.671 599.247,767.005 602,759.5C 603.191,756.466 605.358,754.799 608.5,754.5C 608.662,749.818 607.495,745.485 605,741.5C 580.553,744.653 556.22,743.653 532,738.5C 531.167,738.833 530.333,739.167 529.5,739.5C 531.733,742.423 532.733,745.757 532.5,749.5C 532.068,754.624 530.734,759.457 528.5,764C 532.692,771.41 531.525,777.91 525,783.5C 523.667,795.831 517.001,800.497 505,797.5C 472.182,800.612 440.682,795.112 410.5,781C 408.513,779.681 407.346,777.848 407,775.5C 405.415,767.732 404.248,759.899 403.5,752C 404.266,745.403 407.766,742.57 414,743.5C 415.698,731.853 417.031,720.186 418,708.5C 418.282,691.593 419.116,674.926 420.5,658.5C 415.832,658.019 413.165,655.519 412.5,651C 415.302,642.227 418.802,633.727 423,625.5C 424.833,623.667 426.667,621.833 428.5,620C 431.308,619.08 433.475,619.913 435,622.5C 434.546,626.783 434.046,631.117 433.5,635.5C 437.182,635.335 440.848,635.501 444.5,636C 452.51,638.284 460.51,640.45 468.5,642.5C 468.869,636.131 472.202,632.798 478.5,632.5C 481.597,632.383 484.264,633.383 486.5,635.5C 487.451,639.842 487.451,644.009 486.5,648C 503.44,650.944 520.44,651.277 537.5,649C 539.361,644.261 542.861,642.094 548,642.5C 557.476,644.302 566.976,644.969 576.5,644.5C 587.472,643.296 598.472,642.462 609.5,642C 620.956,639.891 631.956,636.725 642.5,632.5C 637.257,625.896 637.257,619.396 642.5,613C 645.861,612.663 649.194,612.163 652.5,611.5C 654.33,611.776 655.997,612.443 657.5,613.5C 659.155,618.316 659.988,623.316 660,628.5C 667.933,623.566 676.099,619.066 684.5,615C 685.224,610.232 685.39,605.398 685,600.5C 686.025,598.313 687.525,596.646 689.5,595.5 Z"/></g>
</svg>
