<?xml version="1.0" encoding="UTF-8"?>
<!DOCTYPE svg PUBLIC "-//W3C//DTD SVG 1.1//EN" "http://www.w3.org/Graphics/SVG/1.1/DTD/svg11.dtd">
<svg xmlns="http://www.w3.org/2000/svg" version="1.1" width="1024px" height="1024px" style="shape-rendering:geometricPrecision; text-rendering:geometricPrecision; image-rendering:optimizeQuality; fill-rule:evenodd; clip-rule:evenodd" xmlns:xlink="http://www.w3.org/1999/xlink">
<g><path style="opacity:0.932" fill="#fefffe" d="M 635.5,323.5 C 647.171,323.333 658.838,323.5 670.5,324C 672.519,324.45 674.352,325.283 676,326.5C 675.979,336.318 677.146,345.985 679.5,355.5C 678.715,364.117 674.049,368.951 665.5,370C 661.465,370.697 657.465,370.53 653.5,369.5C 641.148,371.348 628.815,373.015 616.5,374.5C 598.167,372.628 592.334,362.962 599,345.5C 601.389,340.446 604.555,335.946 608.5,332C 617.163,327.61 626.163,324.776 635.5,323.5 Z"/></g>
<g><path style="opacity:0.931" fill="#fefffe" d="M 528.5,331.5 C 542.597,331.003 556.597,331.836 570.5,334C 574.019,336.05 576.019,339.05 576.5,343C 575.205,350.672 575.205,358.339 576.5,366C 575.368,372.755 572.035,378.088 566.5,382C 557.833,383.333 549.167,384.667 540.5,386C 530.264,386.759 520.097,386.259 510,384.5C 507.516,386.809 505.183,386.476 503,383.5C 502.252,381.668 501.252,380.001 500,378.5C 499.831,371.809 499.331,365.142 498.5,358.5C 496.039,353.667 495.872,348.667 498,343.5C 501.082,340.141 504.582,337.308 508.5,335C 515.345,334.114 522.012,332.947 528.5,331.5 Z"/></g>
</svg>
