<?xml version="1.0" encoding="UTF-8"?>
<!DOCTYPE svg PUBLIC "-//W3C//DTD SVG 1.1//EN" "http://www.w3.org/Graphics/SVG/1.1/DTD/svg11.dtd">
<svg xmlns="http://www.w3.org/2000/svg" version="1.1" width="1024px" height="1024px" style="shape-rendering:geometricPrecision; text-rendering:geometricPrecision; image-rendering:optimizeQuality; fill-rule:evenodd; clip-rule:evenodd" xmlns:xlink="http://www.w3.org/1999/xlink">
<g><path style="opacity:0.945" fill="#fefffe" d="M 644.5,306.5 C 650.155,308.407 655.989,308.407 662,306.5C 669.909,306.486 677.243,308.486 684,312.5C 688.475,311.554 692.808,311.554 697,312.5C 698.512,311.743 699.846,310.743 701,309.5C 701.667,310.167 702.333,310.833 703,311.5C 707.058,308.368 710.225,309.035 712.5,313.5C 709.878,317.457 706.878,321.124 703.5,324.5C 703.118,328.423 701.785,331.923 699.5,335C 700.97,339.281 700.636,343.448 698.5,347.5C 697.624,348.251 696.624,348.751 695.5,349C 695.833,349.333 696.167,349.667 696.5,350C 695.143,353.215 693.643,356.382 692,359.5C 690.732,359.616 689.398,359.949 688,360.5C 686.102,364.628 683.935,368.628 681.5,372.5C 677.65,372.595 674.65,374.595 672.5,378.5C 669.727,379.97 666.894,381.303 664,382.5C 661.922,381.48 660.255,382.147 659,384.5C 655.71,383.128 652.544,383.462 649.5,385.5C 645.749,385.042 641.749,385.042 637.5,385.5C 631.497,384.309 625.664,382.642 620,380.5C 619.667,380.833 619.333,381.167 619,381.5C 617.07,379.781 615.236,377.947 613.5,376C 609.366,373.431 605.033,371.098 600.5,369C 596.515,369.464 592.682,368.63 589,366.5C 582.71,368.462 576.877,371.962 571.5,377C 569.783,378.559 567.783,379.392 565.5,379.5C 563.35,383.332 560.35,386.665 556.5,389.5C 548.337,395.278 539.337,398.111 529.5,398C 510.005,394.242 496.505,382.409 489,362.5C 487.986,357.418 486.653,352.418 485,347.5C 482.406,346.408 480.239,344.741 478.5,342.5C 477.359,341.575 477.359,340.741 478.5,340C 474.476,339.474 471.809,337.307 470.5,333.5C 470.919,332.328 471.585,331.328 472.5,330.5C 474.451,329.744 476.284,329.411 478,329.5C 484.813,332.009 491.646,331.843 498.5,329C 502.916,326.042 507.416,323.208 512,320.5C 514.466,321.11 516.966,320.776 519.5,319.5C 523.034,320.131 526.534,320.798 530,321.5C 532.996,319.509 535.829,319.509 538.5,321.5C 540.42,320.024 542.587,319.024 545,318.5C 552.874,319.064 559.874,321.73 566,326.5C 566.414,326.043 566.914,325.709 567.5,325.5C 574.191,329.088 580.691,332.755 587,336.5C 587.414,336.043 587.914,335.709 588.5,335.5C 589.906,336.951 591.406,338.284 593,339.5C 600.5,333.333 608,327.167 615.5,321C 623.959,316.399 632.793,312.566 642,309.5C 643.31,308.87 644.144,307.87 644.5,306.5 Z"/></g>
</svg>
