<?xml version="1.0" encoding="UTF-8"?>
<!DOCTYPE svg PUBLIC "-//W3C//DTD SVG 1.1//EN" "http://www.w3.org/Graphics/SVG/1.1/DTD/svg11.dtd">
<svg xmlns="http://www.w3.org/2000/svg" version="1.1" width="1024px" height="1024px" style="shape-rendering:geometricPrecision; text-rendering:geometricPrecision; image-rendering:optimizeQuality; fill-rule:evenodd; clip-rule:evenodd" xmlns:xlink="http://www.w3.org/1999/xlink">
<g><path style="opacity:0.722" fill="#fefffe" d="M 630.5,305.5 C 639.066,306.27 647.733,307.436 656.5,309C 660.901,311.106 665.234,313.272 669.5,315.5C 672.438,319.613 675.605,323.613 679,327.5C 679.923,329.034 680.423,330.701 680.5,332.5C 680.307,337.061 680.307,341.561 680.5,346C 679.833,346.333 679.167,346.667 678.5,347C 678.833,348.667 679.167,350.333 679.5,352C 677.488,360.378 675.154,368.712 672.5,377C 666.998,380.585 661.331,383.919 655.5,387C 652.257,388.018 648.924,388.518 645.5,388.5C 637.504,387.941 629.504,387.441 621.5,387C 613.472,384.814 610.138,379.647 611.5,371.5C 610.178,371.67 609.011,371.337 608,370.5C 606.5,365.667 605,360.833 603.5,356C 596.426,355.712 589.426,356.378 582.5,358C 583.447,360.188 583.447,362.522 582.5,365C 579.434,368.296 577.267,372.129 576,376.5C 571.574,380.092 568.074,384.425 565.5,389.5C 561.053,390.89 557.053,393.056 553.5,396C 542.456,399.292 531.456,399.125 520.5,395.5C 520.5,394.5 520.5,393.5 520.5,392.5C 517.484,392.159 514.818,390.993 512.5,389C 511.663,387.989 511.33,386.822 511.5,385.5C 509,384.877 506.5,384.543 504,384.5C 498.57,374.182 494.404,363.348 491.5,352C 492.202,346.19 493.536,340.523 495.5,335C 502.007,327.328 509.34,320.494 517.5,314.5C 520.827,312.278 524.494,311.112 528.5,311C 527.663,309.989 527.33,308.822 527.5,307.5C 538.116,306.665 548.782,308.165 559.5,312C 560.047,312.925 560.713,313.758 561.5,314.5C 568.487,315.987 574.154,319.487 578.5,325C 580.807,331.419 582.807,337.919 584.5,344.5C 583.529,345.962 583.862,347.295 585.5,348.5C 589.317,347.798 593.15,347.131 597,346.5C 598.652,346.86 600.318,347.193 602,347.5C 603.788,338.216 606.455,329.216 610,320.5C 612.971,317.94 615.804,315.273 618.5,312.5C 622.891,310.645 626.891,308.311 630.5,305.5 Z M 659.5,324.5 C 660.309,325.469 661.309,326.302 662.5,327C 661.226,327.977 661.226,328.811 662.5,329.5C 663.058,330.79 664.058,331.623 665.5,332C 664.713,333.313 665.046,334.48 666.5,335.5C 666.577,336.75 667.244,337.583 668.5,338C 665.258,338.283 664.924,339.117 667.5,340.5C 664.972,341.517 664.972,342.684 667.5,344C 665.043,345.154 665.043,346.488 667.5,348C 665.065,348.075 664.398,348.908 665.5,350.5C 663.862,351.705 663.529,353.038 664.5,354.5C 667.125,355.441 667.125,356.607 664.5,358C 664.848,360.055 664.181,362.055 662.5,364C 662.833,364.333 663.167,364.667 663.5,365C 662.5,365.333 661.5,365.667 660.5,366C 660.833,366.333 661.167,366.667 661.5,367C 659.833,369 658.167,371 656.5,373C 654.264,373.265 652.264,374.098 650.5,375.5C 649.508,375.328 648.842,375.662 648.5,376.5C 648.167,376.5 647.833,376.5 647.5,376.5C 646.368,377.354 645.035,377.354 643.5,376.5C 642.221,375.285 641.221,375.618 640.5,377.5C 637.124,376.538 633.458,375.371 629.5,374C 628.395,372.414 627.061,371.248 625.5,370.5C 626.833,370.167 626.833,369.833 625.5,369.5C 624.737,368.732 623.737,368.232 622.5,368C 623.5,367.667 624.5,367.333 625.5,367C 624,366.167 622.833,365 622,363.5C 620.334,364.34 620.167,363.84 621.5,362C 620.662,360.845 619.662,359.678 618.5,358.5C 619.833,358.167 619.833,357.833 618.5,357.5C 618.328,356.508 618.662,355.842 619.5,355.5C 619.047,354.542 618.381,353.708 617.5,353C 618.634,351.984 618.301,351.317 616.5,351C 618.619,350.658 618.953,349.825 617.5,348.5C 618.338,348.158 618.672,347.492 618.5,346.5C 619.833,346.167 619.833,345.833 618.5,345.5C 618.5,345.167 618.5,344.833 618.5,344.5C 617.167,343.167 617.167,341.833 618.5,340.5C 617.904,338.602 617.904,336.935 618.5,335.5C 618.072,333.595 618.738,331.762 620.5,330C 620.167,329.667 619.833,329.333 619.5,329C 621.087,328.138 622.754,327.471 624.5,327C 623.833,326.667 623.167,326.333 622.5,326C 623.984,325.338 625.317,324.504 626.5,323.5C 626.783,322.711 627.283,322.044 628,321.5C 628.977,322.774 629.811,322.774 630.5,321.5C 631.217,320.539 632.383,319.539 634,318.5C 637.759,318.986 641.259,318.986 644.5,318.5C 646.084,319.018 648.918,319.018 653,318.5C 655.096,319.715 654.929,320.549 652.5,321C 654.402,321.199 655.902,322.033 657,323.5C 658.461,322.117 659.294,322.451 659.5,324.5 Z M 545.5,318.5 C 545.833,319.833 546.167,319.833 546.5,318.5C 547.872,319.512 549.205,320.512 550.5,321.5C 549.167,321.833 549.167,322.167 550.5,322.5C 551.172,323.267 552.005,323.934 553,324.5C 554.84,323.167 555.34,323.334 554.5,325C 558.571,329.02 562.738,332.854 567,336.5C 567.383,335.944 567.883,335.611 568.5,335.5C 568.427,337.027 569.094,338.027 570.5,338.5C 570.481,340.06 570.148,341.56 569.5,343C 570.628,344.468 571.294,346.135 571.5,348C 571.56,354.276 569.893,359.943 566.5,365C 567.634,366.016 567.301,366.683 565.5,367C 565.833,367.333 566.167,367.667 566.5,368C 565.5,369.667 564.167,371 562.5,372C 562.833,372.333 563.167,372.667 563.5,373C 561.347,374.628 559.013,375.961 556.5,377C 556.833,377.333 557.167,377.667 557.5,378C 556.24,379.113 555.073,379.28 554,378.5C 552.488,379.257 551.154,380.257 550,381.5C 549.667,381.167 549.333,380.833 549,380.5C 541.496,384.84 533.996,384.84 526.5,380.5C 523.085,381.508 519.919,381.508 517,380.5C 514.52,379.193 513.02,377.193 512.5,374.5C 515.356,376.093 518.356,377.427 521.5,378.5C 522.776,377.386 522.776,376.386 521.5,375.5C 521.158,374.662 520.492,374.328 519.5,374.5C 516.125,372.973 513.125,370.807 510.5,368C 511.167,367.667 511.833,367.333 512.5,367C 511.29,365.961 510.29,364.794 509.5,363.5C 510.833,362.833 510.833,362.167 509.5,361.5C 509.5,361.167 509.5,360.833 509.5,360.5C 510.757,359.377 510.424,358.711 508.5,358.5C 508.833,357.833 509.167,357.167 509.5,356.5C 508.711,356.217 508.044,355.717 507.5,355C 508.053,353.122 509.053,351.622 510.5,350.5C 509.225,347.396 509.225,344.396 510.5,341.5C 510.328,340.508 510.662,339.842 511.5,339.5C 514.098,338.528 514.098,337.528 511.5,336.5C 514.613,333.784 516.613,330.784 517.5,327.5C 518.774,326.811 518.774,325.977 517.5,325C 518.469,323.242 519.636,322.742 521,323.5C 521.464,322.906 521.631,322.239 521.5,321.5C 522.5,320.833 523.5,320.167 524.5,319.5C 524.833,322.167 525.167,322.167 525.5,319.5C 531.824,319.638 538.49,319.305 545.5,318.5 Z M 550.5,322.5 C 550.5,322.167 550.5,321.833 550.5,321.5C 551.648,320.105 552.648,320.272 553.5,322C 552.552,322.483 551.552,322.649 550.5,322.5 Z M 568.5,335.5 C 567.287,332.775 565.454,330.441 563,328.5C 562.312,327.668 562.479,327.002 563.5,326.5C 565.453,327.761 567.453,328.927 569.5,330C 569.167,330.333 568.833,330.667 568.5,331C 570.036,332.599 570.536,334.433 570,336.5C 569.617,335.944 569.117,335.611 568.5,335.5 Z M 509.5,361.5 C 509.5,362.167 509.5,362.833 509.5,363.5C 507.067,363.214 507.067,362.548 509.5,361.5 Z"/></g>
<g><path style="opacity:0.03" fill="#fefffe" d="M 623.5,352.5 C 624.239,352.369 624.906,352.536 625.5,353C 624.119,359.02 623.453,358.853 623.5,352.5 Z"/></g>
<g><path style="opacity:0.005" fill="#fefffe" d="M 508.5,359.5 C 508.5,359.167 508.5,358.833 508.5,358.5C 510.424,358.711 510.757,359.377 509.5,360.5C 509.5,359.833 509.167,359.5 508.5,359.5 Z"/></g>
<g><path style="opacity:0.114" fill="#fefffe" d="M 644.5,364.5 C 646.296,365.793 647.963,367.293 649.5,369C 648.667,369.833 647.833,370.667 647,371.5C 646.616,368.94 645.783,366.606 644.5,364.5 Z"/></g>
</svg>
