<?xml version="1.0" encoding="UTF-8"?>
<!DOCTYPE svg PUBLIC "-//W3C//DTD SVG 1.1//EN" "http://www.w3.org/Graphics/SVG/1.1/DTD/svg11.dtd">
<svg xmlns="http://www.w3.org/2000/svg" version="1.1" width="1024px" height="1024px" style="shape-rendering:geometricPrecision; text-rendering:geometricPrecision; image-rendering:optimizeQuality; fill-rule:evenodd; clip-rule:evenodd" xmlns:xlink="http://www.w3.org/1999/xlink">
<g><path style="opacity:0.946" fill="#fefffe" d="M 461.5,113.5 C 464.271,113.421 466.937,113.921 469.5,115C 480.632,127.8 492.132,140.3 504,152.5C 511.922,146.253 520.588,141.253 530,137.5C 531,137.833 532,138.167 533,138.5C 536.108,136.394 539.441,134.728 543,133.5C 543.873,133.735 544.707,134.069 545.5,134.5C 548.33,131.171 551.83,128.838 556,127.5C 560.368,128.519 562.368,131.186 562,135.5C 546.844,143.656 536.344,155.822 530.5,172C 532.037,173.11 532.703,174.61 532.5,176.5C 556.635,173.714 580.301,168.881 603.5,162C 608.535,159.659 613.535,157.326 618.5,155C 621.192,154.57 623.859,154.737 626.5,155.5C 626.519,157.06 626.852,158.56 627.5,160C 627,161.5 626.5,163 626,164.5C 620.5,169.008 614.334,172.174 607.5,174C 605.045,176.383 604.045,179.049 604.5,182C 610.098,183.196 615.765,184.196 621.5,185C 623.044,185.29 624.377,185.956 625.5,187C 634.434,186.837 643.101,188.17 651.5,191C 654.22,194.055 656.553,197.388 658.5,201C 667.298,205.232 675.631,210.232 683.5,216C 694.896,221.698 706.229,227.364 717.5,233C 720.942,236.515 723.942,240.348 726.5,244.5C 734.826,252.747 743.659,260.414 753,267.5C 758.132,274.925 762.632,282.759 766.5,291C 765.198,294.134 762.865,295.968 759.5,296.5C 749.865,291.014 740.199,285.514 730.5,280C 722.602,278.701 715.102,276.201 708,272.5C 707.127,272.735 706.293,273.069 705.5,273.5C 691.972,269.201 678.306,265.368 664.5,262C 653.896,258.355 643.396,254.522 633,250.5C 632.5,250.667 632,250.833 631.5,251C 633.923,252.571 635.256,254.737 635.5,257.5C 633.488,256.986 631.488,256.82 629.5,257C 635.38,263.18 641.547,269.014 648,274.5C 651.219,279.739 649.719,283.073 643.5,284.5C 641.423,284.308 639.423,283.808 637.5,283C 632.009,278.754 626.342,274.754 620.5,271C 600.204,269.003 579.87,267.336 559.5,266C 551.506,264.723 543.506,263.556 535.5,262.5C 536.356,266.854 539.022,269.354 543.5,270C 547.477,273.254 548.811,277.254 547.5,282C 555.946,290.446 564.446,298.946 573,307.5C 573.833,309.167 574.667,310.833 575.5,312.5C 574.194,313.912 573.36,315.579 573,317.5C 570.599,318.602 568.099,318.769 565.5,318C 561.053,314.609 556.053,312.609 550.5,312C 541.321,307.384 531.821,303.551 522,300.5C 517.273,302.071 514.44,305.404 513.5,310.5C 514.833,314.167 514.833,317.833 513.5,321.5C 519.055,331.85 522.721,342.517 524.5,353.5C 524.01,358.255 521.343,360.421 516.5,360C 516.833,360.333 517.167,360.667 517.5,361C 515.213,364.248 512.213,365.082 508.5,363.5C 506.413,360.327 504.579,356.994 503,353.5C 500.294,351.129 497.961,348.463 496,345.5C 493.852,340.711 491.519,336.044 489,331.5C 485.479,338.198 480.312,342.865 473.5,345.5C 470.788,379.438 469.621,413.438 470,447.5C 473.817,474.103 480.151,500.103 489,525.5C 489.2,529.753 489.7,533.92 490.5,538C 490.043,538.414 489.709,538.914 489.5,539.5C 492.833,547.833 496.167,556.167 499.5,564.5C 499.291,565.086 498.957,565.586 498.5,566C 501.079,570.363 501.079,574.697 498.5,579C 495.405,580.98 492.405,580.813 489.5,578.5C 484.517,564.244 479.684,549.911 475,535.5C 474.573,543.303 470.74,545.803 463.5,543C 460.137,535.143 456.137,527.643 451.5,520.5C 448.684,521.13 446.018,520.464 443.5,518.5C 441.194,508.885 438.027,499.552 434,490.5C 433.378,486.971 433.545,483.471 434.5,480C 431.602,468.91 429.102,457.744 427,446.5C 424.19,450.453 422.19,454.787 421,459.5C 419.013,460.218 417.179,461.218 415.5,462.5C 414.713,465.848 413.879,469.182 413,472.5C 412.333,473.167 411.667,473.833 411,474.5C 410.667,482.5 410.333,490.5 410,498.5C 408.812,499.563 408.312,500.897 408.5,502.5C 403.368,504.599 399.535,503.265 397,498.5C 396.04,495.367 395.207,492.2 394.5,489C 392.976,487.806 391.81,486.306 391,484.5C 390.196,479.249 390.363,474.082 391.5,469C 390.355,464.776 389.022,460.609 387.5,456.5C 380.84,464.666 374.34,472.999 368,481.5C 362.695,485.799 358.528,490.966 355.5,497C 353.575,498.595 351.575,498.762 349.5,497.5C 346.797,493.561 345.63,489.227 346,484.5C 351.339,471.157 356.673,457.823 362,444.5C 363.611,418.942 369.111,394.275 378.5,370.5C 377.998,369.479 377.332,369.312 376.5,370C 370.5,374 364.5,378 358.5,382C 353.5,388.333 347.833,394 341.5,399C 338.571,399.777 335.737,399.61 333,398.5C 322.106,408.288 316.773,405.955 317,391.5C 326.594,371.899 339.928,355.232 357,341.5C 357.393,336.073 359.227,331.24 362.5,327C 361.167,326.333 359.833,326.333 358.5,327C 353.262,329.135 347.929,330.968 342.5,332.5C 341.558,332.392 340.725,332.059 340,331.5C 334.019,337.573 326.852,339.74 318.5,338C 315.833,336 315.833,334 318.5,332C 326.372,327.469 333.705,322.136 340.5,316C 347.765,312.031 354.765,307.698 361.5,303C 373.333,292.5 385.167,282 397,271.5C 396.543,268.753 396.043,265.92 395.5,263C 396.101,259.202 397.101,255.535 398.5,252C 392.932,251.786 390.932,249.119 392.5,244C 395.619,241.45 398.285,238.45 400.5,235C 402.856,234.845 405.189,234.845 407.5,235C 412.167,229.667 416.833,224.333 421.5,219C 406.101,216.099 390.768,212.765 375.5,209C 367.841,208.5 360.174,208.334 352.5,208.5C 350.862,205.427 351.195,202.594 353.5,200C 371.083,197.151 388.75,194.818 406.5,193C 407.167,191.667 408.167,190.667 409.5,190C 413.773,188.97 418.106,188.303 422.5,188C 428.297,183.838 434.63,182.171 441.5,183C 436.004,176.877 432.671,169.71 431.5,161.5C 433.542,156.656 436.876,155.489 441.5,158C 444.135,161.316 447.301,163.816 451,165.5C 457.381,164.363 463.548,162.53 469.5,160C 465.209,154.918 462.376,149.084 461,142.5C 460.762,134.431 459.929,126.431 458.5,118.5C 458.757,116.308 459.757,114.641 461.5,113.5 Z"/></g>
</svg>
