<?xml version="1.0" encoding="UTF-8"?>
<!DOCTYPE svg PUBLIC "-//W3C//DTD SVG 1.1//EN" "http://www.w3.org/Graphics/SVG/1.1/DTD/svg11.dtd">
<svg xmlns="http://www.w3.org/2000/svg" version="1.1" width="1024px" height="1024px" style="shape-rendering:geometricPrecision; text-rendering:geometricPrecision; image-rendering:optimizeQuality; fill-rule:evenodd; clip-rule:evenodd" xmlns:xlink="http://www.w3.org/1999/xlink">
<g><path style="opacity:0.963" fill="#fefffe" d="M 527.5,128.5 C 541.589,128.123 555.589,128.957 569.5,131C 572.04,133.205 574.207,135.705 576,138.5C 580.218,137.09 583.884,138.09 587,141.5C 592.959,151.284 590.959,158.95 581,164.5C 578.192,172.985 573.359,180.151 566.5,186C 570.14,189.442 570.474,193.276 567.5,197.5C 548.273,207.882 529.94,219.716 512.5,233C 504.754,234.64 497.088,236.64 489.5,239C 479.564,244.801 469.231,249.801 458.5,254C 444.438,255.736 430.438,257.903 416.5,260.5C 409.124,261.423 404.457,258.423 402.5,251.5C 392.761,251.232 383.094,250.398 373.5,249C 367.914,243.56 367.08,237.394 371,230.5C 372.643,228.023 374.476,225.69 376.5,223.5C 377.023,219.29 378.19,215.29 380,211.5C 386.701,201.126 394.534,191.626 403.5,183C 411.188,178.156 418.521,172.823 425.5,167C 432.327,165.253 438.66,162.42 444.5,158.5C 444.899,155.578 445.066,152.578 445,149.5C 447.034,146.294 448.867,142.96 450.5,139.5C 457.211,141.277 462.711,144.944 467,150.5C 471.242,148.085 475.742,146.251 480.5,145C 487.898,143.983 495.231,142.65 502.5,141C 504.167,139.333 505.833,137.667 507.5,136C 515.137,135.518 521.803,133.018 527.5,128.5 Z"/></g>
</svg>
