<?xml version="1.0" encoding="UTF-8"?>
<!DOCTYPE svg PUBLIC "-//W3C//DTD SVG 1.1//EN" "http://www.w3.org/Graphics/SVG/1.1/DTD/svg11.dtd">
<svg xmlns="http://www.w3.org/2000/svg" version="1.1" width="1024px" height="1024px" style="shape-rendering:geometricPrecision; text-rendering:geometricPrecision; image-rendering:optimizeQuality; fill-rule:evenodd; clip-rule:evenodd" xmlns:xlink="http://www.w3.org/1999/xlink">
<g><path style="opacity:0.981" fill="#fefffe" d="M 577.5,193.5 C 589.67,192.939 601.67,194.105 613.5,197C 622.531,197.282 631.531,197.949 640.5,199C 644.667,201.833 648.167,205.333 651,209.5C 656.42,221.197 660.92,233.197 664.5,245.5C 666.661,245.826 668.494,246.826 670,248.5C 671.506,252.503 672.006,256.503 671.5,260.5C 672.294,266.905 672.96,273.072 673.5,279C 672.401,285.066 671.734,290.733 671.5,296C 672.544,301.131 673.544,306.298 674.5,311.5C 670.297,322.147 668.297,332.98 668.5,344C 667.319,356.551 662.819,367.718 655,377.5C 644.089,403.149 629.256,426.316 610.5,447C 605.903,450.875 600.903,454.209 595.5,457C 591.167,461.333 586.833,465.667 582.5,470C 572.661,474.42 562.995,479.087 553.5,484C 541.675,486.794 530.342,485.627 519.5,480.5C 513.911,477.082 508.744,473.082 504,468.5C 501.139,469.921 498.139,470.921 495,471.5C 492.792,467.976 489.625,465.809 485.5,465C 471.304,463.379 457.138,461.546 443,459.5C 440.171,460.203 437.338,460.37 434.5,460C 427.193,457.013 420.693,452.847 415,447.5C 405.676,449.919 398.676,446.919 394,438.5C 385.853,420.902 386.853,403.902 397,387.5C 397.921,382.068 399.255,376.735 401,371.5C 414.532,350.427 424.865,327.76 432,303.5C 434.333,299.5 436.667,295.5 439,291.5C 444.477,286.354 449.644,280.854 454.5,275C 457.018,273.498 459.518,271.998 462,270.5C 470.924,257.248 480.924,244.915 492,233.5C 492.564,229.873 494.064,226.707 496.5,224C 514.355,213.905 532.688,204.572 551.5,196C 557.799,194.258 564.133,194.091 570.5,195.5C 572.982,194.933 575.316,194.266 577.5,193.5 Z"/></g>
</svg>
