<?xml version="1.0" encoding="UTF-8"?>
<!DOCTYPE svg PUBLIC "-//W3C//DTD SVG 1.1//EN" "http://www.w3.org/Graphics/SVG/1.1/DTD/svg11.dtd">
<svg xmlns="http://www.w3.org/2000/svg" version="1.1" width="1024px" height="1024px" style="shape-rendering:geometricPrecision; text-rendering:geometricPrecision; image-rendering:optimizeQuality; fill-rule:evenodd; clip-rule:evenodd" xmlns:xlink="http://www.w3.org/1999/xlink">
<g><path style="opacity:0.973" fill="#fefffe" d="M 476.5,422.5 C 476.5,421.167 475.833,420.5 474.5,420.5C 474.167,417.833 473.833,417.833 473.5,420.5C 472.609,419.89 471.609,419.557 470.5,419.5C 471.598,418.603 471.598,417.77 470.5,417C 468.273,416.879 466.44,416.046 465,414.5C 463.334,415.34 463.167,414.84 464.5,413C 463.915,411.698 463.249,410.531 462.5,409.5C 461.974,407.77 460.974,406.436 459.5,405.5C 459.167,404.167 458.833,404.167 458.5,405.5C 457.836,404.352 457.669,403.019 458,401.5C 453.979,399.323 450.312,396.656 447,393.5C 445.58,389.655 443.413,386.322 440.5,383.5C 440.833,382.833 441.167,382.167 441.5,381.5C 440.151,380.091 438.818,378.757 437.5,377.5C 437.64,375.876 436.973,374.71 435.5,374C 436.552,372.284 435.886,371.284 433.5,371C 433.833,370.667 434.167,370.333 434.5,370C 431.427,369.261 429.26,367.428 428,364.5C 427.536,365.094 427.369,365.761 427.5,366.5C 426.027,365.928 424.693,365.095 423.5,364C 424.167,363.667 424.833,363.333 425.5,363C 423.959,361.629 422.625,360.129 421.5,358.5C 422.167,358.5 422.5,358.167 422.5,357.5C 423.833,357.167 423.833,356.833 422.5,356.5C 422.5,355.833 422.167,355.5 421.5,355.5C 420.886,353.717 419.72,352.384 418,351.5C 417.944,348.22 417.111,345.22 415.5,342.5C 416.855,341.325 416.688,340.325 415,339.5C 413.274,333.963 412.274,328.296 412,322.5C 410.513,321.747 410.346,320.914 411.5,320C 410.438,316.035 409.105,311.868 407.5,307.5C 408.025,306.808 408.692,306.308 409.5,306C 408.455,304.384 407.455,302.717 406.5,301C 407.697,292.933 407.697,284.433 406.5,275.5C 407.704,273.097 408.038,270.764 407.5,268.5C 409.367,267.203 409.7,265.703 408.5,264C 409.893,260.142 410.893,256.475 411.5,253C 411.167,252.667 410.833,252.333 410.5,252C 410.767,249.31 412.101,246.81 414.5,244.5C 413.617,243.452 412.95,242.285 412.5,241C 412.869,237.781 412.869,234.448 412.5,231C 413.289,229.374 414.289,227.874 415.5,226.5C 414.374,224.05 415.041,222.05 417.5,220.5C 417.291,219.914 416.957,219.414 416.5,219C 418.777,215.878 421.777,212.878 425.5,210C 425.043,209.586 424.709,209.086 424.5,208.5C 429.181,201.488 434.848,195.488 441.5,190.5C 441.167,189.833 440.833,189.167 440.5,188.5C 441.655,183.905 442.488,179.238 443,174.5C 445.069,173.736 447.236,173.236 449.5,173C 450.184,169.078 452.518,167.578 456.5,168.5C 456.5,167.5 456.5,166.5 456.5,165.5C 460.471,166.242 463.304,164.909 465,161.5C 465.333,161.833 465.667,162.167 466,162.5C 470.353,161.612 474.186,159.779 477.5,157C 481.501,156.127 485.168,154.627 488.5,152.5C 493.38,153.347 497.713,155.347 501.5,158.5C 505.357,157.904 509.357,157.904 513.5,158.5C 516.921,156.36 519.421,153.36 521,149.5C 521.725,148.941 522.558,148.608 523.5,148.5C 533.387,150.541 542.887,153.541 552,157.5C 554.538,156.601 557.038,156.934 559.5,158.5C 562.494,157.252 565.494,157.252 568.5,158.5C 572.857,161.204 577.191,163.87 581.5,166.5C 581.05,170.224 582.717,172.391 586.5,173C 591.181,179.676 597.348,184.51 605,187.5C 606.211,192.075 608.044,196.242 610.5,200C 612.061,200.318 613.228,201.151 614,202.5C 615.667,201.833 617.333,201.167 619,200.5C 622.154,204.617 624.154,209.283 625,214.5C 628.41,219.238 630.91,224.405 632.5,230C 632.355,230.772 632.022,231.439 631.5,232C 634.897,241.423 638.064,250.923 641,260.5C 642.31,264.174 642.477,267.841 641.5,271.5C 642.719,273.768 644.385,275.601 646.5,277C 647.239,281.127 647.739,285.294 648,289.5C 649.154,290.743 650.488,291.743 652,292.5C 652.864,298.326 653.697,304.326 654.5,310.5C 653.653,312.061 653.986,313.561 655.5,315C 654.998,321.11 654.331,327.443 653.5,334C 654.167,336.667 654.833,339.333 655.5,342C 654.574,346.49 654.241,350.823 654.5,355C 655.833,355.667 656.833,356.667 657.5,358C 653.942,372.784 651.109,387.617 649,402.5C 648.624,405.975 647.291,408.975 645,411.5C 645.485,419.296 642.819,425.63 637,430.5C 634.743,434.683 632.743,439.016 631,443.5C 625.346,446.49 622.013,451.157 621,457.5C 620.333,458.167 619.667,458.833 619,459.5C 617.215,458.76 615.382,458.093 613.5,457.5C 612.204,459.336 611.37,461.336 611,463.5C 610.333,464.833 609.667,464.833 609,463.5C 608.506,465.134 608.34,466.801 608.5,468.5C 606.473,468.338 604.473,468.505 602.5,469C 600.959,471.04 599.626,473.207 598.5,475.5C 596.722,475.431 594.889,475.097 593,474.5C 592.311,475.357 591.478,476.023 590.5,476.5C 584.893,475.947 579.393,474.947 574,473.5C 573.667,473.833 573.333,474.167 573,474.5C 564.711,469.122 555.544,465.789 545.5,464.5C 544.446,464.68 543.446,465.013 542.5,465.5C 536.23,462.465 530.23,458.965 524.5,455C 522.473,454.502 520.473,454.669 518.5,455.5C 516.803,455.101 515.137,454.601 513.5,454C 507.054,450.694 501.221,446.527 496,441.5C 491.166,441.261 486.833,439.261 483,435.5C 482.086,436.654 481.253,436.487 480.5,435C 480.577,432.889 480.911,430.889 481.5,429C 479.855,426.656 478.188,424.49 476.5,422.5 Z"/></g>
<g><path style="opacity:0.013" fill="#fefffe" d="M 421.5,355.5 C 422.167,355.5 422.5,355.833 422.5,356.5C 422.5,356.833 422.5,357.167 422.5,357.5C 421.833,357.5 421.5,357.833 421.5,358.5C 420.167,357.5 420.167,356.5 421.5,355.5 Z"/></g>
<g><path style="opacity:0.004" fill="#fefffe" d="M 424.5,366.5 C 425.833,367.167 425.833,367.167 424.5,366.5 Z"/></g>
<g><path style="opacity:0.016" fill="#fefffe" d="M 427.5,366.5 C 428.833,367.167 428.833,367.167 427.5,366.5 Z"/></g>
<g><path style="opacity:0.008" fill="#fefffe" d="M 430.5,370.5 C 429.833,369.167 429.833,369.167 430.5,370.5 Z"/></g>
<g><path style="opacity:0.008" fill="#fefffe" d="M 430.5,370.5 C 431.167,370.5 431.5,370.833 431.5,371.5C 431.167,371.167 430.833,370.833 430.5,370.5 Z"/></g>
<g><path style="opacity:0.004" fill="#fefffe" d="M 431.5,371.5 C 432.833,372.167 432.833,372.167 431.5,371.5 Z"/></g>
<g><path style="opacity:0.004" fill="#fefffe" d="M 431.5,373.5 C 432.833,374.167 432.833,374.167 431.5,373.5 Z"/></g>
<g><path style="opacity:0.004" fill="#fefffe" d="M 437.5,377.5 C 436.833,378.167 436.833,378.167 437.5,377.5 Z"/></g>
<g><path style="opacity:0.031" fill="#fefffe" d="M 458.5,405.5 C 458.833,405.5 459.167,405.5 459.5,405.5C 459.315,406.17 458.981,406.17 458.5,405.5 Z"/></g>
<g><path style="opacity:0.016" fill="#fefffe" d="M 459.5,407.5 C 460.833,408.167 460.833,408.167 459.5,407.5 Z"/></g>
<g><path style="opacity:0.027" fill="#fefffe" d="M 462.5,409.5 C 461.833,410.167 461.833,410.167 462.5,409.5 Z"/></g>
<g><path style="opacity:0.004" fill="#fefffe" d="M 461.5,410.5 C 460.833,411.167 460.833,411.167 461.5,410.5 Z"/></g>
<g><path style="opacity:0.008" fill="#fefffe" d="M 464.5,417.5 C 463.833,416.167 463.833,416.167 464.5,417.5 Z"/></g>
<g><path style="opacity:0.004" fill="#fefffe" d="M 464.5,417.5 C 465.167,417.5 465.5,417.833 465.5,418.5C 465.167,418.167 464.833,417.833 464.5,417.5 Z"/></g>
<g><path style="opacity:0.004" fill="#fefffe" d="M 469.5,419.5 C 468.475,419.103 468.308,418.437 469,417.5C 469.464,418.094 469.631,418.761 469.5,419.5 Z"/></g>
<g><path style="opacity:0.004" fill="#fefffe" d="M 464.5,418.5 C 463.833,419.167 463.833,419.167 464.5,418.5 Z"/></g>
<g><path style="opacity:0.004" fill="#fefffe" d="M 465.5,418.5 C 466.833,419.167 466.833,419.167 465.5,418.5 Z"/></g>
<g><path style="opacity:0.004" fill="#fefffe" d="M 469.5,419.5 C 469.833,419.5 470.167,419.5 470.5,419.5C 470.315,420.17 469.981,420.17 469.5,419.5 Z"/></g>
<g><path style="opacity:0.004" fill="#fefffe" d="M 466.5,420.5 C 467.833,421.167 467.833,421.167 466.5,420.5 Z"/></g>
<g><path style="opacity:0.004" fill="#fefffe" d="M 473.5,420.5 C 473.833,420.5 474.167,420.5 474.5,420.5C 474.315,421.17 473.981,421.17 473.5,420.5 Z"/></g>
<g><path style="opacity:0.014" fill="#fefffe" d="M 476.5,422.5 C 476.103,423.525 475.437,423.692 474.5,423C 475.094,422.536 475.761,422.369 476.5,422.5 Z"/></g>
</svg>
