<?xml version="1.0" encoding="UTF-8"?>
<!DOCTYPE svg PUBLIC "-//W3C//DTD SVG 1.1//EN" "http://www.w3.org/Graphics/SVG/1.1/DTD/svg11.dtd">
<svg xmlns="http://www.w3.org/2000/svg" version="1.1" width="1024px" height="1024px" style="shape-rendering:geometricPrecision; text-rendering:geometricPrecision; image-rendering:optimizeQuality; fill-rule:evenodd; clip-rule:evenodd" xmlns:xlink="http://www.w3.org/1999/xlink">
<g><path style="opacity:0.978" fill="#fefffe" d="M 606.5,160.5 C 616.898,160.101 627.232,160.601 637.5,162C 642.885,164.388 647.385,167.888 651,172.5C 653.545,171.203 656.045,171.369 658.5,173C 661,176.167 663.5,179.333 666,182.5C 667.004,185.993 666.504,189.159 664.5,192C 667.716,199.844 668.882,208.011 668,216.5C 665.866,218.803 664.366,221.469 663.5,224.5C 666.528,230.903 667.361,237.569 666,244.5C 667.364,247.363 669.53,249.363 672.5,250.5C 673.23,252.341 673.897,254.175 674.5,256C 683.931,259.114 691.264,264.781 696.5,273C 702.492,275.659 706.325,280.159 708,286.5C 722.551,297.486 726.551,311.486 720,328.5C 708.872,346.152 693.039,356.985 672.5,361C 668.784,365.048 665.45,369.382 662.5,374C 659.891,373.232 657.391,372.732 655,372.5C 653.045,373.453 651.378,374.787 650,376.5C 647.475,385.937 644.641,395.27 641.5,404.5C 642.331,406.473 642.498,408.473 642,410.5C 640.426,411.984 639.093,413.651 638,415.5C 637.585,430.878 632.752,444.545 623.5,456.5C 615.944,462.561 608.944,469.061 602.5,476C 596.485,479.035 590.152,480.035 583.5,479C 572.963,474.545 562.296,470.212 551.5,466C 547.534,463.036 543.867,459.703 540.5,456C 521.093,446.128 502.093,435.461 483.5,424C 463.511,425.268 443.511,426.768 423.5,428.5C 421.833,428.333 420.167,428.167 418.5,428C 414.302,425.486 409.802,423.653 405,422.5C 402.343,423.077 399.843,424.077 397.5,425.5C 388.492,421.325 381.992,414.658 378,405.5C 377.333,399.419 375.833,393.586 373.5,388C 377.856,379.27 382.023,370.436 386,361.5C 397.667,349.833 409.333,338.167 421,326.5C 425.445,316.443 431.278,307.276 438.5,299C 435.071,294.254 433.404,288.921 433.5,283C 433.964,278.007 434.797,273.173 436,268.5C 431.99,264.48 428.99,259.813 427,254.5C 421.246,248.509 416.579,241.842 413,234.5C 412.358,232.238 411.525,230.071 410.5,228C 411.294,224.091 411.627,220.091 411.5,216C 409.74,213.971 408.573,211.804 408,209.5C 411.251,205.578 415.084,202.412 419.5,200C 429.489,196.698 439.656,194.198 450,192.5C 456.88,192.203 463.047,194.036 468.5,198C 481.754,198.382 494.254,201.548 506,207.5C 512.568,205.067 519.401,203.901 526.5,204C 532.274,198.916 537.941,193.583 543.5,188C 550.641,183.026 557.641,177.86 564.5,172.5C 578.072,166.638 592.072,162.638 606.5,160.5 Z"/></g>
</svg>
