<?xml version="1.0" encoding="UTF-8"?>
<!DOCTYPE svg PUBLIC "-//W3C//DTD SVG 1.1//EN" "http://www.w3.org/Graphics/SVG/1.1/DTD/svg11.dtd">
<svg xmlns="http://www.w3.org/2000/svg" version="1.1" width="1024px" height="1024px" style="shape-rendering:geometricPrecision; text-rendering:geometricPrecision; image-rendering:optimizeQuality; fill-rule:evenodd; clip-rule:evenodd" xmlns:xlink="http://www.w3.org/1999/xlink">
<g><path style="opacity:0.978" fill="#fefffe" d="M 604.5,163.5 C 614.87,163.709 623.037,168.042 629,176.5C 630.464,183.515 632.797,190.181 636,196.5C 635.557,208.484 635.557,220.484 636,232.5C 640.019,238.546 642.352,245.212 643,252.5C 650.068,259.291 658.235,264.457 667.5,268C 671.142,272.488 675.808,274.988 681.5,275.5C 690.538,273.875 699.372,271.542 708,268.5C 708.689,269.357 709.522,270.023 710.5,270.5C 720.811,265.008 731.644,261.008 743,258.5C 748.392,261.944 754.225,264.444 760.5,266C 765.446,270.157 768.112,275.49 768.5,282C 768.027,287.57 767.194,293.07 766,298.5C 760.881,307.072 756.548,316.072 753,325.5C 744.922,335.984 737.589,346.984 731,358.5C 726.685,363.649 722.185,368.649 717.5,373.5C 720.241,379.245 720.074,384.912 717,390.5C 703.789,404.609 691.289,419.276 679.5,434.5C 675.994,438.253 671.66,440.42 666.5,441C 657.623,453.55 647.623,465.217 636.5,476C 625.744,481.859 615.078,481.859 604.5,476C 602.438,472.36 599.605,469.527 596,467.5C 597.703,459.3 595.037,452.967 588,448.5C 587.667,445.167 587.333,441.833 587,438.5C 580.793,444.375 574.293,449.875 567.5,455C 563.251,456.126 558.918,456.792 554.5,457C 531.907,475.589 509.907,494.922 488.5,515C 483.905,516.457 480.239,519.124 477.5,523C 470.024,528.49 462.691,534.157 455.5,540C 442.546,548.39 428.879,549.724 414.5,544C 411.894,542.062 410.061,539.562 409,536.5C 406.141,523.398 410.141,513.065 421,505.5C 425.562,486.021 433.229,467.688 444,450.5C 447.966,445.533 452.299,440.866 457,436.5C 459.096,430.477 461.596,424.644 464.5,419C 459.939,412.768 455.772,406.268 452,399.5C 450.5,398 449,396.5 447.5,395C 442.87,395.031 438.204,395.198 433.5,395.5C 422.871,397.191 415.537,393.191 411.5,383.5C 400.709,380.345 397.209,373.345 401,362.5C 407.378,353.578 413.878,344.744 420.5,336C 419.374,332.256 419.207,328.423 420,324.5C 425.547,313.301 429.714,301.635 432.5,289.5C 429.832,288.901 427.998,287.234 427,284.5C 427.619,276.094 425.619,268.428 421,261.5C 420.145,252.741 422.145,244.741 427,237.5C 433.945,232.938 440.445,227.771 446.5,222C 449.674,220.275 453.007,218.942 456.5,218C 461.357,217.811 466.024,216.811 470.5,215C 475.167,214.333 479.833,214.333 484.5,215C 489.833,216.667 495.167,218.333 500.5,220C 504.144,222.964 506.977,226.464 509,230.5C 515.528,225.213 523.028,222.713 531.5,223C 538.05,213.873 545.717,205.873 554.5,199C 558.219,196.636 562.219,195.136 566.5,194.5C 566.755,191.984 567.589,189.65 569,187.5C 572.597,182.781 576.763,178.614 581.5,175C 589.402,171.435 597.069,167.602 604.5,163.5 Z"/></g>
</svg>
