<?xml version="1.0" encoding="UTF-8"?>
<!DOCTYPE svg PUBLIC "-//W3C//DTD SVG 1.1//EN" "http://www.w3.org/Graphics/SVG/1.1/DTD/svg11.dtd">
<svg xmlns="http://www.w3.org/2000/svg" version="1.1" width="1024px" height="1024px" style="shape-rendering:geometricPrecision; text-rendering:geometricPrecision; image-rendering:optimizeQuality; fill-rule:evenodd; clip-rule:evenodd" xmlns:xlink="http://www.w3.org/1999/xlink">
<g><path style="opacity:0.981" fill="#fefffe" d="M 570.5,136.5 C 585.081,138.552 599.748,140.052 614.5,141C 636.758,147.028 654.258,159.528 667,178.5C 676.826,197.958 676.826,217.291 667,236.5C 666.326,255.871 663.326,274.871 658,293.5C 656.848,301.142 656.514,308.809 657,316.5C 660.429,320.772 663.262,325.438 665.5,330.5C 671.851,336.017 677.684,342.017 683,348.5C 686.839,357.018 689.673,365.851 691.5,375C 691.306,376.86 690.972,378.693 690.5,380.5C 693.533,391.441 692.7,402.107 688,412.5C 681.272,419.08 675.105,426.246 669.5,434C 664.672,437.581 659.672,440.915 654.5,444C 641.227,447.467 628.227,451.801 615.5,457C 583.65,463.166 552.317,461.166 521.5,451C 503.809,444.496 488.476,434.496 475.5,421C 458.358,409.861 445.525,395.027 437,376.5C 432.794,364.927 431.627,353.094 433.5,341C 432.148,338.009 431.481,334.842 431.5,331.5C 435.18,314.071 437.347,296.405 438,278.5C 442.569,255.128 449.736,232.628 459.5,211C 459.167,210.667 458.833,210.333 458.5,210C 460.269,205.629 462.436,201.462 465,197.5C 473.909,186.589 484.076,177.089 495.5,169C 519.477,155.518 544.477,144.685 570.5,136.5 Z"/></g>
</svg>
