<?xml version="1.0" encoding="UTF-8"?>
<!DOCTYPE svg PUBLIC "-//W3C//DTD SVG 1.1//EN" "http://www.w3.org/Graphics/SVG/1.1/DTD/svg11.dtd">
<svg xmlns="http://www.w3.org/2000/svg" version="1.1" width="1024px" height="1024px" style="shape-rendering:geometricPrecision; text-rendering:geometricPrecision; image-rendering:optimizeQuality; fill-rule:evenodd; clip-rule:evenodd" xmlns:xlink="http://www.w3.org/1999/xlink">
<g><path style="opacity:0.946" fill="#fefffe" d="M 701.5,792.5 C 708.801,793.01 716.134,793.177 723.5,793C 734.961,806.163 735.628,819.663 725.5,833.5C 726,833.833 726.5,834.167 727,834.5C 729.083,832.96 731.416,831.96 734,831.5C 741.435,833.633 748.602,836.467 755.5,840C 758.249,845.086 762.082,849.252 767,852.5C 770.258,856.941 771.925,861.941 772,867.5C 777.258,874.46 778.924,882.127 777,890.5C 774.119,895.208 769.952,898.375 764.5,900C 754.684,902.867 744.85,903.034 735,900.5C 726.536,901.623 718.036,901.79 709.5,901C 700.238,899.464 691.238,897.131 682.5,894C 667.922,892.682 653.589,890.348 639.5,887C 636.027,886.681 633.194,885.181 631,882.5C 629.513,879.519 628.179,876.519 627,873.5C 626.333,865.833 626.333,858.167 627,850.5C 627.402,849.128 627.902,847.795 628.5,846.5C 625.833,844.833 623.167,843.167 620.5,841.5C 618.929,839.118 618.096,836.451 618,833.5C 615.213,831.953 612.88,829.953 611,827.5C 608.647,817.721 611.147,809.554 618.5,803C 624.236,800.459 630.07,798.292 636,796.5C 640.961,798.653 646.127,800.32 651.5,801.5C 653.269,803.557 655.269,805.39 657.5,807C 661.921,807.417 666.254,808.25 670.5,809.5C 672.374,809.61 673.874,808.944 675,807.5C 676.77,808.276 678.603,808.11 680.5,807C 683.595,800.943 688.595,797.61 695.5,797C 697.407,795.244 699.407,793.744 701.5,792.5 Z"/></g>
<g><path style="opacity:0.951" fill="#fefffe" d="M 505.5,796.5 C 513.605,794.879 518.938,797.879 521.5,805.5C 518.895,815.493 515.228,824.993 510.5,834C 511.022,836.97 512.522,837.804 515,836.5C 517.249,847.732 517.916,859.066 517,870.5C 514.915,872.273 514.415,874.273 515.5,876.5C 514.568,880.599 512.068,883.266 508,884.5C 507.771,887.458 506.604,889.958 504.5,892C 480.557,904.805 456.224,916.805 431.5,928C 420.313,930.754 408.979,931.754 397.5,931C 393.873,930.436 390.707,928.936 388,926.5C 387.373,917.725 386.373,909.059 385,900.5C 392.574,887.245 402.074,875.411 413.5,865C 409.928,859.422 409.594,853.588 412.5,847.5C 408.207,845.527 406.541,842.193 407.5,837.5C 407.667,835.5 407.833,833.5 408,831.5C 410.106,828.392 411.772,825.059 413,821.5C 419.597,819.366 425.93,816.699 432,813.5C 435.209,813.563 436.876,815.23 437,818.5C 442.711,822.292 449.045,824.292 456,824.5C 458.163,824.505 459.663,823.505 460.5,821.5C 459.626,819.253 459.292,816.92 459.5,814.5C 462.545,814.658 465.379,813.991 468,812.5C 469.309,814.976 471.142,816.976 473.5,818.5C 477.79,816.602 480.123,813.269 480.5,808.5C 482.65,806.851 484.65,805.018 486.5,803C 492.911,800.701 499.244,798.535 505.5,796.5 Z"/></g>
</svg>
