<?xml version="1.0" encoding="UTF-8"?>
<!DOCTYPE svg PUBLIC "-//W3C//DTD SVG 1.1//EN" "http://www.w3.org/Graphics/SVG/1.1/DTD/svg11.dtd">
<svg xmlns="http://www.w3.org/2000/svg" version="1.1" width="1024px" height="1024px" style="shape-rendering:geometricPrecision; text-rendering:geometricPrecision; image-rendering:optimizeQuality; fill-rule:evenodd; clip-rule:evenodd" xmlns:xlink="http://www.w3.org/1999/xlink">
<g><path style="opacity:0.957" fill="#fefffe" d="M 709.5,764.5 C 712.187,764.336 714.854,764.503 717.5,765C 720.8,770.266 724.8,774.932 729.5,779C 728.12,780.925 726.62,782.759 725,784.5C 724.737,788.895 725.237,793.228 726.5,797.5C 726.406,799.923 725.906,802.256 725,804.5C 720.827,809.006 716.327,813.173 711.5,817C 712.278,820.147 713.111,823.313 714,826.5C 716.46,829.428 719.46,830.095 723,828.5C 739,832.323 752,840.656 762,853.5C 764.523,859.971 767.19,866.304 770,872.5C 770.386,879.011 772.219,885.011 775.5,890.5C 775.202,897.337 771.535,901.837 764.5,904C 755.978,906.564 747.311,908.398 738.5,909.5C 725.486,908.872 712.486,908.039 699.5,907C 682.615,902.862 665.615,899.196 648.5,896C 643.42,894.196 638.42,892.196 633.5,890C 632.299,889.097 631.465,887.931 631,886.5C 630.207,881.789 629.207,877.122 628,872.5C 621.231,867.131 620.898,861.464 627,855.5C 627.667,851.5 627.667,847.5 627,843.5C 624.434,828.7 621.267,814.034 617.5,799.5C 619.337,796.869 618.837,794.869 616,793.5C 615.52,787.786 615.186,782.119 615,776.5C 616.062,775.101 617.395,774.101 619,773.5C 624.139,774.518 628.806,776.518 633,779.5C 642.271,776.57 651.604,775.236 661,775.5C 664.862,774.547 668.695,773.38 672.5,772C 684.574,770.436 696.574,768.436 708.5,766C 709.056,765.617 709.389,765.117 709.5,764.5 Z"/></g>
<g><path style="opacity:0.953" fill="#fefffe" d="M 417.5,840.5 C 420.129,839.667 421.463,837.833 421.5,835C 421.274,831.988 420.441,829.155 419,826.5C 415.884,824.556 413.717,821.889 412.5,818.5C 412.953,815.756 414.286,813.589 416.5,812C 415.041,802.296 413.041,792.796 410.5,783.5C 411.657,778.084 414.99,775.917 420.5,777C 436.428,789.027 454.428,794.193 474.5,792.5C 485.408,790.439 496.075,787.439 506.5,783.5C 511.95,783.784 514.95,786.617 515.5,792C 514.647,794.875 513.647,797.708 512.5,800.5C 514.882,807.255 514.882,814.089 512.5,821C 512.645,822.226 512.978,823.393 513.5,824.5C 512.363,826.607 511.363,828.773 510.5,831C 511.881,834.187 512.548,837.52 512.5,841C 510.858,850.519 510.192,860.019 510.5,869.5C 513.739,873.646 514.906,878.313 514,883.5C 509.269,891.234 503.436,898.067 496.5,904C 481.625,913.433 466.291,921.766 450.5,929C 433.766,928.017 417.099,928.351 400.5,930C 398.754,929.529 397.087,928.862 395.5,928C 392.516,924.736 389.349,921.57 386,918.5C 383.921,910.887 383.421,903.221 384.5,895.5C 378.965,888.198 379.965,881.698 387.5,876C 389.833,874.333 392.167,872.667 394.5,871C 393.461,867.449 394.461,864.449 397.5,862C 404.051,857.274 410.718,852.774 417.5,848.5C 418.205,845.911 418.205,843.244 417.5,840.5 Z"/></g>
<g><path style="opacity:0.019" fill="#fefffe" d="M 417.5,840.5 C 415.645,840.728 414.812,840.061 415,838.5C 415.995,839.066 416.828,839.733 417.5,840.5 Z"/></g>
</svg>
