<?xml version="1.0" encoding="UTF-8"?>
<!DOCTYPE svg PUBLIC "-//W3C//DTD SVG 1.1//EN" "http://www.w3.org/Graphics/SVG/1.1/DTD/svg11.dtd">
<svg xmlns="http://www.w3.org/2000/svg" version="1.1" width="1024px" height="1024px" style="shape-rendering:geometricPrecision; text-rendering:geometricPrecision; image-rendering:optimizeQuality; fill-rule:evenodd; clip-rule:evenodd" xmlns:xlink="http://www.w3.org/1999/xlink">
<g><path style="opacity:0.982" fill="#fefffe" d="M 623.5,398.5 C 628.757,398.756 633.757,399.923 638.5,402C 640.5,403.333 642.5,404.667 644.5,406C 646.067,409.41 646.901,412.91 647,416.5C 660.415,425.458 673.915,434.291 687.5,443C 696.443,452.28 704.276,462.447 711,473.5C 711.667,476.167 711.667,478.833 711,481.5C 705.785,492.26 699.785,502.594 693,512.5C 690.171,517.167 686.005,519.667 680.5,520C 679.313,521.019 678.313,522.186 677.5,523.5C 679.997,531.483 682.497,539.483 685,547.5C 691.763,556.03 696.096,565.697 698,576.5C 699.726,585.856 701.559,595.19 703.5,604.5C 702.552,607.934 701.385,611.267 700,614.5C 696.35,619.069 692.85,623.736 689.5,628.5C 672.485,640.007 654.152,648.84 634.5,655C 630.5,655.333 626.5,655.667 622.5,656C 614.114,659.181 605.781,662.514 597.5,666C 590.554,667.373 583.554,668.373 576.5,669C 559.167,669.667 541.833,669.667 524.5,669C 514.085,668.394 504.085,666.227 494.5,662.5C 494.67,661.178 494.337,660.011 493.5,659C 475.605,656.924 458.272,652.591 441.5,646C 439.208,644.71 437.208,643.043 435.5,641C 431.149,640.116 427.649,637.95 425,634.5C 423.302,621.958 425.136,609.958 430.5,598.5C 428.509,591.596 429.675,585.263 434,579.5C 435.029,572.019 436.696,564.686 439,557.5C 442.962,554.143 445.129,549.81 445.5,544.5C 440.667,544.625 436,543.792 431.5,542C 423.045,538.273 414.712,534.273 406.5,530C 398.673,525.511 393.006,519.178 389.5,511C 390.054,508.176 390.554,505.343 391,502.5C 401.085,481.429 413.919,462.262 429.5,445C 432.833,444 436.167,443 439.5,442C 443.056,437.941 447.056,434.441 451.5,431.5C 451.682,425.303 454.349,420.469 459.5,417C 462.557,414.277 465.89,411.944 469.5,410C 474.814,408.845 479.814,406.845 484.5,404C 491.087,402.343 497.754,401.676 504.5,402C 509.833,404.667 515.167,407.333 520.5,410C 522.243,416.075 526.243,419.741 532.5,421C 535.333,423.167 538.167,425.333 541,427.5C 547.507,425.575 553.507,426.575 559,430.5C 561.5,428.667 564,426.833 566.5,425C 569.23,424.272 571.897,424.438 574.5,425.5C 587.26,415.953 601.26,408.787 616.5,404C 618.54,401.664 620.873,399.831 623.5,398.5 Z"/></g>
</svg>
