<?xml version="1.0" encoding="UTF-8"?>
<!DOCTYPE svg PUBLIC "-//W3C//DTD SVG 1.1//EN" "http://www.w3.org/Graphics/SVG/1.1/DTD/svg11.dtd">
<svg xmlns="http://www.w3.org/2000/svg" version="1.1" width="1024px" height="1024px" style="shape-rendering:geometricPrecision; text-rendering:geometricPrecision; image-rendering:optimizeQuality; fill-rule:evenodd; clip-rule:evenodd" xmlns:xlink="http://www.w3.org/1999/xlink">
<g><path style="opacity:0.975" fill="#fefffe" d="M 671.5,417.5 C 672.741,419.878 672.074,421.711 669.5,423C 670.547,425.218 671.547,427.384 672.5,429.5C 672.821,431.048 673.821,431.715 675.5,431.5C 675.123,433.258 674.456,434.925 673.5,436.5C 685.008,445.531 694.675,456.197 702.5,468.5C 703.833,469.167 705.167,469.833 706.5,470.5C 710.397,466.918 714.23,463.251 718,459.5C 721.272,461.108 724.272,463.108 727,465.5C 728.505,467.298 728.672,469.132 727.5,471C 729.242,474.483 731.242,477.816 733.5,481C 731.403,484.768 728.903,488.268 726,491.5C 724.682,494.406 724.348,497.406 725,500.5C 727.047,508.394 730.714,515.394 736,521.5C 737.282,525.171 739.449,528.338 742.5,531C 742.539,532.245 742.205,533.578 741.5,535C 742.697,536.52 744.197,537.687 746,538.5C 746.062,543.664 746.895,548.831 748.5,554C 746.286,556.084 745.953,558.418 747.5,561C 746.868,565.43 745.035,569.263 742,572.5C 738.842,574.957 736.009,577.79 733.5,581C 729.5,582.333 725.5,583.667 721.5,585C 718.94,587.971 716.273,590.804 713.5,593.5C 712.914,593.291 712.414,592.957 712,592.5C 709.976,594.358 707.809,596.025 705.5,597.5C 704.816,600.419 703.482,602.919 701.5,605C 702.91,605.368 703.91,606.201 704.5,607.5C 703.269,614.041 700.602,619.875 696.5,625C 697.424,625.85 697.424,626.85 696.5,628C 694.623,628.183 692.623,629.017 690.5,630.5C 689.167,632.167 687.833,633.833 686.5,635.5C 684.117,634.538 683.117,635.538 683.5,638.5C 680.618,638.608 678.285,639.774 676.5,642C 670.599,647.564 665.099,653.398 660,659.5C 658.417,659.507 656.751,659.174 655,658.5C 654.275,660.949 653.275,663.283 652,665.5C 651.333,666.833 650.667,666.833 650,665.5C 649.626,666.416 649.126,667.25 648.5,668C 643.347,670.292 638.014,671.292 632.5,671C 631.691,674.033 630.024,674.866 627.5,673.5C 625.912,674.01 624.745,675.01 624,676.5C 622.333,675.833 620.667,675.167 619,674.5C 616.5,676.536 613.833,676.87 611,675.5C 609.732,678.484 607.732,679.484 605,678.5C 604.558,680.679 603.558,681.345 602,680.5C 597.157,682.873 592.157,683.54 587,682.5C 586.309,685.266 584.809,685.933 582.5,684.5C 581.522,684.977 580.689,685.643 580,686.5C 574.327,686.387 568.66,685.387 563,683.5C 562.333,684.167 561.667,684.833 561,685.5C 556.849,684.556 552.682,683.556 548.5,682.5C 544.43,682.525 540.43,682.858 536.5,683.5C 528.747,683.161 521.247,682.161 514,680.5C 511.867,681.353 509.867,681.686 508,681.5C 504.194,680.984 500.528,679.984 497,678.5C 494.32,678.985 491.653,679.318 489,679.5C 483.399,677.128 477.899,674.461 472.5,671.5C 471.319,669.865 471.319,668.198 472.5,666.5C 470.319,664.652 467.985,664.318 465.5,665.5C 464.18,663.73 462.68,663.397 461,664.5C 458.355,661.348 455.522,660.682 452.5,662.5C 450.684,660.559 448.684,659.892 446.5,660.5C 436.045,658.988 427.212,653.988 420,645.5C 419.7,643.934 420.2,642.601 421.5,641.5C 422.043,641.44 422.376,641.107 422.5,640.5C 421.066,639.77 419.9,638.77 419,637.5C 418.615,632.585 417.782,627.752 416.5,623C 414.976,621.806 413.81,620.306 413,618.5C 411.004,618.004 409.337,617.004 408,615.5C 406.612,616.554 405.112,616.72 403.5,616C 402.227,614.089 399.894,612.923 396.5,612.5C 396.167,611.5 395.5,610.833 394.5,610.5C 392.371,610.364 390.038,609.697 387.5,608.5C 387.167,607.167 386.833,607.167 386.5,608.5C 384.662,608.977 382.828,609.31 381,609.5C 380.915,607.915 380.749,606.582 380.5,605.5C 379.478,605.855 378.811,606.522 378.5,607.5C 377.778,607.082 377.278,606.416 377,605.5C 376.617,606.056 376.117,606.389 375.5,606.5C 371.532,605.932 367.532,604.432 363.5,602C 364.167,601.667 364.833,601.333 365.5,601C 363.833,600.667 362.167,600.333 360.5,600C 364.19,599.576 364.357,598.742 361,597.5C 349.682,597.849 343.848,592.349 343.5,581C 345.828,573.809 348.995,566.643 353,559.5C 356.675,556.824 358.509,553.491 358.5,549.5C 359.313,548.186 360.313,547.019 361.5,546C 361.167,545.667 360.833,545.333 360.5,545C 365.177,540.475 368.01,535.309 369,529.5C 371.403,528.521 372.236,527.021 371.5,525C 374.868,521.096 377.868,516.929 380.5,512.5C 378.825,508.327 378.159,504.161 378.5,500C 379.846,496.136 381.346,492.302 383,488.5C 384.205,487.929 385.372,487.262 386.5,486.5C 389.656,478.404 395.322,472.737 403.5,469.5C 404.375,467.227 406.042,466.227 408.5,466.5C 408.5,465.5 408.5,464.5 408.5,463.5C 411.47,463.254 412.803,461.588 412.5,458.5C 415.271,458.579 417.937,458.079 420.5,457C 422.037,455.89 422.703,454.39 422.5,452.5C 425.656,452.471 427.322,450.804 427.5,447.5C 431.768,446.4 434.601,443.734 436,439.5C 436.333,439.833 436.667,440.167 437,440.5C 438.411,438.35 439.245,436.016 439.5,433.5C 441.833,433.5 444.167,433.5 446.5,433.5C 446.5,432.5 446.5,431.5 446.5,430.5C 449.919,429.565 451.753,427.232 452,423.5C 453.758,422.531 454.258,421.364 453.5,420C 458.177,414.289 462.677,408.456 467,402.5C 466.68,399.54 466.68,396.54 467,393.5C 472.532,389.067 478.532,385.401 485,382.5C 486.677,383.516 488.343,384.516 490,385.5C 491.136,384.217 492.469,383.217 494,382.5C 503.523,385.089 513.023,387.756 522.5,390.5C 530.492,391.736 538.492,391.736 546.5,390.5C 547.386,389.675 547.719,388.675 547.5,387.5C 550.8,387.077 554.3,387.077 558,387.5C 563.344,385.666 568.844,384.333 574.5,383.5C 586.395,382.459 597.895,382.459 609,383.5C 614.753,383.155 618.586,380.322 620.5,375C 625.701,373.605 630.868,373.772 636,375.5C 640.163,373.559 644.163,373.559 648,375.5C 648.689,374.643 649.522,373.977 650.5,373.5C 654.374,377.163 658.541,377.496 663,374.5C 669.043,379.735 671.543,386.235 670.5,394C 671.167,395.667 671.833,397.333 672.5,399C 671.381,402.868 671.381,406.868 672.5,411C 670.109,412.309 670.109,413.309 672.5,414C 670.505,414.924 670.172,416.09 671.5,417.5 Z"/></g>
<g><path style="opacity:0.008" fill="#fefffe" d="M 671.5,417.5 C 671.369,416.761 671.536,416.094 672,415.5C 672.692,416.437 672.525,417.103 671.5,417.5 Z"/></g>
<g><path style="opacity:0.008" fill="#fefffe" d="M 672.5,422.5 C 673.833,423.167 673.833,423.167 672.5,422.5 Z"/></g>
<g><path style="opacity:0.004" fill="#fefffe" d="M 672.5,425.5 C 673.833,426.167 673.833,426.167 672.5,425.5 Z"/></g>
<g><path style="opacity:0.01" fill="#fefffe" d="M 672.5,429.5 C 672.369,428.761 672.536,428.094 673,427.5C 673.692,428.437 673.525,429.103 672.5,429.5 Z"/></g>
<g><path style="opacity:0.008" fill="#fefffe" d="M 675.5,430.5 C 674.833,429.167 674.833,429.167 675.5,430.5 Z"/></g>
<g><path style="opacity:0.004" fill="#fefffe" d="M 675.5,430.5 C 676.833,431.167 676.833,431.167 675.5,430.5 Z"/></g>
<g><path style="opacity:0.012" fill="#fefffe" d="M 375.5,606.5 C 374.833,607.167 374.833,607.167 375.5,606.5 Z"/></g>
<g><path style="opacity:0.014" fill="#fefffe" d="M 378.5,607.5 C 379.525,607.897 379.692,608.563 379,609.5C 378.536,608.906 378.369,608.239 378.5,607.5 Z"/></g>
<g><path style="opacity:0.008" fill="#fefffe" d="M 386.5,608.5 C 386.833,608.5 387.167,608.5 387.5,608.5C 387.315,609.17 386.981,609.17 386.5,608.5 Z"/></g>
<g><path style="opacity:0.012" fill="#fefffe" d="M 394.5,610.5 C 393.833,611.167 393.833,611.167 394.5,610.5 Z"/></g>
<g><path style="opacity:0.004" fill="#fefffe" d="M 396.5,612.5 C 395.833,613.167 395.833,613.167 396.5,612.5 Z"/></g>
<g><path style="opacity:0.024" fill="#fefffe" d="M 421.5,641.5 C 420.833,640.167 420.833,640.167 421.5,641.5 Z"/></g>
</svg>
