<?xml version="1.0" encoding="UTF-8"?>
<!DOCTYPE svg PUBLIC "-//W3C//DTD SVG 1.1//EN" "http://www.w3.org/Graphics/SVG/1.1/DTD/svg11.dtd">
<svg xmlns="http://www.w3.org/2000/svg" version="1.1" width="1024px" height="1024px" style="shape-rendering:geometricPrecision; text-rendering:geometricPrecision; image-rendering:optimizeQuality; fill-rule:evenodd; clip-rule:evenodd" xmlns:xlink="http://www.w3.org/1999/xlink">
<g><path style="opacity:0.982" fill="#fefffe" d="M 639.5,406.5 C 643.059,406.408 646.392,407.241 649.5,409C 667.301,422.87 685.301,436.203 703.5,449C 710.761,456.62 718.761,463.286 727.5,469C 736.461,476.959 736.795,485.293 728.5,494C 725.833,495 723.167,496 720.5,497C 713.011,502.911 705.345,508.577 697.5,514C 692.5,515.833 687.5,517.667 682.5,519.5C 679.843,518.534 677.176,518.034 674.5,518C 678.438,526.712 683.271,534.878 689,542.5C 690.564,545.462 690.731,548.462 689.5,551.5C 694.078,560.99 698.911,570.324 704,579.5C 705.114,583.95 704.28,587.95 701.5,591.5C 702.861,593.028 704.028,594.695 705,596.5C 705.873,604.121 707.373,611.621 709.5,619C 706.154,625.197 703.487,631.697 701.5,638.5C 695.488,642.507 689.155,646.007 682.5,649C 676.865,653.633 671.532,658.633 666.5,664C 663.289,665.153 659.956,665.82 656.5,666C 651.912,671.625 646.412,672.791 640,669.5C 636.569,671.261 633.403,673.428 630.5,676C 609.823,682.086 588.823,686.752 567.5,690C 553.167,690.667 538.833,690.667 524.5,690C 522.183,688.68 520.183,687.014 518.5,685C 494.572,685.534 470.906,683.367 447.5,678.5C 445.303,679.066 443.136,679.732 441,680.5C 430.47,677.069 420.803,672.069 412,665.5C 409.798,661.258 410.131,657.258 413,653.5C 413.812,644.542 415.312,635.709 417.5,627C 416.026,623.886 414.693,620.719 413.5,617.5C 414.681,615.137 414.681,612.803 413.5,610.5C 414.473,608.36 415.973,606.693 418,605.5C 418.142,591.741 419.142,578.074 421,564.5C 423.661,562.584 426.161,560.584 428.5,558.5C 419.674,552.423 410.007,547.923 399.5,545C 389.277,538.609 380.944,530.442 374.5,520.5C 376.421,513.212 379.754,506.712 384.5,501C 383.455,497.073 383.955,493.24 386,489.5C 391.809,478.026 400.309,469.192 411.5,463C 416.35,455.14 422.35,448.14 429.5,442C 432.956,441.82 436.289,441.153 439.5,440C 447.703,432.128 456.203,424.628 465,417.5C 466,418.5 467,419.5 468,420.5C 470.371,418.362 472.204,415.862 473.5,413C 484.767,410.846 495.267,412.679 505,418.5C 520.314,421.246 535.314,424.912 550,429.5C 563.398,427.232 576.898,426.065 590.5,426C 602.751,422.347 615.084,419.014 627.5,416C 630.255,411.059 634.255,407.892 639.5,406.5 Z"/></g>
</svg>
