<?xml version="1.0" encoding="UTF-8"?>
<!DOCTYPE svg PUBLIC "-//W3C//DTD SVG 1.1//EN" "http://www.w3.org/Graphics/SVG/1.1/DTD/svg11.dtd">
<svg xmlns="http://www.w3.org/2000/svg" version="1.1" width="1024px" height="1024px" style="shape-rendering:geometricPrecision; text-rendering:geometricPrecision; image-rendering:optimizeQuality; fill-rule:evenodd; clip-rule:evenodd" xmlns:xlink="http://www.w3.org/1999/xlink">
<g><path style="opacity:0.978" fill="#fefffe" d="M 636.5,404.5 C 641.234,404.134 645.401,405.467 649,408.5C 652.128,409.204 655.294,409.704 658.5,410C 662.814,412.66 667.481,414.327 672.5,415C 675.735,416.36 678.235,418.527 680,421.5C 679.697,426.975 679.197,432.475 678.5,438C 679.363,445.147 680.029,452.314 680.5,459.5C 680.663,466.02 679.663,472.353 677.5,478.5C 678.985,481.119 679.985,483.952 680.5,487C 679.517,490.112 678.85,493.278 678.5,496.5C 677.178,496.67 676.011,496.337 675,495.5C 674.722,503.906 672.556,511.739 668.5,519C 674.119,527.733 679.619,536.566 685,545.5C 685.749,550.332 687.083,554.999 689,559.5C 697.875,574.16 704.375,589.66 708.5,606C 708.333,608.5 708.167,611 708,613.5C 704.598,620.237 699.765,625.737 693.5,630C 688.328,633.085 683.328,636.419 678.5,640C 654.683,652.243 630.683,663.91 606.5,675C 603.147,675.747 599.98,675.247 597,673.5C 569.492,680.757 541.659,682.591 513.5,679C 510.213,678.412 507.88,676.579 506.5,673.5C 492.895,671.683 479.895,667.849 467.5,662C 461.298,660.962 455.298,659.295 449.5,657C 448.044,655.255 446.711,653.422 445.5,651.5C 440.739,649.706 436.573,647.04 433,643.5C 427.751,645.62 423.751,644.286 421,639.5C 419.151,627.57 419.651,615.737 422.5,604C 421.563,601.293 420.23,598.793 418.5,596.5C 423.049,583.733 427.883,571.066 433,558.5C 438.792,552.277 444.126,545.61 449,538.5C 449.667,529.167 449.667,519.833 449,510.5C 444.343,488.529 437.676,467.196 429,446.5C 427.998,440.172 430.665,436.506 437,435.5C 439.034,435.354 440.701,436.02 442,437.5C 448.461,432.742 455.628,429.242 463.5,427C 464.833,424.333 466.833,422.333 469.5,421C 474.5,420.333 479.5,420.333 484.5,421C 491.962,424.967 499.295,429.133 506.5,433.5C 508.916,438.001 511.583,442.334 514.5,446.5C 521.292,449.684 528.292,451.018 535.5,450.5C 539.946,451.613 543.612,453.946 546.5,457.5C 548.249,462.005 550.749,466.005 554,469.5C 554.912,473.639 556.246,477.639 558,481.5C 562.333,485.167 566.667,488.833 571,492.5C 572.96,500.068 577.794,502.901 585.5,501C 590.786,498.436 592.452,494.436 590.5,489C 593.955,480.036 597.788,471.203 602,462.5C 606.959,455.207 612.959,448.874 620,443.5C 623.694,431.768 627.694,420.101 632,408.5C 633.667,407.267 635.167,405.933 636.5,404.5 Z"/></g>
</svg>
