<?xml version="1.0" encoding="UTF-8"?>
<!DOCTYPE svg PUBLIC "-//W3C//DTD SVG 1.1//EN" "http://www.w3.org/Graphics/SVG/1.1/DTD/svg11.dtd">
<svg xmlns="http://www.w3.org/2000/svg" version="1.1" width="1024px" height="1024px" style="shape-rendering:geometricPrecision; text-rendering:geometricPrecision; image-rendering:optimizeQuality; fill-rule:evenodd; clip-rule:evenodd" xmlns:xlink="http://www.w3.org/1999/xlink">
<g><path style="opacity:0.98" fill="#fefffe" d="M 641.5,411.5 C 645.792,411.035 649.792,411.868 653.5,414C 662.19,423.682 672.356,431.516 684,437.5C 698.354,453.852 713.354,469.519 729,484.5C 731.503,487.502 733.503,490.835 735,494.5C 735.345,499.267 736.179,503.934 737.5,508.5C 735.642,512.948 732.308,515.781 727.5,517C 712.878,520.642 698.878,525.975 685.5,533C 680.354,537.792 678.521,543.625 680,550.5C 681.196,555.223 683.196,559.557 686,563.5C 686.25,566.85 687.083,570.017 688.5,573C 689.158,575.985 689.158,579.151 688.5,582.5C 689.894,586.957 692.06,590.957 695,594.5C 695.333,596.833 695.667,599.167 696,601.5C 698.933,607.968 701.267,614.634 703,621.5C 704.177,623.176 705.677,624.509 707.5,625.5C 705.003,627.826 702.336,629.993 699.5,632C 693.451,633.858 687.784,636.525 682.5,640C 679.693,643.298 677.693,646.965 676.5,651C 672.56,653.477 668.726,653.643 665,651.5C 656.639,655.967 647.806,657.967 638.5,657.5C 625.109,660.006 611.776,663.506 598.5,668C 569.999,672.28 541.333,673.947 512.5,673C 508.315,673.028 504.648,671.695 501.5,669C 483.267,667.79 465.267,665.123 447.5,661C 446.426,658.544 445.426,656.044 444.5,653.5C 440.917,651.64 437.251,649.973 433.5,648.5C 432.713,647.758 432.047,646.925 431.5,646C 423.738,646.542 418.238,643.375 415,636.5C 416.02,613.437 422.687,592.104 435,572.5C 434.452,567.836 435.285,563.336 437.5,559C 415.304,552.903 393.971,544.57 373.5,534C 371.182,530.718 370.849,527.218 372.5,523.5C 373.675,523.719 374.675,523.386 375.5,522.5C 380.612,511.959 387.445,502.626 396,494.5C 396.562,492.134 396.396,489.801 395.5,487.5C 399.446,480.387 404.946,474.72 412,470.5C 412.601,467.363 413.601,464.363 415,461.5C 417.833,459.333 420.667,457.167 423.5,455C 435.529,442.637 447.862,430.637 460.5,419C 465.653,418.919 470.32,417.419 474.5,414.5C 479.88,417.043 484.88,420.21 489.5,424C 494.261,426.587 499.261,428.587 504.5,430C 533.87,434.423 563.204,434.423 592.5,430C 603.354,425.159 614.687,422.159 626.5,421C 630.221,418.473 634.221,416.473 638.5,415C 639.71,413.961 640.71,412.794 641.5,411.5 Z"/></g>
</svg>
