<?xml version="1.0" encoding="UTF-8"?>
<!DOCTYPE svg PUBLIC "-//W3C//DTD SVG 1.1//EN" "http://www.w3.org/Graphics/SVG/1.1/DTD/svg11.dtd">
<svg xmlns="http://www.w3.org/2000/svg" version="1.1" width="1024px" height="1024px" style="shape-rendering:geometricPrecision; text-rendering:geometricPrecision; image-rendering:optimizeQuality; fill-rule:evenodd; clip-rule:evenodd" xmlns:xlink="http://www.w3.org/1999/xlink">
<g><path style="opacity:0.982" fill="#fefffe" d="M 616.5,661.5 C 616.167,660.167 615.833,660.167 615.5,661.5C 613.961,663.982 612.461,663.982 611,661.5C 610.583,662.756 609.75,663.423 608.5,663.5C 607.399,662.402 606.066,662.235 604.5,663C 605.044,663.717 605.711,664.217 606.5,664.5C 606.672,665.492 606.338,666.158 605.5,666.5C 605.5,665.833 605.167,665.5 604.5,665.5C 604.092,664.357 603.425,663.357 602.5,662.5C 601.304,662.846 601.304,663.346 602.5,664C 600.603,665.11 598.77,665.276 597,664.5C 595.899,666.394 594.566,667.061 593,666.5C 591.698,667.085 590.531,667.751 589.5,668.5C 588.833,668.5 588.5,668.833 588.5,669.5C 587.175,668.047 586.342,668.381 586,670.5C 585.667,670.167 585.333,669.833 585,669.5C 573.37,674.121 561.537,673.288 549.5,667C 536.83,666.4 524.163,665.733 511.5,665C 505.523,664.339 499.856,662.672 494.5,660C 477.488,660.629 460.821,658.629 444.5,654C 439.277,651.443 434.61,648.109 430.5,644C 427.149,643.717 424.149,642.55 421.5,640.5C 422.443,638.53 421.776,637.03 419.5,636C 422.167,634.667 422.167,633.333 419.5,632C 419.694,630.57 419.694,629.07 419.5,627.5C 420.145,626.354 420.978,625.354 422,624.5C 422.218,621.574 422.718,618.74 423.5,616C 422.833,615.667 422.167,615.333 421.5,615C 421.616,613.732 421.949,612.398 422.5,611C 420.072,609.838 419.405,608.171 420.5,606C 418.546,604.307 418.546,602.307 420.5,600C 419.57,598.806 418.903,597.473 418.5,596C 418.913,589.605 418.913,583.105 418.5,576.5C 418.242,564.31 419.575,552.31 422.5,540.5C 401.578,542.999 384.411,536.332 371,520.5C 370.333,516.5 370.333,512.5 371,508.5C 378.451,494.052 387.117,480.385 397,467.5C 397.8,463.36 400.133,460.36 404,458.5C 407.773,450.383 413.106,443.383 420,437.5C 424.15,429.619 430.483,424.285 439,421.5C 440.261,421.759 441.261,422.426 442,423.5C 451.823,417.007 461.99,411.174 472.5,406C 475.5,405.333 478.5,405.333 481.5,406C 483.977,407.643 486.31,409.476 488.5,411.5C 494.001,409.158 498.001,410.658 500.5,416C 509.024,416.741 517.357,418.408 525.5,421C 542.238,424.496 558.905,424.162 575.5,420C 585.157,416.725 594.823,413.559 604.5,410.5C 605.086,410.709 605.586,411.043 606,411.5C 611.555,406.945 617.388,402.779 623.5,399C 626.833,398.333 630.167,398.333 633.5,399C 640.324,401.909 646.658,405.576 652.5,410C 656.5,411.395 660.5,411.562 664.5,410.5C 666.328,411.795 668.328,412.795 670.5,413.5C 672.081,416.554 672.914,419.554 673,422.5C 678.377,428.208 683.377,434.208 688,440.5C 703.895,447.404 713.562,459.404 717,476.5C 719.905,478.093 723.071,479.093 726.5,479.5C 729.079,482.988 731.413,486.655 733.5,490.5C 733.039,493.013 733.039,495.68 733.5,498.5C 738.655,499.797 740.488,503.13 739,508.5C 734.726,512.355 730.226,515.855 725.5,519C 717.065,521.369 708.898,524.536 701,528.5C 695.266,530.412 689.433,531.912 683.5,533C 689.098,538.569 691.598,545.402 691,553.5C 695.81,561.84 697.476,570.84 696,580.5C 691.857,583.919 690.524,588.252 692,593.5C 699.094,602.345 700.428,612.011 696,622.5C 685.092,630.372 673.925,637.872 662.5,645C 660.167,645.333 657.833,645.667 655.5,646C 649.548,650.78 642.882,652.78 635.5,652C 629.661,656.253 623.327,659.42 616.5,661.5 Z"/></g>
<g><path style="opacity:0.004" fill="#fefffe" d="M 615.5,661.5 C 615.833,661.5 616.167,661.5 616.5,661.5C 616.315,662.17 615.981,662.17 615.5,661.5 Z"/></g>
<g><path style="opacity:0.022" fill="#fefffe" d="M 606.5,664.5 C 606.842,663.662 607.508,663.328 608.5,663.5C 608.591,665.698 607.925,666.031 606.5,664.5 Z"/></g>
<g><path style="opacity:0.008" fill="#fefffe" d="M 600.5,665.5 C 601.833,666.167 601.833,666.167 600.5,665.5 Z"/></g>
<g><path style="opacity:0.014" fill="#fefffe" d="M 604.5,665.5 C 604.5,665.833 604.5,666.167 604.5,666.5C 603.637,667.463 602.97,667.463 602.5,666.5C 602.957,665.702 603.624,665.369 604.5,665.5 Z"/></g>
<g><path style="opacity:0.012" fill="#fefffe" d="M 600.5,666.5 C 600.103,667.525 599.437,667.692 598.5,667C 599.094,666.536 599.761,666.369 600.5,666.5 Z"/></g>
<g><path style="opacity:0.004" fill="#fefffe" d="M 604.5,666.5 C 604.833,666.5 605.167,666.5 605.5,666.5C 605.315,667.17 604.981,667.17 604.5,666.5 Z"/></g>
<g><path style="opacity:0.004" fill="#fefffe" d="M 589.5,669.5 C 589.5,669.167 589.5,668.833 589.5,668.5C 592.167,668.833 592.167,669.167 589.5,669.5 Z"/></g>
<g><path style="opacity:0.004" fill="#fefffe" d="M 594.5,668.5 C 595.833,669.167 595.833,669.167 594.5,668.5 Z"/></g>
<g><path style="opacity:0.004" fill="#fefffe" d="M 588.5,669.5 C 588.833,669.5 589.167,669.5 589.5,669.5C 589.315,670.17 588.981,670.17 588.5,669.5 Z"/></g>
</svg>
