<?xml version="1.0" encoding="UTF-8"?>
<!DOCTYPE svg PUBLIC "-//W3C//DTD SVG 1.1//EN" "http://www.w3.org/Graphics/SVG/1.1/DTD/svg11.dtd">
<svg xmlns="http://www.w3.org/2000/svg" version="1.1" width="1024px" height="1024px" style="shape-rendering:geometricPrecision; text-rendering:geometricPrecision; image-rendering:optimizeQuality; fill-rule:evenodd; clip-rule:evenodd" xmlns:xlink="http://www.w3.org/1999/xlink">
<g><path style="opacity:0.981" fill="#fefffe" d="M 628.5,390.5 C 635.191,389.493 639.524,392.16 641.5,398.5C 644.5,397 647.5,395.5 650.5,394C 656.623,393.106 660.289,395.773 661.5,402C 660.033,408.48 656.533,413.647 651,417.5C 651.533,421.538 653.7,422.872 657.5,421.5C 669.06,427.548 679.56,435.215 689,444.5C 691.798,450.759 695.131,456.759 699,462.5C 702,464.5 705,466.5 708,468.5C 716.639,484.751 722.305,502.085 725,520.5C 730.091,526.947 734.425,533.947 738,541.5C 737.814,545.484 737.814,549.484 738,553.5C 741.214,557.195 741.88,561.195 740,565.5C 739.333,568.5 739.333,571.5 740,574.5C 741,575.167 742,575.833 743,576.5C 747.38,583.964 749.047,591.964 748,600.5C 747.215,602.286 746.049,603.786 744.5,605C 738.943,606.506 733.609,608.506 728.5,611C 723.716,610.529 718.883,610.029 714,609.5C 708.272,609.031 703.605,611.031 700,615.5C 696.238,622.258 691.405,628.091 685.5,633C 668.523,640.822 651.857,649.155 635.5,658C 632.007,659.004 628.841,658.504 626,656.5C 622.016,658.718 617.85,660.551 613.5,662C 598.316,665.128 582.983,667.294 567.5,668.5C 550.888,667.001 534.222,665.834 517.5,665C 510.875,664.293 504.375,663.127 498,661.5C 495.531,661.745 492.698,661.911 489.5,662C 472.474,656.335 455.474,651.502 438.5,647.5C 437.273,646.41 436.44,645.076 436,643.5C 435.216,638.113 435.382,632.78 436.5,627.5C 433.567,624.887 432.067,621.553 432,617.5C 430.786,619.049 429.286,620.215 427.5,621C 421.496,621.95 415.663,623.45 410,625.5C 399.865,624.672 390.031,622.506 380.5,619C 377.497,617.834 374.83,616.167 372.5,614C 368.016,613.429 364.182,611.596 361,608.5C 359.826,603.25 359.159,597.916 359,592.5C 353.768,580.56 350.268,568.227 348.5,555.5C 349.578,549.992 352.578,545.992 357.5,543.5C 364.448,543.784 370.281,541.118 375,535.5C 375.333,533.167 375.667,530.833 376,528.5C 378.421,526.406 381.088,524.74 384,523.5C 387.833,517 391.667,510.5 395.5,504C 394.446,502.612 394.28,501.112 395,499.5C 402.522,487.123 409.522,474.457 416,461.5C 420.221,455.946 425.054,451.112 430.5,447C 436.816,445.33 439.65,441.164 439,434.5C 440.667,431.5 442.333,428.5 444,425.5C 446.621,424.387 449.121,423.054 451.5,421.5C 454.161,415.837 456.827,410.17 459.5,404.5C 461.167,403.5 462.5,402.167 463.5,400.5C 468.033,399.808 472.533,399.474 477,399.5C 483.393,400.376 489.227,402.376 494.5,405.5C 494.08,407.674 494.08,409.674 494.5,411.5C 504.769,418.552 515.936,423.552 528,426.5C 536.76,428.639 545.593,431.472 554.5,435C 555.817,436.659 557.483,437.826 559.5,438.5C 563.297,437.395 567.13,437.395 571,438.5C 578.382,435.804 585.049,431.804 591,426.5C 591.333,424.833 591.667,423.167 592,421.5C 596.541,416.962 600.707,412.128 604.5,407C 605.5,406.667 606.5,406.333 607.5,406C 609.598,403.146 611.931,400.479 614.5,398C 619.534,395.953 624.2,393.453 628.5,390.5 Z"/></g>
</svg>
