<?xml version="1.0" encoding="UTF-8"?>
<!DOCTYPE svg PUBLIC "-//W3C//DTD SVG 1.1//EN" "http://www.w3.org/Graphics/SVG/1.1/DTD/svg11.dtd">
<svg xmlns="http://www.w3.org/2000/svg" version="1.1" width="1024px" height="1024px" style="shape-rendering:geometricPrecision; text-rendering:geometricPrecision; image-rendering:optimizeQuality; fill-rule:evenodd; clip-rule:evenodd" xmlns:xlink="http://www.w3.org/1999/xlink">
<g><path style="opacity:0.97" fill="#fefffe" d="M 429.5,627.5 C 439.646,629.495 449.313,632.995 458.5,638C 473.251,641.354 487.918,645.021 502.5,649C 510.138,649.976 517.805,650.643 525.5,651C 548.833,651.333 572.167,651.667 595.5,652C 597.167,652.833 598.833,653.667 600.5,654.5C 619.741,649.023 639.074,643.856 658.5,639C 659.954,635.453 662.62,633.62 666.5,633.5C 670.402,635.035 674.235,636.702 678,638.5C 685.346,637.881 692.513,636.714 699.5,635C 703,635.833 705.167,638 706,641.5C 715.934,667.973 723.434,695.139 728.5,723C 726.249,735.831 727.582,748.331 732.5,760.5C 730.423,763.703 730.09,767.036 731.5,770.5C 736.362,770.841 739.028,773.508 739.5,778.5C 738.837,782.341 736.837,785.175 733.5,787C 733.91,792.945 730.91,796.278 724.5,797C 721.341,800.082 717.675,802.416 713.5,804C 697.194,811.129 680.194,814.129 662.5,813C 659.437,812.426 656.771,811.092 654.5,809C 646.525,808.958 638.692,808.125 631,806.5C 626.628,807.504 622.461,809.004 618.5,811C 615.833,811.667 613.167,811.667 610.5,811C 608.038,808.023 605.371,805.357 602.5,803C 605.189,797.083 606.023,790.916 605,784.5C 604,783.833 603,783.167 602,782.5C 601.372,767.835 600.872,753.169 600.5,738.5C 586.32,742.036 571.987,744.869 557.5,747C 547.445,747.654 537.445,747.154 527.5,745.5C 525.167,745.833 522.833,746.167 520.5,746.5C 526.592,768.486 525.425,790.152 517,811.5C 516.052,813.57 514.552,815.07 512.5,816C 506.25,814.964 499.916,814.131 493.5,813.5C 482.143,813.965 470.809,814.631 459.5,815.5C 444.574,812.435 429.907,808.435 415.5,803.5C 410.907,799.275 410.241,794.441 413.5,789C 411.484,773.568 410.984,758.068 412,742.5C 413.671,726.12 415.671,709.786 418,693.5C 422.98,679.726 425.313,665.393 425,650.5C 426.577,648.924 427.744,647.091 428.5,645C 428.102,640.831 427.769,636.665 427.5,632.5C 427.902,630.7 428.569,629.033 429.5,627.5 Z"/></g>
</svg>
