<?xml version="1.0" encoding="UTF-8"?>
<!DOCTYPE svg PUBLIC "-//W3C//DTD SVG 1.1//EN" "http://www.w3.org/Graphics/SVG/1.1/DTD/svg11.dtd">
<svg xmlns="http://www.w3.org/2000/svg" version="1.1" width="1024px" height="1024px" style="shape-rendering:geometricPrecision; text-rendering:geometricPrecision; image-rendering:optimizeQuality; fill-rule:evenodd; clip-rule:evenodd" xmlns:xlink="http://www.w3.org/1999/xlink">
<g><path style="opacity:0.849" fill="#fefffe" d="M 607.5,284.5 C 612.902,284.015 615.069,286.348 614,291.5C 615.313,292.573 616.813,293.24 618.5,293.5C 622.44,292.464 626.274,291.131 630,289.5C 634.401,290.284 636.401,292.95 636,297.5C 642.623,295.419 649.29,293.419 656,291.5C 657.365,291.844 658.532,292.511 659.5,293.5C 662.715,292.027 666.049,291.527 669.5,292C 671.736,295.488 674.069,298.988 676.5,302.5C 679.848,306.003 683.682,309.003 688,311.5C 688.538,313.473 687.704,314.473 685.5,314.5C 680.817,315.069 676.15,314.403 671.5,312.5C 671.251,313.582 671.085,314.915 671,316.5C 670.5,317.667 669.667,318.5 668.5,319C 663.375,319.539 658.375,319.205 653.5,318C 656.79,322.412 659.123,327.245 660.5,332.5C 659.119,338.115 657.953,343.781 657,349.5C 654.383,355.863 651.883,362.196 649.5,368.5C 642.121,368.263 635.121,370.096 628.5,374C 635.158,381.459 636.158,389.626 631.5,398.5C 618.434,402.329 604.934,405.329 591,407.5C 578.638,407.131 571.138,400.964 568.5,389C 569.249,385.655 571.082,383.155 574,381.5C 574.667,378.833 574.667,376.167 574,373.5C 563.009,381.615 550.842,384.782 537.5,383C 536.167,382 534.833,381 533.5,380C 525.021,377.759 517.021,374.426 509.5,370C 506.319,363.437 503.986,356.603 502.5,349.5C 504.335,338.994 508.002,329.16 513.5,320C 513.167,319.5 512.833,319 512.5,318.5C 509.768,320.546 506.768,321.38 503.5,321C 501.909,318.867 499.909,317.201 497.5,316C 499.973,314.439 501.973,312.439 503.5,310C 507.5,309 511.5,308 515.5,307C 516.019,303.459 518.019,301.293 521.5,300.5C 527.513,303.635 533.846,304.969 540.5,304.5C 539.509,299.868 541.509,297.201 546.5,296.5C 549.13,297.378 551.797,298.045 554.5,298.5C 554.351,299.552 554.517,300.552 555,301.5C 554.74,296.686 556.573,293.019 560.5,290.5C 565.023,292.212 566.69,295.545 565.5,300.5C 573.486,299.984 575.486,303.15 571.5,310C 572.776,312.281 574.443,314.281 576.5,316C 580.521,316.803 584.354,317.969 588,319.5C 588.333,325.999 585.667,327.666 580,324.5C 580.335,327.255 581.335,329.922 583,332.5C 583.333,335.167 583.667,337.833 584,340.5C 584.317,334.344 587.484,331.677 593.5,332.5C 592.737,325.084 595.403,319.418 601.5,315.5C 599.458,315.935 597.458,315.269 595.5,313.5C 593.897,310.656 593.397,307.656 594,304.5C 597.092,299.91 599.425,294.91 601,289.5C 602.965,287.45 605.132,285.783 607.5,284.5 Z M 616.5,315.5 C 620.678,316.145 624.011,318.312 626.5,322C 629.767,323.82 633.1,323.986 636.5,322.5C 636.943,319.376 638.61,317.043 641.5,315.5C 644.491,320.828 647.491,326.161 650.5,331.5C 648.279,341.333 644.779,350.666 640,359.5C 634.385,362.931 628.385,365.598 622,367.5C 619.111,364.969 615.944,362.802 612.5,361C 610.26,360.023 607.927,359.523 605.5,359.5C 603.031,353.756 601.365,347.756 600.5,341.5C 603.022,337.115 605.022,332.448 606.5,327.5C 611.239,324.697 614.573,320.697 616.5,315.5 Z M 539.5,322.5 C 544.255,323.812 548.755,325.812 553,328.5C 555.151,328.235 556.818,327.235 558,325.5C 568.352,332.193 574.185,341.693 575.5,354C 575.019,357.772 573.852,361.272 572,364.5C 566.193,368.32 560.027,371.487 553.5,374C 541.848,374.37 530.848,371.87 520.5,366.5C 519.469,365.3 518.635,363.966 518,362.5C 517.001,356.313 516.168,350.147 515.5,344C 517.915,339.758 519.749,335.258 521,330.5C 522.353,329.315 523.52,327.981 524.5,326.5C 526.632,328.117 528.965,328.617 531.5,328C 534.621,326.694 537.287,324.86 539.5,322.5 Z"/></g>
</svg>
