<?xml version="1.0" encoding="UTF-8"?>
<!DOCTYPE svg PUBLIC "-//W3C//DTD SVG 1.1//EN" "http://www.w3.org/Graphics/SVG/1.1/DTD/svg11.dtd">
<svg xmlns="http://www.w3.org/2000/svg" version="1.1" width="1024px" height="1024px" style="shape-rendering:geometricPrecision; text-rendering:geometricPrecision; image-rendering:optimizeQuality; fill-rule:evenodd; clip-rule:evenodd" xmlns:xlink="http://www.w3.org/1999/xlink">
<g><path style="opacity:0.972" fill="#fefffe" d="M 702.5,623.5 C 703.598,624.397 703.598,625.23 702.5,626C 704.619,626.342 704.953,627.175 703.5,628.5C 702.167,628.833 702.167,629.167 703.5,629.5C 703.918,630.222 704.584,630.722 705.5,631C 704.5,631.333 703.5,631.667 702.5,632C 704.066,632.608 705.4,633.442 706.5,634.5C 703.833,634.833 703.833,635.167 706.5,635.5C 707.413,637.086 707.413,638.586 706.5,640C 707.167,640.333 707.833,640.667 708.5,641C 707.167,641.667 707.167,642.333 708.5,643C 707.833,643.333 707.167,643.667 706.5,644C 708.056,644.72 709.056,645.887 709.5,647.5C 706.833,647.833 706.833,648.167 709.5,648.5C 709.387,651.049 710.054,653.382 711.5,655.5C 711.291,656.086 710.957,656.586 710.5,657C 715.229,664.453 718.562,672.453 720.5,681C 719.349,682.823 718.182,684.656 717,686.5C 716.969,693.543 719.136,700.21 723.5,706.5C 726.326,713.785 728.16,720.785 729,727.5C 731.704,729.734 733.537,732.567 734.5,736C 734.167,736.333 733.833,736.667 733.5,737C 738.703,744.948 741.536,753.781 742,763.5C 746.132,765.471 746.632,768.138 743.5,771.5C 748.645,780.478 752.145,790.145 754,800.5C 757.158,805.661 760.324,810.828 763.5,816C 762.009,818.022 762.342,819.688 764.5,821C 762.548,824.354 760.881,827.854 759.5,831.5C 758.349,832.731 757.183,832.731 756,831.5C 755.276,833.959 753.943,834.959 752,834.5C 748.923,836.415 745.756,837.081 742.5,836.5C 738.833,834.5 735.167,832.5 731.5,830.5C 723.937,839.817 714.937,846.483 704.5,850.5C 703.121,853.293 701.288,855.626 699,857.5C 695.938,857.452 692.772,856.786 689.5,855.5C 685.676,856.064 682.176,855.064 679,852.5C 678.261,853.574 677.261,854.241 676,854.5C 673.204,853.069 670.37,851.736 667.5,850.5C 660.511,855.872 652.677,857.872 644,856.5C 642.075,857.88 640.241,859.38 638.5,861C 636.892,861.658 635.725,861.158 635,859.5C 634.592,861.41 633.425,862.41 631.5,862.5C 628.31,862.357 625.143,862.357 622,862.5C 618.757,861.731 615.59,860.731 612.5,859.5C 609.131,858.819 605.631,858.819 602,859.5C 599.53,857.269 597.197,857.269 595,859.5C 591.781,858.207 588.781,856.54 586,854.5C 585.667,854.833 585.333,855.167 585,855.5C 585.054,853.368 584.887,851.368 584.5,849.5C 583.483,852.028 582.316,852.028 581,849.5C 579.667,849.5 578.333,849.5 577,849.5C 575.445,851.146 573.779,851.479 572,850.5C 568.258,851.133 564.591,852.133 561,853.5C 560,853.167 559,852.833 558,852.5C 555.395,855.355 552.229,857.355 548.5,858.5C 547.059,857.696 545.559,857.029 544,856.5C 542.27,857.649 540.604,857.649 539,856.5C 537.209,858.513 535.875,858.513 535,856.5C 534.261,857.574 533.261,858.241 532,858.5C 530.144,857.264 528.311,857.264 526.5,858.5C 525.251,856.525 523.751,856.191 522,857.5C 519.657,856.873 517.49,855.873 515.5,854.5C 514.707,854.931 513.873,855.265 513,855.5C 510.555,853.922 507.888,852.922 505,852.5C 503.195,854.421 501.195,855.088 499,854.5C 498.592,852.59 497.425,851.59 495.5,851.5C 491.183,851.478 487.85,853.144 485.5,856.5C 484.914,856.291 484.414,855.957 484,855.5C 483.225,857.223 481.892,858.223 480,858.5C 477.945,857.308 475.945,857.308 474,858.5C 471.671,855.231 469.004,855.231 466,858.5C 464.247,857.373 462.413,856.373 460.5,855.5C 457.557,855.224 454.557,855.224 451.5,855.5C 449.309,853.647 446.975,853.313 444.5,854.5C 441.723,852.247 438.723,851.581 435.5,852.5C 434.522,852.023 433.689,851.357 433,850.5C 430.101,851.579 427.267,851.246 424.5,849.5C 421.283,850.76 418.116,852.093 415,853.5C 414.667,852.833 414.333,852.167 414,851.5C 412.215,852.24 410.382,852.907 408.5,853.5C 406.851,852.294 405.351,850.961 404,849.5C 402.602,850.051 401.268,850.384 400,850.5C 397.352,848.18 395.019,845.514 393,842.5C 392.021,836.217 390.188,830.05 387.5,824C 388.595,821.805 389.595,819.638 390.5,817.5C 389.571,815.678 390.238,814.345 392.5,813.5C 392.167,812.833 391.833,812.167 391.5,811.5C 392.694,809.109 393.694,806.776 394.5,804.5C 394.536,801.719 394.202,798.886 393.5,796C 393.95,794.715 394.617,793.548 395.5,792.5C 394.895,789.753 394.562,787.087 394.5,784.5C 394.529,782.971 395.196,781.804 396.5,781C 393.997,779.451 393.997,777.784 396.5,776C 395.692,775.692 395.025,775.192 394.5,774.5C 395.613,771.508 396.946,768.675 398.5,766C 398.167,765.667 397.833,765.333 397.5,765C 399.092,757.304 401.425,749.804 404.5,742.5C 404.32,741.446 403.987,740.446 403.5,739.5C 405.545,733.67 407.545,727.837 409.5,722C 408.643,721.311 407.977,720.478 407.5,719.5C 409.361,717.112 410.694,714.446 411.5,711.5C 412.319,708.534 412.319,705.367 411.5,702C 413.113,697.547 414.78,693.047 416.5,688.5C 415.556,684.721 416.222,681.221 418.5,678C 417.81,675.021 418.144,672.021 419.5,669C 419.355,668.228 419.022,667.561 418.5,667C 419.047,664.97 420.047,662.803 421.5,660.5C 420.718,658.671 421.384,657.171 423.5,656C 422.707,654.915 422.04,653.748 421.5,652.5C 422.126,649.194 423.459,645.861 425.5,642.5C 425.291,641.914 424.957,641.414 424.5,641C 427.023,635.197 427.69,629.197 426.5,623C 426.923,620.366 428.256,618.366 430.5,617C 429.903,615.938 429.57,614.772 429.5,613.5C 430.175,610.822 430.842,608.156 431.5,605.5C 439.303,606.973 446.969,607.973 454.5,608.5C 456.585,607.353 458.085,608.02 459,610.5C 461.927,609.958 464.76,610.625 467.5,612.5C 468.086,612.291 468.586,611.957 469,611.5C 471.821,613.28 474.488,614.614 477,615.5C 477.667,614.833 478.333,614.167 479,613.5C 482.275,615.316 485.608,616.982 489,618.5C 490.085,616.343 491.251,616.176 492.5,618C 494.698,618.373 496.865,618.873 499,619.5C 499.772,619.355 500.439,619.022 501,618.5C 503.587,621.034 506.253,621.034 509,618.5C 511.76,620.703 514.76,621.036 518,619.5C 519.333,622.167 520.667,622.167 522,619.5C 522.689,620.357 523.522,621.023 524.5,621.5C 526.412,621.512 528.412,621.179 530.5,620.5C 533.303,622.425 536.303,622.425 539.5,620.5C 542.303,622.425 545.303,622.425 548.5,620.5C 550.572,622.433 552.905,622.433 555.5,620.5C 556.5,621.167 557.5,621.833 558.5,622.5C 559.72,621.289 560.887,621.289 562,622.5C 562.667,621.833 563.333,621.167 564,620.5C 565.101,622.394 566.434,623.061 568,622.5C 570.57,621.991 572.903,620.991 575,619.5C 576.587,620.727 577.921,620.394 579,618.5C 579.667,619.167 580.333,619.833 581,620.5C 586.686,618.832 592.353,617.166 598,615.5C 602.848,616.505 607.348,615.505 611.5,612.5C 614.58,614.105 617.08,613.438 619,610.5C 619.667,611.167 620.333,611.833 621,612.5C 625.773,610.781 630.439,608.781 635,606.5C 637.312,605.869 639.812,605.869 642.5,606.5C 644.844,605.663 646.844,604.329 648.5,602.5C 652.992,605.27 657.658,605.77 662.5,604C 669.901,600.922 675.734,596.088 680,589.5C 681.604,590.649 683.27,590.649 685,589.5C 688.871,590.704 691.871,593.037 694,596.5C 695.977,602.405 697.643,608.405 699,614.5C 699.635,615.966 700.469,617.3 701.5,618.5C 700.975,619.192 700.308,619.692 699.5,620C 700.394,621.104 701.394,622.27 702.5,623.5 Z"/></g>
<g><path style="opacity:0.004" fill="#fefffe" d="M 702.5,622.5 C 703.833,623.167 703.833,623.167 702.5,622.5 Z"/></g>
<g><path style="opacity:0.043" fill="#fefffe" d="M 703.5,628.5 C 704.833,629.167 704.833,629.167 703.5,628.5 Z"/></g>
<g><path style="opacity:0.004" fill="#fefffe" d="M 706.5,634.5 C 707.833,635.167 707.833,635.167 706.5,634.5 Z"/></g>
<g><path style="opacity:0.004" fill="#fefffe" d="M 709.5,647.5 C 710.833,648.167 710.833,648.167 709.5,647.5 Z"/></g>
<g><path style="opacity:0.004" fill="#fefffe" d="M 495.5,852.5 C 496.833,853.167 496.833,853.167 495.5,852.5 Z"/></g>
</svg>
