<?xml version="1.0" encoding="UTF-8"?>
<!DOCTYPE svg PUBLIC "-//W3C//DTD SVG 1.1//EN" "http://www.w3.org/Graphics/SVG/1.1/DTD/svg11.dtd">
<svg xmlns="http://www.w3.org/2000/svg" version="1.1" width="1024px" height="1024px" style="shape-rendering:geometricPrecision; text-rendering:geometricPrecision; image-rendering:optimizeQuality; fill-rule:evenodd; clip-rule:evenodd" xmlns:xlink="http://www.w3.org/1999/xlink">
<g><path style="opacity:0.983" fill="#fefffe" d="M 534.5,170.5 C 544.839,170.334 555.172,170.5 565.5,171C 578.664,174.167 591.998,176.5 605.5,178C 608.893,178.798 612.226,179.798 615.5,181C 623.437,185.802 631.77,189.802 640.5,193C 649.462,197.292 657.295,203.126 664,210.5C 669.197,220.229 673.864,230.229 678,240.5C 679.599,258.789 679.932,277.122 679,295.5C 678.64,297.421 677.806,299.088 676.5,300.5C 674.269,302.11 672.269,303.943 670.5,306C 671.701,312.137 671.534,318.303 670,324.5C 665.208,336.915 660.042,349.082 654.5,361C 657.491,374.105 660.158,387.272 662.5,400.5C 661.855,401.646 661.022,402.646 660,403.5C 660.331,410.482 660.331,417.482 660,424.5C 658.298,431.32 656.298,437.987 654,444.5C 645.454,451.028 635.954,455.861 625.5,459C 623.377,461.799 620.71,463.799 617.5,465C 600.184,466.602 582.851,467.768 565.5,468.5C 562.065,467.616 558.732,466.449 555.5,465C 544.897,464.298 534.397,463.132 524,461.5C 510.444,464.646 498.611,461.48 488.5,452C 482.5,451.667 476.5,451.333 470.5,451C 461.679,449.54 458.012,444.54 459.5,436C 456.5,433 453.5,430 450.5,427C 445.058,426.868 441.225,424.368 439,419.5C 437.039,414.323 435.706,408.99 435,403.5C 429.145,390.75 425.145,377.417 423,363.5C 412.538,349.443 407.705,333.61 408.5,316C 409.763,301.203 410.596,286.37 411,271.5C 413.349,261.798 415.682,252.131 418,242.5C 429.011,223.324 443.178,206.824 460.5,193C 463.833,191.333 467.167,189.667 470.5,188C 480.927,188.241 489.593,184.574 496.5,177C 498.087,176.138 499.754,175.471 501.5,175C 512.571,172.91 523.571,171.41 534.5,170.5 Z"/></g>
</svg>
