<?xml version="1.0" encoding="UTF-8"?>
<!DOCTYPE svg PUBLIC "-//W3C//DTD SVG 1.1//EN" "http://www.w3.org/Graphics/SVG/1.1/DTD/svg11.dtd">
<svg xmlns="http://www.w3.org/2000/svg" version="1.1" width="1024px" height="1024px" style="shape-rendering:geometricPrecision; text-rendering:geometricPrecision; image-rendering:optimizeQuality; fill-rule:evenodd; clip-rule:evenodd" xmlns:xlink="http://www.w3.org/1999/xlink">
<g><path style="opacity:0.931" fill="#fefffe" d="M 545.5,210.5 C 544.448,210.351 543.448,210.517 542.5,211C 541.395,212.586 540.061,213.752 538.5,214.5C 537.5,215.5 536.5,216.5 535.5,217.5C 534.85,217.196 534.183,216.863 533.5,216.5C 532.047,218.185 530.714,219.851 529.5,221.5C 527.908,220.398 527.075,221.065 527,223.5C 526,223.5 525,223.5 524,223.5C 522.583,224.078 521.75,225.078 521.5,226.5C 516.894,229.069 512.561,231.902 508.5,235C 509.167,235.333 509.833,235.667 510.5,236C 509.099,236.41 507.766,236.91 506.5,237.5C 506.167,236.167 505.833,236.167 505.5,237.5C 503.459,238.869 501.626,240.536 500,242.5C 499.667,242.167 499.333,241.833 499,241.5C 496.606,243.723 494.439,246.057 492.5,248.5C 491.778,248.082 491.278,247.416 491,246.5C 490.751,247.624 490.251,248.624 489.5,249.5C 486.923,250.943 484.59,252.61 482.5,254.5C 481.761,254.369 481.094,254.536 480.5,255C 481.833,255.667 481.833,256.333 480.5,257C 474.623,258.276 469.29,260.609 464.5,264C 461.518,264.498 458.518,264.665 455.5,264.5C 455.778,266.346 455.111,267.68 453.5,268.5C 451.453,268.798 449.286,268.465 447,267.5C 445.188,267.493 443.688,268.16 442.5,269.5C 438.617,267.281 435.284,268.114 432.5,272C 430.965,272.496 429.465,272.33 428,271.5C 424.051,272.758 420.385,274.424 417,276.5C 414.54,275.402 412.04,274.402 409.5,273.5C 407.373,277.742 404.206,278.408 400,275.5C 396.333,275.833 392.667,276.167 389,276.5C 385.047,276.311 381.213,274.978 377.5,272.5C 376.522,272.977 375.689,273.643 375,274.5C 372.391,273.872 369.725,272.872 367,271.5C 365.667,272.167 364.333,272.833 363,273.5C 357.565,270.773 352.065,268.273 346.5,266C 342.565,259.462 338.898,252.795 335.5,246C 339.667,241.833 343.833,237.667 348,233.5C 350.923,236.653 353.923,236.32 357,232.5C 358.458,233.747 359.958,233.747 361.5,232.5C 362.478,232.977 363.311,233.643 364,234.5C 365.333,233.167 366.667,233.167 368,234.5C 368.333,233.833 368.667,233.167 369,232.5C 372.966,235.716 377.299,237.05 382,236.5C 380.593,234.302 380.093,231.968 380.5,229.5C 379.722,227.853 378.556,226.52 377,225.5C 376.821,222.447 376.321,219.447 375.5,216.5C 371.596,212.352 367.929,208.019 364.5,203.5C 365.194,196.753 366.361,190.086 368,183.5C 368.318,181.939 369.151,180.772 370.5,180C 370.167,179 369.833,178 369.5,177C 370.167,176.667 370.833,176.333 371.5,176C 371.835,174.836 371.835,173.503 371.5,172C 372.738,172.077 373.738,171.911 374.5,171.5C 373.624,170.749 372.624,170.249 371.5,170C 372.833,169.667 374.167,169.333 375.5,169C 376.641,168.259 376.641,167.425 375.5,166.5C 376.989,166.467 378.322,165.967 379.5,165C 378.549,164.282 378.383,163.449 379,162.5C 379.667,163.833 380.333,163.833 381,162.5C 381.786,159.417 383.619,157.251 386.5,156C 386.167,155.667 385.833,155.333 385.5,155C 387.618,154.74 389.284,153.74 390.5,152C 390.167,151.667 389.833,151.333 389.5,151C 391.112,150.28 392.612,150.446 394,151.5C 395.066,148.437 397.233,146.937 400.5,147C 402.087,143.973 403.754,141.14 405.5,138.5C 408.664,138.434 411.498,137.434 414,135.5C 415.393,136.615 416.893,137.115 418.5,137C 421.494,132.985 424.66,129.151 428,125.5C 428.414,125.957 428.914,126.291 429.5,126.5C 432.711,125.22 435.878,123.886 439,122.5C 441.412,123.475 443.412,122.808 445,120.5C 448.482,119.59 452.149,119.59 456,120.5C 456.833,119.5 457.667,118.5 458.5,117.5C 459.425,118.641 460.259,118.641 461,117.5C 463.391,119.766 465.891,121.933 468.5,124C 471.604,125.068 474.771,125.901 478,126.5C 487.982,122.945 498.149,122.612 508.5,125.5C 509.197,128.29 510.197,130.957 511.5,133.5C 513.146,134.779 514.313,136.445 515,138.5C 515.414,138.043 515.914,137.709 516.5,137.5C 518.829,142.08 521.163,146.747 523.5,151.5C 524.689,152.429 526.022,152.762 527.5,152.5C 527.039,160.574 530.039,166.907 536.5,171.5C 539.492,168.016 542.492,164.516 545.5,161C 550.789,158.035 555.456,154.368 559.5,150C 563.509,149.252 567.176,147.752 570.5,145.5C 572.042,146.747 573.542,146.747 575,145.5C 579.077,151.345 579.91,157.178 577.5,163C 579.22,165.839 578.554,167.839 575.5,169C 575.957,169.414 576.291,169.914 576.5,170.5C 572.966,178.199 568.799,185.532 564,192.5C 560.667,195.833 557.333,199.167 554,202.5C 553.167,204.5 552.333,206.5 551.5,208.5C 549.343,209.05 547.343,209.717 545.5,210.5 Z"/></g>
<g><path style="opacity:0.004" fill="#fefffe" d="M 373.5,165.5 C 374.833,166.167 374.833,166.167 373.5,165.5 Z"/></g>
<g><path style="opacity:0.004" fill="#fefffe" d="M 545.5,210.5 C 546.833,211.167 546.833,211.167 545.5,210.5 Z"/></g>
<g><path style="opacity:0.004" fill="#fefffe" d="M 545.5,211.5 C 544.833,212.167 544.833,212.167 545.5,211.5 Z"/></g>
<g><path style="opacity:0.008" fill="#fefffe" d="M 538.5,214.5 C 539.833,215.167 539.833,215.167 538.5,214.5 Z"/></g>
<g><path style="opacity:0.004" fill="#fefffe" d="M 535.5,217.5 C 536.833,218.167 536.833,218.167 535.5,217.5 Z"/></g>
<g><path style="opacity:0.008" fill="#fefffe" d="M 533.5,218.5 C 534.833,219.167 534.833,219.167 533.5,218.5 Z"/></g>
<g><path style="opacity:0.004" fill="#fefffe" d="M 529.5,221.5 C 530.833,222.167 530.833,222.167 529.5,221.5 Z"/></g>
<g><path style="opacity:0.004" fill="#fefffe" d="M 526.5,224.5 C 527.833,225.167 527.833,225.167 526.5,224.5 Z"/></g>
<g><path style="opacity:0.004" fill="#fefffe" d="M 522.5,225.5 C 523.833,226.167 523.833,226.167 522.5,225.5 Z"/></g>
<g><path style="opacity:0.004" fill="#fefffe" d="M 521.5,226.5 C 521.833,226.5 522.167,226.5 522.5,226.5C 522.315,227.17 521.981,227.17 521.5,226.5 Z"/></g>
<g><path style="opacity:0.012" fill="#fefffe" d="M 505.5,237.5 C 505.833,237.5 506.167,237.5 506.5,237.5C 506.315,238.17 505.981,238.17 505.5,237.5 Z"/></g>
<g><path style="opacity:0.004" fill="#fefffe" d="M 492.5,248.5 C 493.833,249.167 493.833,249.167 492.5,248.5 Z"/></g>
<g><path style="opacity:0.012" fill="#fefffe" d="M 482.5,254.5 C 483.833,255.167 483.833,255.167 482.5,254.5 Z"/></g>
</svg>
