<svg width="1024" height="1024" viewBox="0 0 1024 1024" fill="none" xmlns="http://www.w3.org/2000/svg">
<path opacity="0.876" fill-rule="evenodd" clip-rule="evenodd" d="M514 852C517.15 852.382 519.817 848.716 522 851C523.913 850.127 522.747 856.127 524.5 855C524.845 856.701 525.178 860.534 523.5 861.5C522.078 866.689 521.578 864.856 520 870C516.747 873.964 512.747 876.964 508 879C505.316 883.348 501.649 886.681 497 889C493.74 893.254 490.907 897.754 488.5 902.5C483.937 906.06 479.104 909.227 474 912C473.396 914.468 472.062 916.468 470 918C462.162 921.724 454.162 925.057 446 928C428.147 930.728 410.481 929.728 393 925C391.569 924.535 390.403 923.701 389.5 922.5C387.574 917.356 386.408 912.022 386 906.5C387.359 900.914 388.192 895.247 388.5 889.5C394.56 878.544 401.727 868.378 410 859C415.622 855.385 420.955 855.718 426 860C431.522 861.063 436.856 862.73 442 865C447.167 869.5 452.333 874 457.5 878.5C460.951 885.013 469.118 893.18 472 900C483.073 893.137 485.5 890.5 489.5 887C493.5 883.5 501.5 873 503.5 869C505.5 865 506.537 861.025 507.5 856C511.582 853.375 509.748 854.042 514 852Z" fill="white"/>
<path opacity="0.889" fill-rule="evenodd" clip-rule="evenodd" d="M728.5 828.5C733.72 828.172 737.387 830.339 739.5 835C744.633 837.654 749.133 841.154 753 845.5C757.333 851.833 761.667 858.167 766 864.5C774.411 868.055 777.244 874.222 774.5 883C779.946 893.833 776.612 899.333 764.5 899.5C764.116 902.769 762.782 905.603 760.5 908C756.213 909.888 751.713 910.721 747 910.5C719.73 907.319 692.564 903.485 665.5 899C661.286 896.814 656.953 894.814 652.5 893C645.04 886.603 636.373 882.27 626.5 880C623.103 876.06 618.769 873.393 613.5 872C609.922 867.49 608.588 862.324 609.5 856.5C616.364 855.16 623.198 853.494 630 851.5C633.125 852.256 633 862 634.5 864.5C636.5 871 642.866 875.114 650.5 877.5C658.5 880 672 883 685.5 884.5C689.581 867.498 699.914 848.998 712.5 837C717.483 833.344 722.816 830.511 728.5 828.5Z" fill="white"/>
</svg>
