<?xml version="1.0" encoding="UTF-8"?>
<!DOCTYPE svg PUBLIC "-//W3C//DTD SVG 1.1//EN" "http://www.w3.org/Graphics/SVG/1.1/DTD/svg11.dtd">
<svg xmlns="http://www.w3.org/2000/svg" version="1.1" width="1024px" height="1024px" style="shape-rendering:geometricPrecision; text-rendering:geometricPrecision; image-rendering:optimizeQuality; fill-rule:evenodd; clip-rule:evenodd" xmlns:xlink="http://www.w3.org/1999/xlink">
<g><path style="opacity:0.889" fill="#fefffe" d="M 728.5,828.5 C 733.72,828.172 737.387,830.339 739.5,835C 744.633,837.654 749.133,841.154 753,845.5C 757.333,851.833 761.667,858.167 766,864.5C 774.411,868.055 777.244,874.222 774.5,883C 779.946,893.833 776.612,899.333 764.5,899.5C 764.116,902.769 762.782,905.603 760.5,908C 756.213,909.888 751.713,910.721 747,910.5C 719.73,907.319 692.564,903.485 665.5,899C 661.286,896.814 656.953,894.814 652.5,893C 645.04,886.603 636.373,882.27 626.5,880C 623.103,876.06 618.769,873.393 613.5,872C 609.922,867.49 608.588,862.324 609.5,856.5C 616.364,855.16 623.198,853.494 630,851.5C 633.125,852.256 636.291,852.589 639.5,852.5C 639.204,857.775 640.871,862.608 644.5,867C 656.212,877.386 670.545,881.886 687.5,880.5C 691.581,863.498 699.914,848.998 712.5,837C 717.483,833.344 722.816,830.511 728.5,828.5 Z"/></g>
<g><path style="opacity:0.876" fill="#fefffe" d="M 512.5,849.5 C 515.65,849.882 518.317,851.216 520.5,853.5C 522.413,852.627 524.247,851.627 526,850.5C 526.345,852.201 525.678,853.534 524,854.5C 522.578,859.689 521.078,864.856 519.5,870C 516.247,873.964 512.247,876.964 507.5,879C 504.816,883.348 501.149,886.681 496.5,889C 493.24,893.254 490.407,897.754 488,902.5C 483.437,906.06 478.604,909.227 473.5,912C 472.896,914.468 471.562,916.468 469.5,918C 461.662,921.724 453.662,925.057 445.5,928C 427.647,930.728 409.981,929.728 392.5,925C 391.069,924.535 389.903,923.701 389,922.5C 387.074,917.356 385.908,912.022 385.5,906.5C 386.859,900.914 387.692,895.247 388,889.5C 394.06,878.544 401.227,868.378 409.5,859C 415.122,855.385 420.455,855.718 425.5,860C 431.022,861.063 436.356,862.73 441.5,865C 446.667,869.5 451.833,874 457,878.5C 460.451,885.013 463.618,891.68 466.5,898.5C 477.573,891.637 487.573,882.804 496.5,872C 496.167,871.667 495.833,871.333 495.5,871C 497.537,866.358 499.037,861.525 500,856.5C 504.082,853.875 508.248,851.542 512.5,849.5 Z"/></g>
<g><path style="opacity:0.007" fill="#fefffe" d="M 532.5,854.5 C 534.924,856.92 535.091,859.587 533,862.5C 533.347,859.729 533.18,857.062 532.5,854.5 Z"/></g>
</svg>
