<?xml version="1.0" encoding="UTF-8"?>
<!DOCTYPE svg PUBLIC "-//W3C//DTD SVG 1.1//EN" "http://www.w3.org/Graphics/SVG/1.1/DTD/svg11.dtd">
<svg xmlns="http://www.w3.org/2000/svg" version="1.1" width="1024px" height="1024px" style="shape-rendering:geometricPrecision; text-rendering:geometricPrecision; image-rendering:optimizeQuality; fill-rule:evenodd; clip-rule:evenodd" xmlns:xlink="http://www.w3.org/1999/xlink">
<g><path style="opacity:0.735" fill="#959595" d="M 701.5,618.5 C 701.5,619.167 701.5,619.833 701.5,620.5C 698.921,620.394 696.588,621.061 694.5,622.5C 693.833,622.5 693.167,622.5 692.5,622.5C 694.469,618.411 697.469,617.078 701.5,618.5 Z"/></g>
<g><path style="opacity:0.992" fill="#fefefe" d="M 701.5,620.5 C 705.5,621.656 708.5,624.156 710.5,628C 714.705,630.597 718.705,633.431 722.5,636.5C 725.129,639.631 727.962,642.631 731,645.5C 732.867,647.808 733.867,650.475 734,653.5C 735.039,654.71 736.206,655.71 737.5,656.5C 747.455,665.283 756.455,674.783 764.5,685C 762.919,685.707 761.419,686.54 760,687.5C 758.768,691.061 757.268,694.394 755.5,697.5C 754.207,698.842 753.374,700.509 753,702.5C 753.038,709.136 751.705,715.47 749,721.5C 748.003,723.323 746.836,724.99 745.5,726.5C 734.492,732.588 722.825,734.088 710.5,731C 706.991,729.241 703.325,728.074 699.5,727.5C 696.315,725.168 692.981,725.001 689.5,727C 683.753,736.024 676.753,743.857 668.5,750.5C 664.413,752.042 660.413,753.875 656.5,756C 641.057,757.651 626.057,755.651 611.5,750C 606.648,749.185 601.981,749.352 597.5,750.5C 593.393,750.518 589.393,751.185 585.5,752.5C 583.812,754.854 581.812,756.854 579.5,758.5C 579.631,757.761 579.464,757.094 579,756.5C 568.929,761.63 559.096,767.13 549.5,773C 542.894,773.41 536.561,774.577 530.5,776.5C 528.694,775.976 527.028,775.309 525.5,774.5C 521.436,770.108 516.436,767.442 510.5,766.5C 503.607,764.979 496.94,762.646 490.5,759.5C 489.158,758.207 487.491,757.374 485.5,757C 479.959,756.438 474.459,755.604 469,754.5C 462.45,755.397 455.95,756.564 449.5,758C 442.469,761.685 435.135,764.518 427.5,766.5C 424.023,765.677 420.356,765.177 416.5,765C 414.36,764.027 412.693,762.527 411.5,760.5C 410.3,761.531 408.966,762.365 407.5,763C 408.056,763.383 408.389,763.883 408.5,764.5C 399.433,764.932 395.266,760.599 396,751.5C 393.964,748.598 393.131,745.598 393.5,742.5C 393.023,741.522 392.357,740.689 391.5,740C 385.363,738.399 379.363,736.399 373.5,734C 368.981,730.754 367.814,726.587 370,721.5C 375.092,713.927 379.925,706.26 384.5,698.5C 387.118,693.882 390.784,690.216 395.5,687.5C 396.482,685.166 396.649,682.832 396,680.5C 404.395,671.937 412.895,663.604 421.5,655.5C 423.229,654.047 424.229,652.047 424.5,649.5C 425.852,648.104 427.519,647.437 429.5,647.5C 437.146,651.323 444.812,655.156 452.5,659C 462.02,661.697 471.687,663.531 481.5,664.5C 496.479,668.286 511.812,669.786 527.5,669C 529.665,667.508 531.498,665.675 533,663.5C 535.24,664.036 537.073,665.203 538.5,667C 541.5,667.667 544.5,667.667 547.5,667C 560.315,664.143 573.315,662.476 586.5,662C 604.014,655.788 622.014,651.788 640.5,650C 642.956,648.289 645.623,646.956 648.5,646C 647.906,645.536 647.239,645.369 646.5,645.5C 651.531,642.655 656.864,640.322 662.5,638.5C 662.735,639.097 663.235,639.43 664,639.5C 673.561,634.969 683.061,630.303 692.5,625.5C 693.425,624.643 694.092,623.643 694.5,622.5C 696.588,621.061 698.921,620.394 701.5,620.5 Z"/></g>
<g><path style="opacity:0.294" fill="#cccccc" d="M 692.5,622.5 C 693.167,622.5 693.833,622.5 694.5,622.5C 694.092,623.643 693.425,624.643 692.5,625.5C 683.061,630.303 673.561,634.969 664,639.5C 663.235,639.43 662.735,639.097 662.5,638.5C 665.511,637.439 668.511,636.273 671.5,635C 678.563,630.807 685.563,626.641 692.5,622.5 Z"/></g>
<g><path style="opacity:0.284" fill="#cbcbcb" d="M 701.5,618.5 C 705.871,620.033 709.205,622.866 711.5,627C 715.923,628.875 719.589,631.709 722.5,635.5C 722.5,635.833 722.5,636.167 722.5,636.5C 718.705,633.431 714.705,630.597 710.5,628C 708.5,624.156 705.5,621.656 701.5,620.5C 701.5,619.833 701.5,619.167 701.5,618.5 Z"/></g>
<g><path style="opacity:0.285" fill="#cecece" d="M 481.5,664.5 C 471.687,663.531 462.02,661.697 452.5,659C 444.812,655.156 437.146,651.323 429.5,647.5C 427.519,647.437 425.852,648.104 424.5,649.5C 424.229,652.047 423.229,654.047 421.5,655.5C 421.077,654.735 420.743,653.902 420.5,653C 421.62,651.263 422.62,649.429 423.5,647.5C 427.506,645.975 431.673,644.975 436,644.5C 444.772,646.684 444.605,647.85 435.5,648C 441.707,651.603 448.04,654.936 454.5,658C 463.663,660.042 472.663,662.208 481.5,664.5 Z"/></g>
<g><path style="opacity:0.427" fill="#afafaf" d="M 722.5,635.5 C 730.224,640.636 735.224,647.636 737.5,656.5C 736.206,655.71 735.039,654.71 734,653.5C 733.867,650.475 732.867,647.808 731,645.5C 727.962,642.631 725.129,639.631 722.5,636.5C 722.5,636.167 722.5,635.833 722.5,635.5 Z"/></g>
<g><path style="opacity:0.295" fill="#cdcdcd" d="M 646.5,645.5 C 647.239,645.369 647.906,645.536 648.5,646C 645.623,646.956 642.956,648.289 640.5,650C 622.014,651.788 604.014,655.788 586.5,662C 573.315,662.476 560.315,664.143 547.5,667C 544.5,667.667 541.5,667.667 538.5,667C 537.073,665.203 535.24,664.036 533,663.5C 531.498,665.675 529.665,667.508 527.5,669C 511.812,669.786 496.479,668.286 481.5,664.5C 482.496,664.586 483.329,664.252 484,663.5C 490.951,665.112 497.951,666.445 505,667.5C 505.333,667.167 505.667,666.833 506,666.5C 511.806,667.478 517.473,668.144 523,668.5C 527.155,667.506 530.322,665.173 532.5,661.5C 536.158,663.579 539.992,665.246 544,666.5C 557.223,662.845 570.723,661.012 584.5,661C 604.904,654.566 625.571,649.399 646.5,645.5 Z"/></g>
<g><path style="opacity:0.284" fill="#d2d2d2" d="M 421.5,655.5 C 412.895,663.604 404.395,671.937 396,680.5C 396.649,682.832 396.482,685.166 395.5,687.5C 390.784,690.216 387.118,693.882 384.5,698.5C 385.966,693.196 389.133,689.196 394,686.5C 394.711,684.633 394.211,683.133 392.5,682C 399.865,674.97 406.865,667.636 413.5,660C 415.817,657.843 418.484,656.343 421.5,655.5 Z"/></g>
<g><path style="opacity:0.279" fill="#cdcdcd" d="M 755.5,697.5 C 755.335,699.827 754.669,701.993 753.5,704C 753.721,705.799 754.054,707.632 754.5,709.5C 753.18,713.114 752.013,716.78 751,720.5C 750.208,723.106 748.708,725.106 746.5,726.5C 746.167,726.5 745.833,726.5 745.5,726.5C 746.836,724.99 748.003,723.323 749,721.5C 751.705,715.47 753.038,709.136 753,702.5C 753.374,700.509 754.207,698.842 755.5,697.5 Z"/></g>
<g><path style="opacity:0.061" fill="#bfbfbf" d="M 745.5,726.5 C 745.833,726.5 746.167,726.5 746.5,726.5C 740.165,732.109 732.665,734.443 724,733.5C 715.093,734.065 706.926,732.065 699.5,727.5C 703.325,728.074 706.991,729.241 710.5,731C 722.825,734.088 734.492,732.588 745.5,726.5 Z"/></g>
<g><path style="opacity:0.281" fill="#cccccc" d="M 597.5,750.5 C 601.981,749.352 606.648,749.185 611.5,750C 626.057,755.651 641.057,757.651 656.5,756C 660.413,753.875 664.413,752.042 668.5,750.5C 662.518,756.067 655.352,759.067 647,759.5C 634.463,758.193 622.296,755.36 610.5,751C 606.179,750.501 601.846,750.334 597.5,750.5 Z"/></g>
<g><path style="opacity:0.272" fill="#cccccc" d="M 490.5,759.5 C 496.94,762.646 503.607,764.979 510.5,766.5C 509.833,766.5 509.167,766.5 508.5,766.5C 501.479,766.498 495.479,764.165 490.5,759.5 Z"/></g>
<g><path style="opacity:0.124" fill="#c6c6c6" d="M 427.5,766.5 C 423.486,766.666 419.486,766.499 415.5,766C 413.871,765.415 412.371,764.581 411,763.5C 410.098,763.743 409.265,764.077 408.5,764.5C 408.389,763.883 408.056,763.383 407.5,763C 408.966,762.365 410.3,761.531 411.5,760.5C 412.693,762.527 414.36,764.027 416.5,765C 420.356,765.177 424.023,765.677 427.5,766.5 Z"/></g>
<g><path style="opacity:0.463" fill="#b6b6b6" d="M 508.5,766.5 C 509.167,766.5 509.833,766.5 510.5,766.5C 516.436,767.442 521.436,770.108 525.5,774.5C 520.029,771.349 514.363,768.682 508.5,766.5 Z"/></g>
<g><path style="opacity:0.294" fill="#b4b4b4" d="M 579.5,758.5 C 572.588,762.788 565.255,766.288 557.5,769C 555.792,771.043 553.792,772.71 551.5,774C 544.591,775.491 537.591,776.324 530.5,776.5C 536.561,774.577 542.894,773.41 549.5,773C 559.096,767.13 568.929,761.63 579,756.5C 579.464,757.094 579.631,757.761 579.5,758.5 Z"/></g>
</svg>
