<?xml version="1.0" encoding="UTF-8"?>
<!DOCTYPE svg PUBLIC "-//W3C//DTD SVG 1.1//EN" "http://www.w3.org/Graphics/SVG/1.1/DTD/svg11.dtd">
<svg xmlns="http://www.w3.org/2000/svg" version="1.1" width="1024px" height="1024px" style="shape-rendering:geometricPrecision; text-rendering:geometricPrecision; image-rendering:optimizeQuality; fill-rule:evenodd; clip-rule:evenodd" xmlns:xlink="http://www.w3.org/1999/xlink">
<g><path style="opacity:0.777" fill="#fefffe" d="M 509.5,290.5 C 512.119,290.232 514.619,290.565 517,291.5C 519.577,297.652 522.41,303.652 525.5,309.5C 523.725,313.477 520.891,316.477 517,318.5C 517.593,323.873 515.093,325.706 509.5,324C 507.578,322.58 506.245,320.747 505.5,318.5C 495.018,313.011 494.184,306.678 503,299.5C 505.385,296.621 507.552,293.621 509.5,290.5 Z"/></g>
<g><path style="opacity:0.913" fill="#fefffe" d="M 537.5,295.5 C 539.827,295.665 541.993,296.331 544,297.5C 547.352,306.535 552.019,314.868 558,322.5C 559.816,323.329 561.649,324.163 563.5,325C 565.539,327.374 567.872,329.374 570.5,331C 571.833,332.333 571.833,333.667 570.5,335C 580.681,336.078 584.681,341.578 582.5,351.5C 574.943,354.574 570.443,360.241 569,368.5C 560.416,376.661 554.083,386.327 550,397.5C 544.006,402.1 539.506,401.1 536.5,394.5C 536.833,393.833 537.167,393.167 537.5,392.5C 535.747,389.995 534.247,387.329 533,384.5C 525.982,377.981 518.815,371.647 511.5,365.5C 508.432,360.368 503.932,357.035 498,355.5C 495.568,356.45 493.068,356.45 490.5,355.5C 488.129,349.695 490.129,347.195 496.5,348C 497.198,345.546 498.198,343.213 499.5,341C 506.551,337.28 513.051,332.78 519,327.5C 524.06,318.049 528.56,308.382 532.5,298.5C 534.145,297.304 535.811,296.304 537.5,295.5 Z"/></g>
<g><path style="opacity:0.899" fill="#fefffe" d="M 627.5,295.5 C 632.433,297.269 636.6,300.269 640,304.5C 640.703,308.769 642.036,312.769 644,316.5C 648.637,315.07 651.804,316.737 653.5,321.5C 657.769,322.941 660.935,325.608 663,329.5C 668.643,327.051 672.31,328.718 674,334.5C 676.667,332.167 679.333,329.833 682,327.5C 682.81,322.374 685.477,318.707 690,316.5C 695.283,318.134 697.949,321.801 698,327.5C 702.133,329.622 703.966,332.789 703.5,337C 707.259,340.213 707.925,343.713 705.5,347.5C 703.194,347.993 700.861,348.326 698.5,348.5C 698.638,352.585 697.472,356.251 695,359.5C 691.414,362.205 687.914,362.038 684.5,359C 682.593,355.09 679.927,351.756 676.5,349C 674.51,349.138 672.51,349.638 670.5,350.5C 666.717,350.311 663.55,351.978 661,355.5C 657,360.833 653,366.167 649,371.5C 647.608,377.072 645.608,382.405 643,387.5C 640.321,390.835 637.155,391.335 633.5,389C 629.376,383.923 625.876,378.423 623,372.5C 613,365.167 603,357.833 593,350.5C 591.364,345.521 592.198,340.855 595.5,336.5C 607.538,329.954 616.371,320.287 622,307.5C 621.468,302.206 623.301,298.206 627.5,295.5 Z"/></g>
</svg>
