<?xml version="1.0" encoding="UTF-8"?>
<!DOCTYPE svg PUBLIC "-//W3C//DTD SVG 1.1//EN" "http://www.w3.org/Graphics/SVG/1.1/DTD/svg11.dtd">
<svg xmlns="http://www.w3.org/2000/svg" version="1.1" width="1024px" height="1024px" style="shape-rendering:geometricPrecision; text-rendering:geometricPrecision; image-rendering:optimizeQuality; fill-rule:evenodd; clip-rule:evenodd" xmlns:xlink="http://www.w3.org/1999/xlink">
<g><path style="opacity:0.938" fill="#fefffe" d="M 638.5,289.5 C 647.252,289.473 655.085,292.139 662,297.5C 662.333,298.833 662.667,300.167 663,301.5C 667.757,305.918 672.09,310.585 676,315.5C 677.195,318.187 677.362,320.854 676.5,323.5C 678.297,325.131 679.464,327.131 680,329.5C 681.928,342.161 680.595,354.494 676,366.5C 664.175,377.555 650.341,381.721 634.5,379C 628.734,374.636 622.734,370.636 616.5,367C 615.167,366.667 613.833,366.333 612.5,366C 608.226,356.786 604.226,347.452 600.5,338C 602.373,313 615.04,296.834 638.5,289.5 Z"/></g>
<g><path style="opacity:0.942" fill="#fefffe" d="M 537.5,304.5 C 545.07,304.116 550.737,307.116 554.5,313.5C 556.5,314.333 558.5,315.167 560.5,316C 564.981,322.479 570.148,328.312 576,333.5C 577.758,340.432 580.258,347.098 583.5,353.5C 581.767,356.955 581.434,360.455 582.5,364C 579.207,369.418 576.04,374.918 573,380.5C 569.087,381.969 566.253,384.636 564.5,388.5C 560.289,390.626 555.956,392.459 551.5,394C 542.76,394.13 534.427,395.297 526.5,397.5C 521.825,395.164 517.492,392.331 513.5,389C 509.667,389.167 507.833,387.333 508,383.5C 504.379,379.224 500.546,375.224 496.5,371.5C 495.112,368.115 494.112,364.615 493.5,361C 494.213,355.524 494.713,350.024 495,344.5C 496.925,339.989 498.258,335.323 499,330.5C 504.807,321.061 512.307,313.227 521.5,307C 526.956,306.055 532.289,305.222 537.5,304.5 Z"/></g>
</svg>
