<?xml version="1.0" encoding="UTF-8"?>
<!DOCTYPE svg PUBLIC "-//W3C//DTD SVG 1.1//EN" "http://www.w3.org/Graphics/SVG/1.1/DTD/svg11.dtd">
<svg xmlns="http://www.w3.org/2000/svg" version="1.1" width="1024px" height="1024px" style="shape-rendering:geometricPrecision; text-rendering:geometricPrecision; image-rendering:optimizeQuality; fill-rule:evenodd; clip-rule:evenodd" xmlns:xlink="http://www.w3.org/1999/xlink">
<g><path style="opacity:0.978" fill="#fefffe" d="M 548.5,189.5 C 551.247,189.187 553.914,189.52 556.5,190.5C 559.138,194.742 561.638,199.075 564,203.5C 589.608,228.114 616.108,251.614 643.5,274C 650.298,279.456 657.631,284.123 665.5,288C 670.615,292.233 673.949,297.566 675.5,304C 683.379,310.034 690.546,316.868 697,324.5C 697.414,324.043 697.914,323.709 698.5,323.5C 706.754,328.426 714.088,334.426 720.5,341.5C 716.141,351.864 709.808,360.864 701.5,368.5C 700.533,370.63 699.366,372.63 698,374.5C 688.748,381.708 680.248,389.708 672.5,398.5C 673.889,401.342 673.222,403.675 670.5,405.5C 663.287,409.543 656.787,414.543 651,420.5C 648.654,426.846 644.32,431.18 638,433.5C 633.664,431.901 629.831,432.734 626.5,436C 619.026,442.805 611.526,449.638 604,456.5C 602.873,459.377 602.206,462.377 602,465.5C 595.995,471.848 589.162,477.014 581.5,481C 578.284,490.902 571.617,494.902 561.5,493C 558.64,490.446 555.307,488.779 551.5,488C 549.917,484.176 547.584,480.843 544.5,478C 541.086,477.703 537.753,477.036 534.5,476C 516.457,464.311 499.124,451.644 482.5,438C 467.682,427.256 451.682,418.589 434.5,412C 431.461,409.975 429.795,407.141 429.5,403.5C 425.088,401.92 421.755,399.087 419.5,395C 411.447,396.062 405.947,392.896 403,385.5C 398.815,382.405 394.815,379.072 391,375.5C 390.333,373.5 390.333,371.5 391,369.5C 393.638,366.683 396.638,364.35 400,362.5C 401.52,359.618 402.853,356.618 404,353.5C 409.459,348.05 414.126,342.05 418,335.5C 430.994,320.84 444.328,306.506 458,292.5C 457.406,290.491 457.573,288.491 458.5,286.5C 473.226,270.061 487.726,253.394 502,236.5C 507.025,230.309 511.858,223.976 516.5,217.5C 524.831,209.867 532.831,202.034 540.5,194C 542.82,191.679 545.486,190.179 548.5,189.5 Z"/></g>
</svg>
