<?xml version="1.0" encoding="UTF-8"?>
<!DOCTYPE svg PUBLIC "-//W3C//DTD SVG 1.1//EN" "http://www.w3.org/Graphics/SVG/1.1/DTD/svg11.dtd">
<svg xmlns="http://www.w3.org/2000/svg" version="1.1" width="1024px" height="1024px" style="shape-rendering:geometricPrecision; text-rendering:geometricPrecision; image-rendering:optimizeQuality; fill-rule:evenodd; clip-rule:evenodd" xmlns:xlink="http://www.w3.org/1999/xlink">
<g><path style="opacity:0.971" fill="#fefffe" d="M 448.5,81.5 C 457.68,81.2985 467.014,81.9652 476.5,83.5C 488.649,82.2539 500.315,84.5872 511.5,90.5C 512.879,95.1037 515.712,96.7703 520,95.5C 524.848,98.9255 529.515,102.592 534,106.5C 536.171,110.844 538.837,114.844 542,118.5C 543.617,126.069 546.617,133.069 551,139.5C 561.004,137.062 571.171,135.895 581.5,136C 585.232,137.56 588.232,140.06 590.5,143.5C 593.103,142.438 595.77,142.272 598.5,143C 603.68,146.09 609.013,148.924 614.5,151.5C 617.464,150.528 620.464,150.362 623.5,151C 628.167,153.667 632.833,156.333 637.5,159C 641.952,165.453 647.119,171.286 653,176.5C 658.896,188.625 665.063,200.625 671.5,212.5C 674.286,213.956 677.286,214.956 680.5,215.5C 680.774,220.288 682.274,224.621 685,228.5C 685.873,237.051 686.707,245.551 687.5,254C 687.167,254.333 686.833,254.667 686.5,255C 689.353,265.283 691.186,275.783 692,286.5C 696.714,291.308 696.548,295.808 691.5,300C 688.697,300.755 686.03,300.422 683.5,299C 681.599,295.316 679.099,292.149 676,289.5C 675.503,287.19 675.337,284.857 675.5,282.5C 672.626,282.377 670.126,281.377 668,279.5C 668.393,284.132 668.393,288.799 668,293.5C 666.748,297.294 664.082,298.96 660,298.5C 657.095,298.124 654.262,297.457 651.5,296.5C 650.5,296.667 649.5,296.833 648.5,297C 645.977,300.93 642.31,302.43 637.5,301.5C 633.122,301.378 628.789,300.878 624.5,300C 623.069,299.535 621.903,298.701 621,297.5C 615.98,289.464 612.647,280.797 611,271.5C 609.729,268.567 608.062,265.901 606,263.5C 599.884,263.612 597.551,266.612 599,272.5C 600.047,274.762 601.213,276.929 602.5,279C 602.286,284.107 602.12,289.274 602,294.5C 599.625,297.482 596.458,299.148 592.5,299.5C 588.876,302.164 585.21,304.831 581.5,307.5C 572.958,305.349 564.292,304.516 555.5,305C 549.883,307.795 543.883,309.462 537.5,310C 529.519,313.392 521.186,314.392 512.5,313C 511.069,312.535 509.903,311.701 509,310.5C 505.797,303.095 503.464,295.428 502,287.5C 501.667,287.833 501.333,288.167 501,288.5C 493.332,312.003 486.832,335.837 481.5,360C 483.831,375.494 488.331,390.327 495,404.5C 498.85,411.691 504.183,417.691 511,422.5C 514.167,432.667 510.667,436.167 500.5,433C 495.345,429.522 492.678,424.689 492.5,418.5C 489.167,415.167 485.833,411.833 482.5,408.5C 477.841,408.029 474.674,405.696 473,401.5C 466.139,413.888 459.806,426.554 454,439.5C 450.855,442.734 447.522,445.734 444,448.5C 441.981,451.918 442.147,455.251 444.5,458.5C 441.344,460.36 439.677,463.193 439.5,467C 443.639,475.049 446.472,483.549 448,492.5C 450.941,497.772 454.274,502.772 458,507.5C 460.575,513.315 462.575,519.315 464,525.5C 468.274,529.774 473.107,533.274 478.5,536C 481.847,540.011 485.18,544.011 488.5,548C 488.241,549.261 487.574,550.261 486.5,551C 481.238,552.439 475.904,552.772 470.5,552C 462.617,549.188 454.617,546.688 446.5,544.5C 444.253,545.374 441.92,545.708 439.5,545.5C 439.515,549.56 439.015,553.56 438,557.5C 434.056,560.893 429.556,562.059 424.5,561C 416.968,557.921 409.634,554.254 402.5,550C 398.783,546.615 394.783,543.615 390.5,541C 386.629,536.165 382.462,531.665 378,527.5C 376.89,529.942 375.39,532.109 373.5,534C 377.935,537.679 379.935,542.179 379.5,547.5C 380.47,550.437 381.137,553.437 381.5,556.5C 375.343,558.152 369.343,557.819 363.5,555.5C 357.896,546.72 352.062,538.053 346,529.5C 343.828,528.415 341.828,527.081 340,525.5C 330.394,507.439 323.061,488.439 318,468.5C 314.107,463.7 312.607,458.2 313.5,452C 313.719,437.977 314.886,424.143 317,410.5C 318.181,408.325 319.348,406.158 320.5,404C 322.741,388.943 327.575,374.776 335,361.5C 338.378,346.416 343.711,332.082 351,318.5C 358.312,305.889 366.312,293.889 375,282.5C 377.724,276.995 380.057,271.328 382,265.5C 383.067,254.502 383.901,243.502 384.5,232.5C 382.5,231.833 380.5,231.167 378.5,230.5C 379.744,227.589 381.077,224.756 382.5,222C 380.461,210.579 378.961,199.079 378,187.5C 372.833,182.667 367.667,177.833 362.5,173C 356.814,172.386 351.148,172.053 345.5,172C 343.913,172.862 342.246,173.529 340.5,174C 332.364,183.137 323.864,191.97 315,200.5C 311.981,205.222 309.148,210.055 306.5,215C 302.538,215.312 299.538,217.145 297.5,220.5C 295.257,221.474 292.924,221.808 290.5,221.5C 290.334,216.156 290.501,210.823 291,205.5C 294.79,196.21 298.457,186.877 302,177.5C 304.835,172.981 307.669,168.481 310.5,164C 309.005,160.634 309.338,157.468 311.5,154.5C 316.554,152.648 320.888,149.815 324.5,146C 333.71,143.784 342.71,141.117 351.5,138C 360.364,138.17 369.198,139.003 378,140.5C 379.167,140.167 380.333,139.833 381.5,139.5C 380.145,138.325 380.312,137.325 382,136.5C 382.667,135.167 382.667,133.833 382,132.5C 379.192,130.179 376.025,128.512 372.5,127.5C 368.265,122.851 364.932,117.684 362.5,112C 359.097,111.422 355.93,110.255 353,108.5C 352.019,105.88 350.853,103.38 349.5,101C 350.032,98.9803 351.365,98.147 353.5,98.5C 353.33,97.1779 353.663,96.0113 354.5,95C 357.17,94.2068 359.67,93.0401 362,91.5C 372.126,93.5607 381.459,97.5607 390,103.5C 395.01,110.863 400.01,118.197 405,125.5C 410.735,124.911 414.235,121.744 415.5,116C 412.727,110.854 413.227,106.021 417,101.5C 423.833,96 430.667,90.5 437.5,85C 441.161,83.4075 444.828,82.2408 448.5,81.5 Z M 464.5,98.5 C 473.181,98.946 480.515,102.279 486.5,108.5C 487.262,112.111 487.762,115.778 488,119.5C 490.583,122.997 492.916,126.664 495,130.5C 495.498,133.817 495.665,137.15 495.5,140.5C 492.482,140.335 489.482,140.502 486.5,141C 476.65,145.171 466.816,149.338 457,153.5C 455.293,152.541 453.459,151.875 451.5,151.5C 446.142,155.089 443.142,153.756 442.5,147.5C 440.833,147.5 439.167,147.5 437.5,147.5C 437.495,142.648 435.662,138.648 432,135.5C 429.887,127.292 430.554,119.292 434,111.5C 438.751,108.541 443.584,105.707 448.5,103C 454.034,101.704 459.367,100.204 464.5,98.5 Z"/></g>
</svg>
