<?xml version="1.0" encoding="UTF-8"?>
<!DOCTYPE svg PUBLIC "-//W3C//DTD SVG 1.1//EN" "http://www.w3.org/Graphics/SVG/1.1/DTD/svg11.dtd">
<svg xmlns="http://www.w3.org/2000/svg" version="1.1" width="1024px" height="1024px" style="shape-rendering:geometricPrecision; text-rendering:geometricPrecision; image-rendering:optimizeQuality; fill-rule:evenodd; clip-rule:evenodd" xmlns:xlink="http://www.w3.org/1999/xlink">
<g><path style="opacity:0.933" fill="#fefffe" d="M 629.5,817.5 C 634.91,819.026 640.244,820.859 645.5,823C 650.52,826.032 655.52,829.032 660.5,832C 668.46,832.115 676.46,832.782 684.5,834C 700.33,839.468 716.33,839.968 732.5,835.5C 731.96,834.252 731.293,833.085 730.5,832C 743.378,827.085 750.211,831.585 751,845.5C 759.979,852.479 768.312,860.146 776,868.5C 780.266,880.708 776.1,888.208 763.5,891C 755.841,890.734 748.507,892.067 741.5,895C 731.11,895.384 720.777,894.718 710.5,893C 698.765,889.322 686.932,886.155 675,883.5C 674.667,883.833 674.333,884.167 674,884.5C 670.232,882.245 666.232,880.578 662,879.5C 659.661,885.193 655.495,888.026 649.5,888C 642.468,884.821 635.801,881.154 629.5,877C 625.624,873.074 624.957,868.741 627.5,864C 624.877,855.971 624.877,847.971 627.5,840C 625.594,835.852 624.261,831.518 623.5,827C 623.233,822.194 625.233,819.027 629.5,817.5 Z"/></g>
<g><path style="opacity:0.937" fill="#fefffe" d="M 501.5,837.5 C 506.167,837.5 510.833,837.5 515.5,837.5C 515.747,841.411 517.247,844.744 520,847.5C 519.708,855.94 521.208,864.44 524.5,873C 520.839,877.259 520.505,881.926 523.5,887C 522.885,889.515 521.885,891.848 520.5,894C 512.868,895.914 505.201,897.747 497.5,899.5C 497.83,896.898 497.33,894.231 496,891.5C 494.806,890.57 493.473,889.903 492,889.5C 489.177,890.983 486.343,892.483 483.5,894C 482.134,897.721 479.801,900.721 476.5,903C 470.79,906.855 464.79,910.188 458.5,913C 443.297,915.253 428.13,917.753 413,920.5C 406.159,920.399 399.659,918.899 393.5,916C 389.868,911.876 386.368,907.709 383,903.5C 382.727,901.899 382.227,900.399 381.5,899C 382.227,897.601 382.727,896.101 383,894.5C 388.977,886.94 395.311,879.607 402,872.5C 404.43,865.736 408.93,860.903 415.5,858C 418.911,857.973 422.244,857.806 425.5,857.5C 427.059,858.074 428.559,858.74 430,859.5C 445.171,853.331 461.005,849.831 477.5,849C 482.623,847.021 487.79,845.187 493,843.5C 495.291,840.615 498.124,838.615 501.5,837.5 Z"/></g>
</svg>
