<?xml version="1.0" encoding="UTF-8"?>
<!DOCTYPE svg PUBLIC "-//W3C//DTD SVG 1.1//EN" "http://www.w3.org/Graphics/SVG/1.1/DTD/svg11.dtd">
<svg xmlns="http://www.w3.org/2000/svg" version="1.1" width="1024px" height="1024px" style="shape-rendering:geometricPrecision; text-rendering:geometricPrecision; image-rendering:optimizeQuality; fill-rule:evenodd; clip-rule:evenodd" xmlns:xlink="http://www.w3.org/1999/xlink">
<g><path style="opacity:0.968" fill="#fefffe" d="M 526.5,126.5 C 532.652,125.908 536.985,128.408 539.5,134C 547.283,138.116 553.45,143.95 558,151.5C 561.892,149.933 565.558,150.267 569,152.5C 573.313,150.34 577.813,148.673 582.5,147.5C 588.111,148.357 590.611,151.69 590,157.5C 591.99,160.722 594.49,161.222 597.5,159C 606.886,158.147 616.219,158.481 625.5,160C 640.217,165.523 653.884,172.856 666.5,182C 675,184.99 682.167,189.823 688,196.5C 692.966,205.76 697.966,215.093 703,224.5C 705.117,233.384 707.784,242.051 711,250.5C 721.287,262.935 724.287,276.935 720,292.5C 719.031,294.734 717.698,296.734 716,298.5C 715.232,305.256 714.065,311.923 712.5,318.5C 719.993,322.497 727.993,324.33 736.5,324C 741.51,327.507 746.843,330.507 752.5,333C 755.66,335.497 757.66,338.663 758.5,342.5C 758.61,344.374 757.944,345.874 756.5,347C 760.423,350.677 762.923,355.177 764,360.5C 764.269,367.542 764.936,374.542 766,381.5C 768.102,384.816 769.269,388.482 769.5,392.5C 769.475,395.471 768.475,397.971 766.5,400C 769.945,411.225 766.612,419.558 756.5,425C 750.164,425.152 743.83,424.819 737.5,424C 731.833,419.5 726.167,415 720.5,410.5C 711.167,407.991 704.001,402.658 699,394.5C 691.418,382.754 687.251,369.921 686.5,356C 685.704,351.82 687.037,348.653 690.5,346.5C 690.833,345.333 691.167,344.167 691.5,343C 690.455,340.23 689.788,337.397 689.5,334.5C 680.32,334.634 671.32,333.134 662.5,330C 625.926,314.408 594.759,291.575 569,261.5C 566.912,257.07 565.579,252.404 565,247.5C 563.315,245.983 561.815,244.316 560.5,242.5C 556.765,249.471 553.431,256.638 550.5,264C 552.444,266.153 552.944,268.653 552,271.5C 544.954,281.084 538.787,291.251 533.5,302C 534.448,302.483 535.448,302.649 536.5,302.5C 536.579,305.271 536.079,307.937 535,310.5C 524.593,322.911 513.426,334.744 501.5,346C 499.754,346.471 498.087,347.138 496.5,348C 477.768,365.196 457.435,380.196 435.5,393C 433.432,393.687 431.432,393.52 429.5,392.5C 427.321,393.757 425.321,395.257 423.5,397C 424.872,397.402 426.205,397.902 427.5,398.5C 430.438,397.425 433.438,397.259 436.5,398C 441.824,402.949 444.657,409.116 445,416.5C 445.719,425.933 446.885,435.266 448.5,444.5C 447.227,448.479 446.06,452.479 445,456.5C 437.083,469.337 428.916,482.003 420.5,494.5C 415.041,492.545 411.541,488.878 410,483.5C 409.667,484.833 409.333,486.167 409,487.5C 404.333,492.167 399.667,496.833 395,501.5C 388.5,510.667 382,519.833 375.5,529C 370.611,529.856 365.944,531.523 361.5,534C 355.667,538.5 349.833,543 344,547.5C 341.708,546.21 339.708,544.543 338,542.5C 337.667,536.833 337.333,531.167 337,525.5C 336,524.167 335,522.833 334,521.5C 333.058,516.844 332.225,512.177 331.5,507.5C 333.038,490.108 334.538,472.441 336,454.5C 339.814,442.06 343.814,429.727 348,417.5C 350.147,416.887 352.314,416.221 354.5,415.5C 356.699,409.601 360.033,404.435 364.5,400C 373.812,394.624 383.479,390.124 393.5,386.5C 385.481,367.623 378.314,348.29 372,328.5C 370.503,320.221 370.169,311.888 371,303.5C 371.75,302.874 372.584,302.374 373.5,302C 369.035,298.699 367.035,294.199 367.5,288.5C 373.42,260.394 384.753,234.727 401.5,211.5C 410.288,203.545 418.621,195.045 426.5,186C 430.607,181.78 435.607,179.447 441.5,179C 446.81,175.894 452.477,173.561 458.5,172C 462.667,168.413 467.334,165.58 472.5,163.5C 473.466,158.533 476.466,156.2 481.5,156.5C 483.529,156.67 485.529,157.004 487.5,157.5C 489.641,156.192 491.641,154.692 493.5,153C 506.298,150.618 518.965,151.118 531.5,154.5C 532.5,154.167 533.5,153.833 534.5,153.5C 531.524,149.356 528.357,145.356 525,141.5C 522.584,136.024 523.084,131.024 526.5,126.5 Z"/></g>
</svg>
